<svg width="436" height="436" viewBox="0 0 436 436" fill="none" xmlns="http://www.w3.org/2000/svg">
<g filter="url(#filter0_bd_228_46845)">
<rect x="286.729" y="100.668" width="112.919" height="48" rx="10.4902" fill="white"/>
<g clip-path="url(#clip0_228_46845)">
<path d="M304.605 119.653L316.152 110.947L327.77 119.653V122.397H304.605V119.653Z" fill="#C6D0FE"/>
<rect x="306.561" y="123.207" width="2.12913" height="10.3795" fill="#1A4CFF"/>
<rect x="312.27" y="123.207" width="2.12913" height="10.3795" fill="#1A4CFF"/>
<rect x="317.979" y="123.207" width="2.12913" height="10.3795" fill="#1A4CFF"/>
<rect x="323.686" y="123.207" width="2.12913" height="10.3795" fill="#1A4CFF"/>
<rect x="304.605" y="136.525" width="2.12913" height="23.1648" transform="rotate(-90 304.605 136.525)" fill="#C6D0FE"/>
</g>
<path d="M339.863 130.168V119.608H344.023C345.292 119.608 346.22 119.864 346.807 120.376C347.394 120.888 347.687 121.597 347.687 122.504C347.687 123.058 347.527 123.554 347.207 123.992C346.887 124.418 346.418 124.69 345.799 124.808V124.824C346.482 124.93 347.01 125.213 347.383 125.672C347.767 126.12 347.959 126.642 347.959 127.24C347.959 128.146 347.628 128.861 346.967 129.384C346.306 129.906 345.346 130.168 344.087 130.168H339.863ZM341.543 128.744H344.167C344.839 128.744 345.34 128.605 345.671 128.328C346.012 128.05 346.183 127.661 346.183 127.16C346.183 126.658 346.012 126.269 345.671 125.992C345.34 125.714 344.839 125.576 344.167 125.576H341.543V128.744ZM341.543 124.152H343.895C345.239 124.152 345.911 123.634 345.911 122.6C345.911 121.565 345.239 121.048 343.895 121.048H341.543V124.152ZM354.841 125.032C354.841 124.498 354.691 124.088 354.393 123.8C354.105 123.501 353.705 123.352 353.193 123.352C352.713 123.352 352.302 123.464 351.961 123.688C351.619 123.912 351.369 124.274 351.209 124.776L349.769 124.168C349.971 123.517 350.366 122.994 350.953 122.6C351.55 122.205 352.318 122.008 353.257 122.008C353.897 122.008 354.462 122.114 354.953 122.328C355.443 122.53 355.827 122.84 356.105 123.256C356.393 123.672 356.537 124.205 356.537 124.856V128.424C356.537 128.818 356.734 129.016 357.129 129.016C357.321 129.016 357.507 128.989 357.689 128.936L357.593 130.12C357.347 130.237 357.038 130.296 356.665 130.296C356.323 130.296 356.014 130.237 355.737 130.12C355.47 129.992 355.257 129.805 355.097 129.56C354.947 129.304 354.873 128.989 354.873 128.616V128.504L355.225 128.488C355.129 128.904 354.931 129.25 354.633 129.528C354.334 129.794 353.987 129.997 353.593 130.136C353.198 130.264 352.798 130.328 352.393 130.328C351.891 130.328 351.438 130.248 351.033 130.088C350.638 129.928 350.323 129.688 350.089 129.368C349.865 129.037 349.753 128.632 349.753 128.152C349.753 127.554 349.945 127.064 350.329 126.68C350.723 126.296 351.278 126.034 351.993 125.896L355.097 125.288L355.081 126.488L352.825 126.952C352.377 127.037 352.041 127.16 351.817 127.32C351.593 127.48 351.481 127.714 351.481 128.024C351.481 128.322 351.593 128.562 351.817 128.744C352.051 128.914 352.361 129 352.745 129C353.011 129 353.267 128.968 353.513 128.904C353.769 128.84 353.998 128.738 354.201 128.6C354.403 128.45 354.558 128.264 354.665 128.04C354.782 127.805 354.841 127.528 354.841 127.208V125.032ZM359.342 130.168V122.168H360.862L360.974 124.248L360.75 124.024C360.899 123.565 361.112 123.186 361.39 122.888C361.678 122.578 362.014 122.354 362.398 122.216C362.792 122.077 363.208 122.008 363.646 122.008C364.211 122.008 364.718 122.12 365.166 122.344C365.624 122.557 365.987 122.882 366.254 123.32C366.52 123.757 366.654 124.312 366.654 124.984V130.168H364.942V125.512C364.942 124.722 364.776 124.178 364.446 123.88C364.126 123.57 363.72 123.416 363.23 123.416C362.878 123.416 362.536 123.501 362.206 123.672C361.875 123.832 361.598 124.093 361.374 124.456C361.16 124.818 361.054 125.304 361.054 125.912V130.168H359.342ZM376.8 122.168L373.232 125.816L372.864 126.072L370.352 128.68L370.336 126.728L374.768 122.168H376.8ZM370.96 118.568V130.168H369.248V118.568H370.96ZM373.44 124.856L376.992 130.168H375.008L372.16 125.832L373.44 124.856ZM381.475 130.328C380.675 130.328 379.945 130.173 379.283 129.864C378.622 129.554 378.099 129.117 377.715 128.552L378.899 127.528C379.134 127.965 379.47 128.317 379.907 128.584C380.355 128.84 380.889 128.968 381.507 128.968C381.998 128.968 382.387 128.882 382.675 128.712C382.963 128.541 383.107 128.301 383.107 127.992C383.107 127.789 383.038 127.613 382.899 127.464C382.771 127.304 382.521 127.181 382.147 127.096L380.467 126.744C379.614 126.573 379.006 126.301 378.643 125.928C378.281 125.544 378.099 125.058 378.099 124.472C378.099 124.034 378.227 123.629 378.483 123.256C378.739 122.882 379.113 122.584 379.603 122.36C380.105 122.125 380.702 122.008 381.395 122.008C382.195 122.008 382.878 122.152 383.443 122.44C384.009 122.717 384.441 123.117 384.739 123.64L383.555 124.632C383.353 124.205 383.054 123.89 382.659 123.688C382.265 123.474 381.854 123.368 381.427 123.368C381.086 123.368 380.793 123.41 380.547 123.496C380.302 123.581 380.115 123.698 379.987 123.848C379.859 123.997 379.795 124.173 379.795 124.376C379.795 124.589 379.875 124.776 380.035 124.936C380.195 125.096 380.483 125.218 380.899 125.304L382.723 125.688C383.491 125.837 384.03 126.093 384.339 126.456C384.659 126.808 384.819 127.24 384.819 127.752C384.819 128.264 384.686 128.717 384.419 129.112C384.153 129.496 383.769 129.794 383.267 130.008C382.766 130.221 382.169 130.328 381.475 130.328Z" fill="#101828"/>
<path d="M341.794 151.987L333.568 145.33L343.193 148.668L352.818 145.33L344.594 151.987C343.778 152.648 342.61 152.648 341.794 151.987Z" fill="white"/>
</g>
<g filter="url(#filter1_bd_228_46845)">
<rect x="152.639" y="28.6403" width="155.919" height="48" rx="10.4902" fill="white"/>
<g clip-path="url(#clip1_228_46845)">
<path d="M170.516 64.5952V46.5046H193.68V59.1901L185.076 63.6024L177.686 57.4251L170.516 64.5952Z" fill="#C6D0FE"/>
<path fill-rule="evenodd" clip-rule="evenodd" d="M182.098 54.7067C185.345 54.7067 187.978 52.0744 187.978 48.8273C187.978 45.5802 182.098 40.6859 182.098 40.6859C182.098 40.6859 176.219 45.5802 176.219 48.8273C176.219 52.0744 178.851 54.7067 182.098 54.7067ZM182.097 51.0477C183.317 51.0477 184.306 50.0589 184.306 48.8392C184.306 47.6195 183.317 46.6307 182.097 46.6307C180.878 46.6307 179.889 47.6195 179.889 48.8392C179.889 50.0589 180.878 51.0477 182.097 51.0477Z" fill="#1A4CFF"/>
</g>
<path d="M214.429 47.5803V58.1403H212.397L208.317 51.4843L207.293 49.6123H207.277L207.341 51.3243V58.1403H205.773V47.5803H207.789L211.853 54.2203L212.893 56.1243H212.909L212.845 54.3963V47.5803H214.429ZM221.86 53.0043C221.86 52.4709 221.711 52.0603 221.412 51.7723C221.124 51.4736 220.724 51.3243 220.212 51.3243C219.732 51.3243 219.322 51.4363 218.98 51.6603C218.639 51.8843 218.388 52.2469 218.228 52.7483L216.788 52.1403C216.991 51.4896 217.386 50.9669 217.972 50.5723C218.57 50.1776 219.338 49.9803 220.276 49.9803C220.916 49.9803 221.482 50.0869 221.972 50.3003C222.463 50.5029 222.847 50.8123 223.124 51.2283C223.412 51.6443 223.556 52.1776 223.556 52.8283V56.3963C223.556 56.7909 223.754 56.9883 224.148 56.9883C224.34 56.9883 224.527 56.9616 224.708 56.9083L224.612 58.0923C224.367 58.2096 224.058 58.2683 223.684 58.2683C223.343 58.2683 223.034 58.2096 222.756 58.0923C222.49 57.9643 222.276 57.7776 222.116 57.5323C221.967 57.2763 221.892 56.9616 221.892 56.5883V56.4763L222.244 56.4603C222.148 56.8763 221.951 57.2229 221.652 57.5003C221.354 57.7669 221.007 57.9696 220.612 58.1083C220.218 58.2363 219.818 58.3003 219.412 58.3003C218.911 58.3003 218.458 58.2203 218.052 58.0603C217.658 57.9003 217.343 57.6603 217.108 57.3403C216.884 57.0096 216.772 56.6043 216.772 56.1243C216.772 55.5269 216.964 55.0363 217.348 54.6523C217.743 54.2683 218.298 54.0069 219.012 53.8683L222.116 53.2603L222.1 54.4603L219.844 54.9243C219.396 55.0096 219.06 55.1323 218.836 55.2923C218.612 55.4523 218.5 55.6869 218.5 55.9963C218.5 56.2949 218.612 56.5349 218.836 56.7163C219.071 56.8869 219.38 56.9723 219.764 56.9723C220.031 56.9723 220.287 56.9403 220.532 56.8763C220.788 56.8123 221.018 56.7109 221.22 56.5723C221.423 56.4229 221.578 56.2363 221.684 56.0123C221.802 55.7776 221.86 55.5003 221.86 55.1803V53.0043ZM231.344 50.1403H233.136L229.952 58.1403H228.08L224.88 50.1403H226.752L229.024 56.6523L231.344 50.1403ZM235.46 48.7963C235.086 48.7963 234.798 48.7056 234.596 48.5243C234.404 48.3323 234.308 48.0656 234.308 47.7243C234.308 47.3829 234.404 47.1216 234.596 46.9403C234.798 46.7589 235.086 46.6683 235.46 46.6683C235.822 46.6683 236.1 46.7589 236.292 46.9403C236.494 47.1216 236.596 47.3829 236.596 47.7243C236.596 48.0656 236.494 48.3323 236.292 48.5243C236.1 48.7056 235.822 48.7963 235.46 48.7963ZM236.308 50.1403V58.1403H234.596V50.1403H236.308ZM246.026 48.4603L246.298 49.8043C246.266 49.8043 246.234 49.8043 246.202 49.8043C246.17 49.7936 246.138 49.7883 246.106 49.7883C245.594 49.7883 245.205 49.9003 244.938 50.1243C244.672 50.3376 244.538 50.6523 244.538 51.0683L243.706 50.6843C243.706 50.2576 243.797 49.8789 243.978 49.5483C244.16 49.2069 244.416 48.9403 244.746 48.7483C245.088 48.5563 245.472 48.4603 245.898 48.4603C245.92 48.4603 245.941 48.4603 245.962 48.4603C245.984 48.4603 246.005 48.4603 246.026 48.4603ZM243.498 56.8923C244.309 56.8923 244.938 57.0736 245.386 57.4363C245.834 57.7883 246.058 58.2789 246.058 58.9083C246.058 59.4629 245.882 59.9376 245.53 60.3323C245.178 60.7376 244.698 61.0469 244.09 61.2603C243.493 61.4736 242.805 61.5803 242.026 61.5803C240.714 61.5803 239.744 61.3776 239.114 60.9723C238.485 60.5669 238.17 60.0603 238.17 59.4523C238.17 59.0256 238.32 58.6523 238.618 58.3323C238.928 58.0123 239.445 57.8309 240.17 57.7883L240.074 58.0443C239.626 57.9483 239.264 57.7776 238.986 57.5323C238.72 57.2763 238.586 56.9189 238.586 56.4603C238.586 56.0016 238.762 55.6123 239.114 55.2923C239.466 54.9723 239.962 54.7856 240.602 54.7323L241.498 55.1643H241.306C240.816 55.2069 240.469 55.3189 240.266 55.5003C240.064 55.6816 239.962 55.8843 239.962 56.1083C239.962 56.3749 240.058 56.5723 240.25 56.7003C240.453 56.8283 240.736 56.8923 241.098 56.8923H243.498ZM242.026 60.3003C242.613 60.3003 243.093 60.2416 243.466 60.1243C243.85 60.0176 244.133 59.8736 244.314 59.6923C244.506 59.5216 244.602 59.3296 244.602 59.1163C244.602 58.8709 244.501 58.6736 244.298 58.5243C244.106 58.3749 243.754 58.3003 243.242 58.3003H240.666C240.368 58.3003 240.117 58.3749 239.914 58.5243C239.712 58.6843 239.61 58.8976 239.61 59.1643C239.61 59.5163 239.824 59.7936 240.25 59.9963C240.677 60.1989 241.269 60.3003 242.026 60.3003ZM241.962 49.9803C242.666 49.9803 243.274 50.0923 243.786 50.3163C244.309 50.5403 244.709 50.8549 244.986 51.2603C245.274 51.6656 245.418 52.1403 245.418 52.6843C245.418 53.2283 245.274 53.7029 244.986 54.1083C244.709 54.5136 244.309 54.8283 243.786 55.0523C243.274 55.2763 242.666 55.3883 241.962 55.3883C240.853 55.3883 240 55.1429 239.402 54.6523C238.816 54.1509 238.522 53.4949 238.522 52.6843C238.522 52.1403 238.666 51.6656 238.954 51.2603C239.242 50.8549 239.642 50.5403 240.154 50.3163C240.677 50.0923 241.28 49.9803 241.962 49.9803ZM241.962 51.1803C241.472 51.1803 241.061 51.3189 240.73 51.5963C240.41 51.8629 240.25 52.2256 240.25 52.6843C240.25 53.1429 240.41 53.5109 240.73 53.7883C241.061 54.0656 241.472 54.2043 241.962 54.2043C242.464 54.2043 242.874 54.0656 243.194 53.7883C243.525 53.5109 243.69 53.1429 243.69 52.6843C243.69 52.2256 243.525 51.8629 243.194 51.5963C242.874 51.3189 242.464 51.1803 241.962 51.1803ZM252.251 53.0043C252.251 52.4709 252.101 52.0603 251.803 51.7723C251.515 51.4736 251.115 51.3243 250.603 51.3243C250.123 51.3243 249.712 51.4363 249.371 51.6603C249.029 51.8843 248.779 52.2469 248.619 52.7483L247.179 52.1403C247.381 51.4896 247.776 50.9669 248.363 50.5723C248.96 50.1776 249.728 49.9803 250.667 49.9803C251.307 49.9803 251.872 50.0869 252.363 50.3003C252.853 50.5029 253.237 50.8123 253.515 51.2283C253.803 51.6443 253.947 52.1776 253.947 52.8283V56.3963C253.947 56.7909 254.144 56.9883 254.539 56.9883C254.731 56.9883 254.917 56.9616 255.099 56.9083L255.003 58.0923C254.757 58.2096 254.448 58.2683 254.075 58.2683C253.733 58.2683 253.424 58.2096 253.147 58.0923C252.88 57.9643 252.667 57.7776 252.507 57.5323C252.357 57.2763 252.283 56.9616 252.283 56.5883V56.4763L252.635 56.4603C252.539 56.8763 252.341 57.2229 252.043 57.5003C251.744 57.7669 251.397 57.9696 251.003 58.1083C250.608 58.2363 250.208 58.3003 249.803 58.3003C249.301 58.3003 248.848 58.2203 248.443 58.0603C248.048 57.9003 247.733 57.6603 247.499 57.3403C247.275 57.0096 247.163 56.6043 247.163 56.1243C247.163 55.5269 247.355 55.0363 247.739 54.6523C248.133 54.2683 248.688 54.0069 249.403 53.8683L252.507 53.2603L252.491 54.4603L250.235 54.9243C249.787 55.0096 249.451 55.1323 249.227 55.2923C249.003 55.4523 248.891 55.6869 248.891 55.9963C248.891 56.2949 249.003 56.5349 249.227 56.7163C249.461 56.8869 249.771 56.9723 250.155 56.9723C250.421 56.9723 250.677 56.9403 250.923 56.8763C251.179 56.8123 251.408 56.7109 251.611 56.5723C251.813 56.4229 251.968 56.2363 252.075 56.0123C252.192 55.7776 252.251 55.5003 252.251 55.1803V53.0043ZM258.775 47.7883V55.7403C258.775 56.1349 258.877 56.4229 259.079 56.6043C259.293 56.7856 259.575 56.8763 259.927 56.8763C260.215 56.8763 260.466 56.8336 260.679 56.7483C260.893 56.6523 261.09 56.5243 261.271 56.3643L261.655 57.6123C261.41 57.8256 261.106 57.9963 260.743 58.1243C260.391 58.2416 259.997 58.3003 259.559 58.3003C259.101 58.3003 258.679 58.2256 258.295 58.0763C257.911 57.9269 257.613 57.6869 257.399 57.3563C257.186 57.0149 257.074 56.5723 257.063 56.0283V48.2683L258.775 47.7883ZM261.527 50.1403V51.4843H255.527V50.1403H261.527ZM264.085 48.7963C263.711 48.7963 263.423 48.7056 263.221 48.5243C263.029 48.3323 262.933 48.0656 262.933 47.7243C262.933 47.3829 263.029 47.1216 263.221 46.9403C263.423 46.7589 263.711 46.6683 264.085 46.6683C264.447 46.6683 264.725 46.7589 264.917 46.9403C265.119 47.1216 265.221 47.3829 265.221 47.7243C265.221 48.0656 265.119 48.3323 264.917 48.5243C264.725 48.7056 264.447 48.7963 264.085 48.7963ZM264.933 50.1403V58.1403H263.221V50.1403H264.933ZM271.083 49.9803C271.862 49.9803 272.55 50.1456 273.147 50.4763C273.745 50.8069 274.209 51.2869 274.539 51.9163C274.881 52.5349 275.051 53.2763 275.051 54.1403C275.051 55.0043 274.881 55.7509 274.539 56.3803C274.209 56.9989 273.745 57.4736 273.147 57.8043C272.55 58.1349 271.862 58.3003 271.083 58.3003C270.305 58.3003 269.617 58.1349 269.019 57.8043C268.422 57.4736 267.953 56.9989 267.611 56.3803C267.27 55.7509 267.099 55.0043 267.099 54.1403C267.099 53.2763 267.27 52.5349 267.611 51.9163C267.953 51.2869 268.422 50.8069 269.019 50.4763C269.617 50.1456 270.305 49.9803 271.083 49.9803ZM271.083 51.3243C270.603 51.3243 270.193 51.4363 269.851 51.6603C269.521 51.8736 269.265 52.1883 269.083 52.6043C268.902 53.0203 268.811 53.5323 268.811 54.1403C268.811 54.7376 268.902 55.2496 269.083 55.6763C269.265 56.0923 269.521 56.4123 269.851 56.6363C270.193 56.8496 270.603 56.9563 271.083 56.9563C271.563 56.9563 271.969 56.8496 272.299 56.6363C272.63 56.4123 272.886 56.0923 273.067 55.6763C273.249 55.2496 273.339 54.7376 273.339 54.1403C273.339 53.5323 273.249 53.0203 273.067 52.6043C272.886 52.1883 272.63 51.8736 272.299 51.6603C271.969 51.4363 271.563 51.3243 271.083 51.3243ZM277.205 58.1403V50.1403H278.725L278.837 52.2203L278.613 51.9963C278.762 51.5376 278.976 51.1589 279.253 50.8603C279.541 50.5509 279.877 50.3269 280.261 50.1883C280.656 50.0496 281.072 49.9803 281.509 49.9803C282.074 49.9803 282.581 50.0923 283.029 50.3163C283.488 50.5296 283.85 50.8549 284.117 51.2923C284.384 51.7296 284.517 52.2843 284.517 52.9563V58.1403H282.805V53.4843C282.805 52.6949 282.64 52.1509 282.309 51.8523C281.989 51.5429 281.584 51.3883 281.093 51.3883C280.741 51.3883 280.4 51.4736 280.069 51.6443C279.738 51.8043 279.461 52.0656 279.237 52.4283C279.024 52.7909 278.917 53.2763 278.917 53.8843V58.1403H277.205ZM290.151 58.3003C289.351 58.3003 288.621 58.1456 287.959 57.8363C287.298 57.5269 286.775 57.0896 286.391 56.5243L287.575 55.5003C287.81 55.9376 288.146 56.2896 288.583 56.5563C289.031 56.8123 289.565 56.9403 290.183 56.9403C290.674 56.9403 291.063 56.8549 291.351 56.6843C291.639 56.5136 291.783 56.2736 291.783 55.9643C291.783 55.7616 291.714 55.5856 291.575 55.4363C291.447 55.2763 291.197 55.1536 290.823 55.0683L289.143 54.7163C288.29 54.5456 287.682 54.2736 287.319 53.9003C286.957 53.5163 286.775 53.0309 286.775 52.4443C286.775 52.0069 286.903 51.6016 287.159 51.2283C287.415 50.8549 287.789 50.5563 288.279 50.3323C288.781 50.0976 289.378 49.9803 290.071 49.9803C290.871 49.9803 291.554 50.1243 292.119 50.4123C292.685 50.6896 293.117 51.0896 293.415 51.6123L292.231 52.6043C292.029 52.1776 291.73 51.8629 291.335 51.6603C290.941 51.4469 290.53 51.3403 290.103 51.3403C289.762 51.3403 289.469 51.3829 289.223 51.4683C288.978 51.5536 288.791 51.6709 288.663 51.8203C288.535 51.9696 288.471 52.1456 288.471 52.3483C288.471 52.5616 288.551 52.7483 288.711 52.9083C288.871 53.0683 289.159 53.1909 289.575 53.2763L291.399 53.6603C292.167 53.8096 292.706 54.0656 293.015 54.4283C293.335 54.7803 293.495 55.2123 293.495 55.7243C293.495 56.2363 293.362 56.6896 293.095 57.0843C292.829 57.4683 292.445 57.7669 291.943 57.9803C291.442 58.1936 290.845 58.3003 290.151 58.3003Z" fill="#101828"/>
<path d="M229.204 79.9597L220.979 73.303L230.604 76.641L240.228 73.303L232.004 79.9596C231.188 80.6204 230.021 80.6204 229.204 79.9597Z" fill="white"/>
</g>
<g filter="url(#filter2_bd_228_46845)">
<rect x="35.3926" y="118.685" width="134.919" height="48" rx="10.4902" fill="white"/>
<g clip-path="url(#clip2_228_46845)">
<rect x="52.6152" y="134.904" width="17.061" height="11.6365" fill="#C6D0FE"/>
<path d="M74.9024 137.007L70.8888 137.007V146.54H78.9843L78.9844 141.267L74.9024 137.007Z" fill="#C6D0FE"/>
<circle cx="58.0119" cy="147.406" r="2.95335" fill="#1A4CFF"/>
<circle cx="75.0451" cy="146.648" r="2.95335" fill="#1A4CFF"/>
</g>
<path d="M90.239 146.713H96.063V148.185H88.527V137.625H90.239V146.713ZM101.15 140.025C101.928 140.025 102.616 140.191 103.214 140.521C103.811 140.852 104.275 141.332 104.606 141.961C104.947 142.58 105.118 143.321 105.118 144.185C105.118 145.049 104.947 145.796 104.606 146.425C104.275 147.044 103.811 147.519 103.214 147.849C102.616 148.18 101.928 148.345 101.15 148.345C100.371 148.345 99.6829 148.18 99.0856 147.849C98.4883 147.519 98.0189 147.044 97.6776 146.425C97.3363 145.796 97.1656 145.049 97.1656 144.185C97.1656 143.321 97.3363 142.58 97.6776 141.961C98.0189 141.332 98.4883 140.852 99.0856 140.521C99.6829 140.191 100.371 140.025 101.15 140.025ZM101.15 141.369C100.67 141.369 100.259 141.481 99.9176 141.705C99.5869 141.919 99.3309 142.233 99.1496 142.649C98.9683 143.065 98.8776 143.577 98.8776 144.185C98.8776 144.783 98.9683 145.295 99.1496 145.721C99.3309 146.137 99.5869 146.457 99.9176 146.681C100.259 146.895 100.67 147.001 101.15 147.001C101.63 147.001 102.035 146.895 102.366 146.681C102.696 146.457 102.952 146.137 103.134 145.721C103.315 145.295 103.406 144.783 103.406 144.185C103.406 143.577 103.315 143.065 103.134 142.649C102.952 142.233 102.696 141.919 102.366 141.705C102.035 141.481 101.63 141.369 101.15 141.369ZM114.28 138.505L114.552 139.849C114.52 139.849 114.488 139.849 114.456 139.849C114.424 139.839 114.392 139.833 114.36 139.833C113.848 139.833 113.459 139.945 113.192 140.169C112.925 140.383 112.792 140.697 112.792 141.113L111.96 140.729C111.96 140.303 112.051 139.924 112.232 139.593C112.413 139.252 112.669 138.985 113 138.793C113.341 138.601 113.725 138.505 114.152 138.505C114.173 138.505 114.195 138.505 114.216 138.505C114.237 138.505 114.259 138.505 114.28 138.505ZM111.752 146.937C112.563 146.937 113.192 147.119 113.64 147.481C114.088 147.833 114.312 148.324 114.312 148.953C114.312 149.508 114.136 149.983 113.784 150.377C113.432 150.783 112.952 151.092 112.344 151.305C111.747 151.519 111.059 151.625 110.28 151.625C108.968 151.625 107.997 151.423 107.368 151.017C106.739 150.612 106.424 150.105 106.424 149.497C106.424 149.071 106.573 148.697 106.872 148.377C107.181 148.057 107.699 147.876 108.424 147.833L108.328 148.089C107.88 147.993 107.517 147.823 107.24 147.577C106.973 147.321 106.84 146.964 106.84 146.505C106.84 146.047 107.016 145.657 107.368 145.337C107.72 145.017 108.216 144.831 108.856 144.777L109.752 145.209H109.56C109.069 145.252 108.723 145.364 108.52 145.545C108.317 145.727 108.216 145.929 108.216 146.153C108.216 146.42 108.312 146.617 108.504 146.745C108.707 146.873 108.989 146.937 109.352 146.937H111.752ZM110.28 150.345C110.867 150.345 111.347 150.287 111.72 150.169C112.104 150.063 112.387 149.919 112.568 149.737C112.76 149.567 112.856 149.375 112.856 149.161C112.856 148.916 112.755 148.719 112.552 148.569C112.36 148.42 112.008 148.345 111.496 148.345H108.92C108.621 148.345 108.371 148.42 108.168 148.569C107.965 148.729 107.864 148.943 107.864 149.209C107.864 149.561 108.077 149.839 108.504 150.041C108.931 150.244 109.523 150.345 110.28 150.345ZM110.216 140.025C110.92 140.025 111.528 140.137 112.04 140.361C112.563 140.585 112.963 140.9 113.24 141.305C113.528 141.711 113.672 142.185 113.672 142.729C113.672 143.273 113.528 143.748 113.24 144.153C112.963 144.559 112.563 144.873 112.04 145.097C111.528 145.321 110.92 145.433 110.216 145.433C109.107 145.433 108.253 145.188 107.656 144.697C107.069 144.196 106.776 143.54 106.776 142.729C106.776 142.185 106.92 141.711 107.208 141.305C107.496 140.9 107.896 140.585 108.408 140.361C108.931 140.137 109.533 140.025 110.216 140.025ZM110.216 141.225C109.725 141.225 109.315 141.364 108.984 141.641C108.664 141.908 108.504 142.271 108.504 142.729C108.504 143.188 108.664 143.556 108.984 143.833C109.315 144.111 109.725 144.249 110.216 144.249C110.717 144.249 111.128 144.111 111.448 143.833C111.779 143.556 111.944 143.188 111.944 142.729C111.944 142.271 111.779 141.908 111.448 141.641C111.128 141.364 110.717 141.225 110.216 141.225ZM116.745 138.841C116.371 138.841 116.083 138.751 115.881 138.569C115.689 138.377 115.593 138.111 115.593 137.769C115.593 137.428 115.689 137.167 115.881 136.985C116.083 136.804 116.371 136.713 116.745 136.713C117.107 136.713 117.385 136.804 117.577 136.985C117.779 137.167 117.881 137.428 117.881 137.769C117.881 138.111 117.779 138.377 117.577 138.569C117.385 138.751 117.107 138.841 116.745 138.841ZM117.593 140.185V148.185H115.881V140.185H117.593ZM123.311 148.345C122.511 148.345 121.781 148.191 121.119 147.881C120.458 147.572 119.935 147.135 119.551 146.569L120.735 145.545C120.97 145.983 121.306 146.335 121.743 146.601C122.191 146.857 122.725 146.985 123.343 146.985C123.834 146.985 124.223 146.9 124.511 146.729C124.799 146.559 124.943 146.319 124.943 146.009C124.943 145.807 124.874 145.631 124.735 145.481C124.607 145.321 124.357 145.199 123.983 145.113L122.303 144.761C121.45 144.591 120.842 144.319 120.479 143.945C120.117 143.561 119.935 143.076 119.935 142.489C119.935 142.052 120.063 141.647 120.319 141.273C120.575 140.9 120.949 140.601 121.439 140.377C121.941 140.143 122.538 140.025 123.231 140.025C124.031 140.025 124.714 140.169 125.279 140.457C125.845 140.735 126.277 141.135 126.575 141.657L125.391 142.649C125.189 142.223 124.89 141.908 124.495 141.705C124.101 141.492 123.69 141.385 123.263 141.385C122.922 141.385 122.629 141.428 122.383 141.513C122.138 141.599 121.951 141.716 121.823 141.865C121.695 142.015 121.631 142.191 121.631 142.393C121.631 142.607 121.711 142.793 121.871 142.953C122.031 143.113 122.319 143.236 122.735 143.321L124.559 143.705C125.327 143.855 125.866 144.111 126.175 144.473C126.495 144.825 126.655 145.257 126.655 145.769C126.655 146.281 126.522 146.735 126.255 147.129C125.989 147.513 125.605 147.812 125.103 148.025C124.602 148.239 124.005 148.345 123.311 148.345ZM131.076 137.833V145.785C131.076 146.18 131.177 146.468 131.38 146.649C131.593 146.831 131.876 146.921 132.228 146.921C132.516 146.921 132.767 146.879 132.98 146.793C133.193 146.697 133.391 146.569 133.572 146.409L133.956 147.657C133.711 147.871 133.407 148.041 133.044 148.169C132.692 148.287 132.297 148.345 131.86 148.345C131.401 148.345 130.98 148.271 130.596 148.121C130.212 147.972 129.913 147.732 129.7 147.401C129.487 147.06 129.375 146.617 129.364 146.073V138.313L131.076 137.833ZM133.828 140.185V141.529H127.828V140.185H133.828ZM136.385 138.841C136.012 138.841 135.724 138.751 135.521 138.569C135.329 138.377 135.233 138.111 135.233 137.769C135.233 137.428 135.329 137.167 135.521 136.985C135.724 136.804 136.012 136.713 136.385 136.713C136.748 136.713 137.025 136.804 137.217 136.985C137.42 137.167 137.521 137.428 137.521 137.769C137.521 138.111 137.42 138.377 137.217 138.569C137.025 138.751 136.748 138.841 136.385 138.841ZM137.233 140.185V148.185H135.521V140.185H137.233ZM143.368 140.025C144.008 140.025 144.552 140.121 145 140.313C145.459 140.495 145.843 140.756 146.152 141.097C146.461 141.439 146.696 141.828 146.856 142.265L145.24 142.905C145.101 142.415 144.877 142.041 144.568 141.785C144.269 141.519 143.875 141.385 143.384 141.385C142.904 141.385 142.493 141.497 142.152 141.721C141.811 141.935 141.549 142.249 141.368 142.665C141.197 143.081 141.112 143.593 141.112 144.201C141.112 144.799 141.203 145.305 141.384 145.721C141.565 146.137 141.827 146.452 142.168 146.665C142.509 146.879 142.915 146.985 143.384 146.985C143.747 146.985 144.061 146.927 144.328 146.809C144.595 146.681 144.813 146.505 144.984 146.281C145.165 146.047 145.288 145.764 145.352 145.433L146.904 145.961C146.755 146.441 146.52 146.863 146.2 147.225C145.891 147.577 145.501 147.855 145.032 148.057C144.563 148.249 144.024 148.345 143.416 148.345C142.627 148.345 141.928 148.18 141.32 147.849C140.712 147.519 140.237 147.044 139.896 146.425C139.565 145.796 139.4 145.049 139.4 144.185C139.4 143.321 139.565 142.58 139.896 141.961C140.237 141.332 140.707 140.852 141.304 140.521C141.912 140.191 142.6 140.025 143.368 140.025ZM151.936 148.345C151.136 148.345 150.406 148.191 149.744 147.881C149.083 147.572 148.56 147.135 148.176 146.569L149.36 145.545C149.595 145.983 149.931 146.335 150.368 146.601C150.816 146.857 151.35 146.985 151.968 146.985C152.459 146.985 152.848 146.9 153.136 146.729C153.424 146.559 153.568 146.319 153.568 146.009C153.568 145.807 153.499 145.631 153.36 145.481C153.232 145.321 152.982 145.199 152.608 145.113L150.928 144.761C150.075 144.591 149.467 144.319 149.104 143.945C148.742 143.561 148.56 143.076 148.56 142.489C148.56 142.052 148.688 141.647 148.944 141.273C149.2 140.9 149.574 140.601 150.064 140.377C150.566 140.143 151.163 140.025 151.856 140.025C152.656 140.025 153.339 140.169 153.904 140.457C154.47 140.735 154.902 141.135 155.2 141.657L154.016 142.649C153.814 142.223 153.515 141.908 153.12 141.705C152.726 141.492 152.315 141.385 151.888 141.385C151.547 141.385 151.254 141.428 151.008 141.513C150.763 141.599 150.576 141.716 150.448 141.865C150.32 142.015 150.256 142.191 150.256 142.393C150.256 142.607 150.336 142.793 150.496 142.953C150.656 143.113 150.944 143.236 151.36 143.321L153.184 143.705C153.952 143.855 154.491 144.111 154.8 144.473C155.12 144.825 155.28 145.257 155.28 145.769C155.28 146.281 155.147 146.735 154.88 147.129C154.614 147.513 154.23 147.812 153.728 148.025C153.227 148.239 152.63 148.345 151.936 148.345Z" fill="#101828"/>
<path d="M101.458 170.005L93.2324 163.348L102.857 166.686L112.482 163.348L104.258 170.004C103.442 170.665 102.274 170.665 101.458 170.005Z" fill="white"/>
</g>
<g filter="url(#filter3_bd_228_46845)">
<rect x="153.764" y="174.947" width="147.183" height="66" rx="10.4902" fill="white"/>
<path fill-rule="evenodd" clip-rule="evenodd" d="M176.971 215.669C182.414 215.669 186.826 211.256 186.826 205.813C186.826 200.37 176.971 192.166 176.971 192.166C176.971 192.166 167.115 200.37 167.115 205.813C167.115 211.256 171.528 215.669 176.971 215.669ZM176.971 209.534C179.015 209.534 180.673 207.877 180.673 205.832C180.673 203.788 179.015 202.131 176.971 202.131C174.926 202.131 173.269 203.788 173.269 205.832C173.269 207.877 174.926 209.534 176.971 209.534Z" fill="#1A4CFF"/>
<rect x="169.232" y="218.273" width="15.4747" height="5.45464" fill="#1A4CFF"/>
<path d="M195.739 213.902H205.285V216.947H191.953V198.841H195.739V213.902ZM214.058 202.956C215.448 202.956 216.664 203.24 217.707 203.807C218.768 204.374 219.591 205.187 220.176 206.248C220.779 207.309 221.081 208.589 221.081 210.089C221.081 211.57 220.779 212.85 220.176 213.929C219.591 214.99 218.768 215.804 217.707 216.371C216.664 216.938 215.448 217.221 214.058 217.221C212.687 217.221 211.47 216.938 210.41 216.371C209.349 215.804 208.517 214.99 207.913 213.929C207.328 212.85 207.035 211.57 207.035 210.089C207.035 208.589 207.328 207.309 207.913 206.248C208.517 205.187 209.349 204.374 210.41 203.807C211.47 203.24 212.687 202.956 214.058 202.956ZM214.058 205.754C213.363 205.754 212.769 205.919 212.275 206.248C211.8 206.559 211.434 207.035 211.178 207.675C210.922 208.315 210.794 209.119 210.794 210.089C210.794 211.058 210.922 211.863 211.178 212.503C211.434 213.143 211.8 213.628 212.275 213.957C212.769 214.268 213.363 214.423 214.058 214.423C214.735 214.423 215.311 214.268 215.787 213.957C216.28 213.628 216.655 213.143 216.911 212.503C217.167 211.863 217.295 211.058 217.295 210.089C217.295 209.119 217.167 208.315 216.911 207.675C216.655 207.035 216.28 206.559 215.787 206.248C215.311 205.919 214.735 205.754 214.058 205.754ZM230.453 202.956C231.678 202.956 232.712 203.139 233.553 203.505C234.413 203.852 235.098 204.337 235.61 204.959C236.141 205.562 236.516 206.239 236.735 206.989L233.224 208.251C233.041 207.428 232.73 206.806 232.291 206.385C231.852 205.965 231.258 205.754 230.508 205.754C229.813 205.754 229.219 205.919 228.725 206.248C228.231 206.559 227.856 207.044 227.6 207.702C227.344 208.342 227.216 209.147 227.216 210.116C227.216 211.085 227.344 211.89 227.6 212.53C227.874 213.17 228.258 213.646 228.752 213.957C229.264 214.268 229.859 214.423 230.535 214.423C231.084 214.423 231.55 214.332 231.934 214.149C232.318 213.948 232.629 213.664 232.867 213.298C233.123 212.933 233.297 212.494 233.388 211.982L236.79 213.079C236.589 213.902 236.214 214.624 235.665 215.246C235.117 215.868 234.413 216.353 233.553 216.7C232.693 217.047 231.697 217.221 230.563 217.221C229.155 217.221 227.911 216.938 226.832 216.371C225.753 215.804 224.921 214.99 224.336 213.929C223.75 212.869 223.458 211.588 223.458 210.089C223.458 208.589 223.75 207.309 224.336 206.248C224.921 205.187 225.744 204.374 226.804 203.807C227.865 203.24 229.081 202.956 230.453 202.956ZM245.965 202.956C247.355 202.956 248.571 203.24 249.614 203.807C250.674 204.374 251.497 205.187 252.083 206.248C252.686 207.309 252.988 208.589 252.988 210.089C252.988 211.57 252.686 212.85 252.083 213.929C251.497 214.99 250.674 215.804 249.614 216.371C248.571 216.938 247.355 217.221 245.965 217.221C244.593 217.221 243.377 216.938 242.316 216.371C241.256 215.804 240.424 214.99 239.82 213.929C239.235 212.85 238.942 211.57 238.942 210.089C238.942 208.589 239.235 207.309 239.82 206.248C240.424 205.187 241.256 204.374 242.316 203.807C243.377 203.24 244.593 202.956 245.965 202.956ZM245.965 205.754C245.27 205.754 244.676 205.919 244.182 206.248C243.706 206.559 243.341 207.035 243.085 207.675C242.829 208.315 242.701 209.119 242.701 210.089C242.701 211.058 242.829 211.863 243.085 212.503C243.341 213.143 243.706 213.628 244.182 213.957C244.676 214.268 245.27 214.423 245.965 214.423C246.642 214.423 247.218 214.268 247.693 213.957C248.187 213.628 248.562 213.143 248.818 212.503C249.074 211.863 249.202 211.058 249.202 210.089C249.202 209.119 249.074 208.315 248.818 207.675C248.562 207.035 248.187 206.559 247.693 206.248C247.218 205.919 246.642 205.754 245.965 205.754ZM261.317 217.221C260.183 217.221 259.168 216.938 258.272 216.371C257.394 215.804 256.699 214.99 256.187 213.929C255.694 212.869 255.447 211.597 255.447 210.116C255.447 208.598 255.712 207.309 256.242 206.248C256.773 205.169 257.486 204.355 258.382 203.807C259.296 203.24 260.321 202.956 261.454 202.956C262.662 202.956 263.658 203.304 264.445 203.999C265.231 204.694 265.743 205.59 265.981 206.687L265.624 207.126V197.223H269.383V216.947H266.008L265.761 212.777L266.228 212.997C266.1 213.856 265.807 214.606 265.35 215.246C264.893 215.868 264.317 216.353 263.622 216.7C262.927 217.047 262.159 217.221 261.317 217.221ZM262.415 214.341C263.073 214.341 263.64 214.176 264.115 213.847C264.591 213.5 264.957 212.997 265.213 212.338C265.487 211.68 265.624 210.893 265.624 209.979C265.624 209.101 265.496 208.36 265.24 207.757C264.984 207.135 264.618 206.66 264.143 206.33C263.667 206.001 263.11 205.837 262.47 205.837C261.445 205.837 260.641 206.202 260.055 206.934C259.488 207.647 259.205 208.699 259.205 210.089C259.205 211.479 259.488 212.539 260.055 213.271C260.622 213.984 261.409 214.341 262.415 214.341ZM279.696 217.221C278.251 217.221 276.989 216.938 275.91 216.371C274.85 215.804 274.027 214.99 273.441 213.929C272.856 212.869 272.563 211.588 272.563 210.089C272.563 208.589 272.856 207.309 273.441 206.248C274.027 205.187 274.84 204.374 275.883 203.807C276.944 203.24 278.151 202.956 279.504 202.956C280.894 202.956 282.074 203.24 283.043 203.807C284.012 204.355 284.753 205.114 285.265 206.083C285.777 207.035 286.033 208.123 286.033 209.348C286.033 209.714 286.024 210.061 286.006 210.39C285.987 210.72 285.96 211.012 285.923 211.268H274.978V208.662H284.277L282.467 209.321C282.467 208.168 282.202 207.281 281.671 206.66C281.159 206.038 280.428 205.727 279.477 205.727C278.782 205.727 278.178 205.891 277.666 206.221C277.172 206.55 276.797 207.044 276.541 207.702C276.285 208.342 276.157 209.156 276.157 210.144C276.157 211.113 276.294 211.918 276.569 212.558C276.861 213.179 277.264 213.646 277.776 213.957C278.306 214.268 278.937 214.423 279.669 214.423C280.473 214.423 281.123 214.268 281.616 213.957C282.11 213.646 282.494 213.216 282.769 212.667L285.759 213.82C285.466 214.533 285.018 215.145 284.414 215.658C283.829 216.17 283.125 216.563 282.302 216.837C281.497 217.093 280.629 217.221 279.696 217.221Z" fill="#111019"/>
</g>
<g filter="url(#filter4_bd_228_46845)">
<rect x="33.8652" y="272.568" width="130.919" height="48" rx="10.4902" fill="white"/>
<g clip-path="url(#clip3_228_46845)">
<rect width="15.1033" height="10.2529" transform="matrix(0 -1 -1 0 74.0293 304.474)" fill="#C6D0FE"/>
<path d="M77.9181 294.547L74.0281 289.263H63.7752L67.6652 294.547H77.9181Z" fill="#1A4CFF"/>
<rect x="52.4043" y="304.474" width="15.1033" height="10.2529" transform="rotate(-90 52.4043 304.474)" fill="#C6D0FE"/>
<path d="M48.5155 294.547L52.4055 289.263H62.6584L58.7684 294.547H48.5155Z" fill="#1A4CFF"/>
</g>
<path d="M90.5996 291.348C91.549 291.348 92.3703 291.529 93.0636 291.892C93.757 292.244 94.3436 292.767 94.8236 293.46L93.6716 294.564C93.2663 293.945 92.8076 293.503 92.2956 293.236C91.7943 292.959 91.197 292.82 90.5036 292.82C89.9916 292.82 89.5703 292.889 89.2396 293.028C88.909 293.167 88.6636 293.353 88.5036 293.588C88.3543 293.812 88.2796 294.068 88.2796 294.356C88.2796 294.687 88.3916 294.975 88.6156 295.22C88.8503 295.465 89.2823 295.657 89.9116 295.796L92.0556 296.276C93.0796 296.5 93.805 296.841 94.2316 297.3C94.6583 297.759 94.8716 298.34 94.8716 299.044C94.8716 299.695 94.6956 300.26 94.3436 300.74C93.9916 301.22 93.501 301.588 92.8716 301.844C92.253 302.1 91.5223 302.228 90.6796 302.228C89.933 302.228 89.261 302.132 88.6636 301.94C88.0663 301.748 87.5436 301.487 87.0956 301.156C86.6476 300.825 86.2796 300.447 85.9916 300.02L87.1756 298.836C87.3996 299.209 87.6823 299.545 88.0236 299.844C88.365 300.132 88.7596 300.356 89.2076 300.516C89.6663 300.676 90.173 300.756 90.7276 300.756C91.2183 300.756 91.6396 300.697 91.9916 300.58C92.3543 300.463 92.6263 300.292 92.8076 300.068C92.9996 299.833 93.0956 299.556 93.0956 299.236C93.0956 298.927 92.989 298.655 92.7756 298.42C92.573 298.185 92.189 298.004 91.6236 297.876L89.3036 297.348C88.6636 297.209 88.1356 297.012 87.7196 296.756C87.3036 296.5 86.9943 296.191 86.7916 295.828C86.589 295.455 86.4876 295.039 86.4876 294.58C86.4876 293.983 86.6476 293.444 86.9676 292.964C87.2983 292.473 87.773 292.084 88.3916 291.796C89.0103 291.497 89.7463 291.348 90.5996 291.348ZM100.545 302.228C99.7453 302.228 99.0413 302.063 98.4333 301.732C97.8253 301.401 97.3506 300.927 97.0093 300.308C96.6786 299.679 96.5133 298.932 96.5133 298.068C96.5133 297.204 96.6786 296.463 97.0093 295.844C97.3506 295.215 97.8199 294.735 98.4173 294.404C99.0146 294.073 99.6919 293.908 100.449 293.908C101.228 293.908 101.889 294.068 102.433 294.388C102.977 294.708 103.393 295.145 103.681 295.7C103.969 296.255 104.113 296.884 104.113 297.588C104.113 297.78 104.108 297.961 104.097 298.132C104.087 298.303 104.071 298.452 104.049 298.58H97.6173V297.268H103.297L102.449 297.524C102.449 296.799 102.268 296.244 101.905 295.86C101.543 295.465 101.047 295.268 100.417 295.268C99.9586 295.268 99.5586 295.375 99.2173 295.588C98.8759 295.801 98.6146 296.121 98.4333 296.548C98.2519 296.964 98.1613 297.476 98.1613 298.084C98.1613 298.681 98.2573 299.188 98.4493 299.604C98.6413 300.02 98.9133 300.335 99.2653 300.548C99.6173 300.761 100.033 300.868 100.513 300.868C101.047 300.868 101.479 300.767 101.809 300.564C102.14 300.361 102.401 300.079 102.593 299.716L103.953 300.356C103.761 300.74 103.5 301.076 103.169 301.364C102.849 301.641 102.465 301.855 102.017 302.004C101.569 302.153 101.079 302.228 100.545 302.228ZM106.275 302.068V294.068H107.731L107.891 295.508C108.105 294.985 108.419 294.591 108.835 294.324C109.262 294.047 109.785 293.908 110.403 293.908C110.563 293.908 110.723 293.924 110.883 293.956C111.043 293.977 111.177 294.015 111.283 294.068L111.043 295.572C110.926 295.529 110.793 295.497 110.643 295.476C110.505 295.444 110.313 295.428 110.067 295.428C109.737 295.428 109.411 295.519 109.091 295.7C108.771 295.871 108.505 296.132 108.291 296.484C108.089 296.836 107.987 297.284 107.987 297.828V302.068H106.275ZM118.164 294.068H119.956L116.772 302.068H114.9L111.7 294.068H113.572L115.844 300.58L118.164 294.068ZM122.28 292.724C121.907 292.724 121.619 292.633 121.416 292.452C121.224 292.26 121.128 291.993 121.128 291.652C121.128 291.311 121.224 291.049 121.416 290.868C121.619 290.687 121.907 290.596 122.28 290.596C122.643 290.596 122.92 290.687 123.112 290.868C123.315 291.049 123.416 291.311 123.416 291.652C123.416 291.993 123.315 292.26 123.112 292.452C122.92 292.633 122.643 292.724 122.28 292.724ZM123.128 294.068V302.068H121.416V294.068H123.128ZM129.263 293.908C129.903 293.908 130.447 294.004 130.895 294.196C131.353 294.377 131.737 294.639 132.047 294.98C132.356 295.321 132.591 295.711 132.751 296.148L131.135 296.788C130.996 296.297 130.772 295.924 130.463 295.668C130.164 295.401 129.769 295.268 129.279 295.268C128.799 295.268 128.388 295.38 128.047 295.604C127.705 295.817 127.444 296.132 127.263 296.548C127.092 296.964 127.007 297.476 127.007 298.084C127.007 298.681 127.097 299.188 127.279 299.604C127.46 300.02 127.721 300.335 128.063 300.548C128.404 300.761 128.809 300.868 129.279 300.868C129.641 300.868 129.956 300.809 130.223 300.692C130.489 300.564 130.708 300.388 130.879 300.164C131.06 299.929 131.183 299.647 131.247 299.316L132.799 299.844C132.649 300.324 132.415 300.745 132.095 301.108C131.785 301.46 131.396 301.737 130.927 301.94C130.457 302.132 129.919 302.228 129.311 302.228C128.521 302.228 127.823 302.063 127.215 301.732C126.607 301.401 126.132 300.927 125.791 300.308C125.46 299.679 125.295 298.932 125.295 298.068C125.295 297.204 125.46 296.463 125.791 295.844C126.132 295.215 126.601 294.735 127.199 294.404C127.807 294.073 128.495 293.908 129.263 293.908ZM138.311 302.228C137.511 302.228 136.807 302.063 136.199 301.732C135.591 301.401 135.116 300.927 134.775 300.308C134.444 299.679 134.279 298.932 134.279 298.068C134.279 297.204 134.444 296.463 134.775 295.844C135.116 295.215 135.586 294.735 136.183 294.404C136.78 294.073 137.458 293.908 138.215 293.908C138.994 293.908 139.655 294.068 140.199 294.388C140.743 294.708 141.159 295.145 141.447 295.7C141.735 296.255 141.879 296.884 141.879 297.588C141.879 297.78 141.874 297.961 141.863 298.132C141.852 298.303 141.836 298.452 141.815 298.58H135.383V297.268H141.063L140.215 297.524C140.215 296.799 140.034 296.244 139.671 295.86C139.308 295.465 138.812 295.268 138.183 295.268C137.724 295.268 137.324 295.375 136.983 295.588C136.642 295.801 136.38 296.121 136.199 296.548C136.018 296.964 135.927 297.476 135.927 298.084C135.927 298.681 136.023 299.188 136.215 299.604C136.407 300.02 136.679 300.335 137.031 300.548C137.383 300.761 137.799 300.868 138.279 300.868C138.812 300.868 139.244 300.767 139.575 300.564C139.906 300.361 140.167 300.079 140.359 299.716L141.719 300.356C141.527 300.74 141.266 301.076 140.935 301.364C140.615 301.641 140.231 301.855 139.783 302.004C139.335 302.153 138.844 302.228 138.311 302.228ZM147.081 302.228C146.281 302.228 145.55 302.073 144.889 301.764C144.228 301.455 143.705 301.017 143.321 300.452L144.505 299.428C144.74 299.865 145.076 300.217 145.513 300.484C145.961 300.74 146.494 300.868 147.113 300.868C147.604 300.868 147.993 300.783 148.281 300.612C148.569 300.441 148.713 300.201 148.713 299.892C148.713 299.689 148.644 299.513 148.505 299.364C148.377 299.204 148.126 299.081 147.753 298.996L146.073 298.644C145.22 298.473 144.612 298.201 144.249 297.828C143.886 297.444 143.705 296.959 143.705 296.372C143.705 295.935 143.833 295.529 144.089 295.156C144.345 294.783 144.718 294.484 145.209 294.26C145.71 294.025 146.308 293.908 147.001 293.908C147.801 293.908 148.484 294.052 149.049 294.34C149.614 294.617 150.046 295.017 150.345 295.54L149.161 296.532C148.958 296.105 148.66 295.791 148.265 295.588C147.87 295.375 147.46 295.268 147.033 295.268C146.692 295.268 146.398 295.311 146.153 295.396C145.908 295.481 145.721 295.599 145.593 295.748C145.465 295.897 145.401 296.073 145.401 296.276C145.401 296.489 145.481 296.676 145.641 296.836C145.801 296.996 146.089 297.119 146.505 297.204L148.329 297.588C149.097 297.737 149.636 297.993 149.945 298.356C150.265 298.708 150.425 299.14 150.425 299.652C150.425 300.164 150.292 300.617 150.025 301.012C149.758 301.396 149.374 301.695 148.873 301.908C148.372 302.121 147.774 302.228 147.081 302.228Z" fill="#101828"/>
<path d="M97.9307 323.887L89.7051 317.231L99.3301 320.569L108.954 317.231L100.731 323.887C99.9143 324.548 98.7471 324.548 97.9307 323.887Z" fill="white"/>
</g>
<g filter="url(#filter5_bd_228_46845)">
<rect x="267.002" y="287.068" width="134.919" height="48" rx="10.4902" fill="white"/>
<path d="M293.49 306.952H293.749C293.882 306.952 294.009 307.004 294.103 307.098C294.197 307.192 294.25 307.319 294.25 307.452C294.25 307.585 294.197 307.712 294.103 307.806C294.009 307.9 293.882 307.952 293.749 307.952H293.49V306.952Z" fill="#C6D0FE"/>
<path d="M290.984 306.952H290.725C290.592 306.952 290.465 307.004 290.371 307.098C290.277 307.192 290.225 307.319 290.225 307.452C290.225 307.585 290.277 307.712 290.371 307.806C290.465 307.9 290.592 307.952 290.725 307.952H290.984V306.952Z" fill="#C6D0FE"/>
<path d="M292.233 304.604H292.233C291.428 304.604 290.775 305.256 290.775 306.061V308.068C290.775 308.872 291.428 309.525 292.233 309.525H292.233C293.038 309.525 293.69 308.872 293.69 308.068V306.061C293.69 305.256 293.038 304.604 292.233 304.604Z" fill="#C6D0FE"/>
<path d="M293.564 306.952L293.49 306.081C293.49 306.046 293.482 306.011 293.465 305.98C293.448 305.95 293.423 305.924 293.393 305.905L293.39 305.902C293.346 305.866 293.31 305.821 293.284 305.771C293.258 305.721 293.242 305.666 293.238 305.61L293.226 305.439C293.22 305.347 293.183 305.259 293.121 305.191C293.023 305.089 292.897 305.017 292.759 304.983C292.413 304.899 292.053 304.899 291.707 304.983C291.569 305.017 291.443 305.089 291.344 305.191C291.282 305.259 291.246 305.347 291.24 305.439L291.227 305.615C291.223 305.67 291.209 305.724 291.184 305.773C291.159 305.822 291.124 305.866 291.082 305.902L291.079 305.905C291.05 305.924 291.026 305.95 291.009 305.98C290.993 306.011 290.984 306.045 290.984 306.079L290.911 306.952H290.672V306.022C290.672 305.817 290.712 305.614 290.791 305.425C290.869 305.236 290.984 305.064 291.129 304.919C291.274 304.774 291.446 304.659 291.635 304.58C291.825 304.502 292.028 304.462 292.233 304.462C292.437 304.462 292.64 304.502 292.83 304.58C293.019 304.659 293.191 304.774 293.336 304.919C293.481 305.064 293.596 305.236 293.674 305.425C293.753 305.614 293.793 305.817 293.793 306.022V306.952H293.564Z" fill="#1A4CFF"/>
<path d="M299.588 317.675C299.588 313.613 296.295 310.32 292.233 310.32C288.172 310.32 284.879 313.613 284.879 317.675" fill="#C6D0FE"/>
<path d="M299.588 317.675C299.588 313.613 296.295 310.32 292.233 310.32C288.172 310.32 284.879 313.613 284.879 317.675" stroke="#E8EDFF" stroke-width="0.596568" stroke-miterlimit="10"/>
<path d="M297.038 303.224C297.282 302.36 298.07 301.764 298.968 301.764H299.072C299.969 301.764 300.758 302.36 301.002 303.224L302.218 307.522C302.58 308.802 301.619 310.073 300.289 310.073H297.751C296.421 310.073 295.459 308.802 295.822 307.522L297.038 303.224Z" fill="#1A4CFF"/>
<path d="M300.648 304.99H300.984C301.156 304.99 301.321 305.058 301.442 305.179C301.564 305.301 301.632 305.466 301.632 305.638C301.632 305.809 301.564 305.974 301.442 306.096C301.321 306.217 301.156 306.286 300.984 306.286H300.648V304.99Z" fill="#C6D0FE"/>
<path d="M297.402 304.989H297.066C296.894 304.989 296.729 305.058 296.608 305.179C296.486 305.301 296.418 305.466 296.418 305.637C296.418 305.809 296.486 305.974 296.608 306.096C296.729 306.217 296.894 306.285 297.066 306.285H297.402V304.989Z" fill="#C6D0FE"/>
<path d="M299.02 301.948H299.02C297.978 301.948 297.133 302.793 297.133 303.836V306.434C297.133 307.476 297.978 308.321 299.02 308.321H299.02C300.062 308.321 300.907 307.476 300.907 306.434V303.836C300.907 302.793 300.062 301.948 299.02 301.948Z" fill="#C6D0FE"/>
<path d="M300.744 304.989L300.648 303.861C300.648 303.816 300.637 303.771 300.615 303.731C300.593 303.691 300.561 303.657 300.523 303.633L300.518 303.629C300.461 303.583 300.414 303.525 300.381 303.46C300.347 303.395 300.327 303.324 300.321 303.251L300.305 303.03C300.298 302.91 300.25 302.797 300.17 302.709C300.042 302.576 299.88 302.483 299.701 302.439C299.253 302.33 298.786 302.33 298.338 302.439C298.16 302.483 297.997 302.576 297.869 302.709C297.789 302.797 297.741 302.91 297.734 303.03L297.717 303.258C297.712 303.329 297.693 303.399 297.661 303.462C297.629 303.526 297.584 303.583 297.53 303.629L297.525 303.633C297.487 303.658 297.457 303.691 297.435 303.731C297.414 303.77 297.403 303.814 297.403 303.859L297.307 304.989H296.998V303.785C296.998 303.52 297.05 303.257 297.152 303.012C297.253 302.767 297.402 302.544 297.59 302.356C297.778 302.169 298 302.02 298.246 301.918C298.491 301.817 298.754 301.764 299.019 301.764C299.285 301.764 299.547 301.817 299.793 301.918C300.038 302.02 300.261 302.169 300.448 302.356C300.636 302.544 300.785 302.767 300.886 303.012C300.988 303.257 301.04 303.52 301.04 303.785V304.989H300.744Z" fill="#1A4CFF"/>
<path d="M308.543 318.875C308.543 313.615 304.278 309.351 299.018 309.351C293.759 309.351 289.494 313.615 289.494 318.875" fill="#C6D0FE"/>
<path d="M308.543 318.875C308.543 313.615 304.278 309.351 299.018 309.351C293.759 309.351 289.494 313.615 289.494 318.875" stroke="#E8EDFF" stroke-width="0.596568" stroke-miterlimit="10"/>
<path fill-rule="evenodd" clip-rule="evenodd" d="M300.951 303.067C300.922 303.082 300.89 303.09 300.855 303.091C300.733 303.091 300.637 303.194 300.645 303.316C300.654 303.461 300.518 303.572 300.377 303.533C300.26 303.501 300.14 303.574 300.114 303.693C300.084 303.835 299.923 303.906 299.798 303.83C299.694 303.768 299.558 303.806 299.502 303.914C299.434 304.042 299.26 304.066 299.16 303.961C299.077 303.872 298.936 303.872 298.852 303.961C298.752 304.066 298.578 304.042 298.511 303.914C298.454 303.806 298.318 303.768 298.214 303.83C298.09 303.906 297.928 303.835 297.898 303.693C297.873 303.574 297.752 303.501 297.635 303.533C297.495 303.572 297.358 303.461 297.367 303.316C297.375 303.194 297.279 303.091 297.157 303.091C297.132 303.09 297.108 303.086 297.086 303.078C297.374 302.294 298.122 301.765 298.968 301.765H299.073C299.914 301.765 300.66 302.29 300.951 303.067Z" fill="#1A4CFF"/>
<path d="M320.136 316.568V306.008H324.296C325.566 306.008 326.494 306.264 327.08 306.776C327.667 307.288 327.96 307.997 327.96 308.904C327.96 309.459 327.8 309.955 327.48 310.392C327.16 310.819 326.691 311.091 326.072 311.208V311.224C326.755 311.331 327.283 311.613 327.656 312.072C328.04 312.52 328.232 313.043 328.232 313.64C328.232 314.547 327.902 315.261 327.24 315.784C326.579 316.307 325.619 316.568 324.36 316.568H320.136ZM321.816 315.144H324.44C325.112 315.144 325.614 315.005 325.944 314.728C326.286 314.451 326.456 314.061 326.456 313.56C326.456 313.059 326.286 312.669 325.944 312.392C325.614 312.115 325.112 311.976 324.44 311.976H321.816V315.144ZM321.816 310.552H324.168C325.512 310.552 326.184 310.035 326.184 309C326.184 307.965 325.512 307.448 324.168 307.448H321.816V310.552ZM333.338 316.728C332.815 316.728 332.33 316.632 331.882 316.44C331.445 316.248 331.093 315.939 330.826 315.512C330.559 315.085 330.426 314.531 330.426 313.848V308.568H332.138V313.416C332.138 314.141 332.293 314.643 332.602 314.92C332.911 315.187 333.343 315.32 333.898 315.32C334.165 315.32 334.421 315.277 334.666 315.192C334.922 315.096 335.151 314.952 335.354 314.76C335.557 314.557 335.711 314.301 335.818 313.992C335.935 313.683 335.994 313.32 335.994 312.904V308.568H337.706V316.568H336.202L336.122 315.272C335.845 315.773 335.471 316.141 335.002 316.376C334.533 316.611 333.978 316.728 333.338 316.728ZM343.421 316.728C342.621 316.728 341.89 316.573 341.229 316.264C340.567 315.955 340.045 315.517 339.661 314.952L340.845 313.928C341.079 314.365 341.415 314.717 341.853 314.984C342.301 315.24 342.834 315.368 343.453 315.368C343.943 315.368 344.333 315.283 344.621 315.112C344.909 314.941 345.053 314.701 345.053 314.392C345.053 314.189 344.983 314.013 344.845 313.864C344.717 313.704 344.466 313.581 344.093 313.496L342.413 313.144C341.559 312.973 340.951 312.701 340.589 312.328C340.226 311.944 340.045 311.459 340.045 310.872C340.045 310.435 340.173 310.029 340.429 309.656C340.685 309.283 341.058 308.984 341.549 308.76C342.05 308.525 342.647 308.408 343.341 308.408C344.141 308.408 344.823 308.552 345.389 308.84C345.954 309.117 346.386 309.517 346.685 310.04L345.501 311.032C345.298 310.605 344.999 310.291 344.605 310.088C344.21 309.875 343.799 309.768 343.373 309.768C343.031 309.768 342.738 309.811 342.493 309.896C342.247 309.981 342.061 310.099 341.933 310.248C341.805 310.397 341.741 310.573 341.741 310.776C341.741 310.989 341.821 311.176 341.981 311.336C342.141 311.496 342.429 311.619 342.845 311.704L344.669 312.088C345.437 312.237 345.975 312.493 346.285 312.856C346.605 313.208 346.765 313.64 346.765 314.152C346.765 314.664 346.631 315.117 346.365 315.512C346.098 315.896 345.714 316.195 345.213 316.408C344.711 316.621 344.114 316.728 343.421 316.728ZM349.713 307.224C349.34 307.224 349.052 307.133 348.849 306.952C348.657 306.76 348.561 306.493 348.561 306.152C348.561 305.811 348.657 305.549 348.849 305.368C349.052 305.187 349.34 305.096 349.713 305.096C350.076 305.096 350.353 305.187 350.545 305.368C350.748 305.549 350.849 305.811 350.849 306.152C350.849 306.493 350.748 306.76 350.545 306.952C350.353 307.133 350.076 307.224 349.713 307.224ZM350.561 308.568V316.568H348.849V308.568H350.561ZM353.24 316.568V308.568H354.76L354.872 310.648L354.648 310.424C354.797 309.965 355.011 309.587 355.288 309.288C355.576 308.979 355.912 308.755 356.296 308.616C356.691 308.477 357.107 308.408 357.544 308.408C358.109 308.408 358.616 308.52 359.064 308.744C359.523 308.957 359.885 309.283 360.152 309.72C360.419 310.157 360.552 310.712 360.552 311.384V316.568H358.84V311.912C358.84 311.123 358.675 310.579 358.344 310.28C358.024 309.971 357.619 309.816 357.128 309.816C356.776 309.816 356.435 309.901 356.104 310.072C355.773 310.232 355.496 310.493 355.272 310.856C355.059 311.219 354.952 311.704 354.952 312.312V316.568H353.24ZM366.666 316.728C365.866 316.728 365.162 316.563 364.554 316.232C363.946 315.901 363.472 315.427 363.13 314.808C362.8 314.179 362.634 313.432 362.634 312.568C362.634 311.704 362.8 310.963 363.13 310.344C363.472 309.715 363.941 309.235 364.538 308.904C365.136 308.573 365.813 308.408 366.57 308.408C367.349 308.408 368.01 308.568 368.554 308.888C369.098 309.208 369.514 309.645 369.802 310.2C370.09 310.755 370.234 311.384 370.234 312.088C370.234 312.28 370.229 312.461 370.218 312.632C370.208 312.803 370.192 312.952 370.17 313.08H363.738V311.768H369.418L368.57 312.024C368.57 311.299 368.389 310.744 368.026 310.36C367.664 309.965 367.168 309.768 366.538 309.768C366.08 309.768 365.68 309.875 365.338 310.088C364.997 310.301 364.736 310.621 364.554 311.048C364.373 311.464 364.282 311.976 364.282 312.584C364.282 313.181 364.378 313.688 364.57 314.104C364.762 314.52 365.034 314.835 365.386 315.048C365.738 315.261 366.154 315.368 366.634 315.368C367.168 315.368 367.6 315.267 367.93 315.064C368.261 314.861 368.522 314.579 368.714 314.216L370.074 314.856C369.882 315.24 369.621 315.576 369.29 315.864C368.97 316.141 368.586 316.355 368.138 316.504C367.69 316.653 367.2 316.728 366.666 316.728ZM375.436 316.728C374.636 316.728 373.906 316.573 373.244 316.264C372.583 315.955 372.06 315.517 371.676 314.952L372.86 313.928C373.095 314.365 373.431 314.717 373.868 314.984C374.316 315.24 374.85 315.368 375.468 315.368C375.959 315.368 376.348 315.283 376.636 315.112C376.924 314.941 377.068 314.701 377.068 314.392C377.068 314.189 376.999 314.013 376.86 313.864C376.732 313.704 376.482 313.581 376.108 313.496L374.428 313.144C373.575 312.973 372.967 312.701 372.604 312.328C372.242 311.944 372.06 311.459 372.06 310.872C372.06 310.435 372.188 310.029 372.444 309.656C372.7 309.283 373.074 308.984 373.564 308.76C374.066 308.525 374.663 308.408 375.356 308.408C376.156 308.408 376.839 308.552 377.404 308.84C377.97 309.117 378.402 309.517 378.7 310.04L377.516 311.032C377.314 310.605 377.015 310.291 376.62 310.088C376.226 309.875 375.815 309.768 375.388 309.768C375.047 309.768 374.754 309.811 374.508 309.896C374.263 309.981 374.076 310.099 373.948 310.248C373.82 310.397 373.756 310.573 373.756 310.776C373.756 310.989 373.836 311.176 373.996 311.336C374.156 311.496 374.444 311.619 374.86 311.704L376.684 312.088C377.452 312.237 377.991 312.493 378.3 312.856C378.62 313.208 378.78 313.64 378.78 314.152C378.78 314.664 378.647 315.117 378.38 315.512C378.114 315.896 377.73 316.195 377.228 316.408C376.727 316.621 376.13 316.728 375.436 316.728ZM383.905 316.728C383.105 316.728 382.374 316.573 381.713 316.264C381.052 315.955 380.529 315.517 380.145 314.952L381.329 313.928C381.564 314.365 381.9 314.717 382.337 314.984C382.785 315.24 383.318 315.368 383.937 315.368C384.428 315.368 384.817 315.283 385.105 315.112C385.393 314.941 385.537 314.701 385.537 314.392C385.537 314.189 385.468 314.013 385.329 313.864C385.201 313.704 384.95 313.581 384.577 313.496L382.897 313.144C382.044 312.973 381.436 312.701 381.073 312.328C380.71 311.944 380.529 311.459 380.529 310.872C380.529 310.435 380.657 310.029 380.913 309.656C381.169 309.283 381.542 308.984 382.033 308.76C382.534 308.525 383.132 308.408 383.825 308.408C384.625 308.408 385.308 308.552 385.873 308.84C386.438 309.117 386.87 309.517 387.169 310.04L385.985 311.032C385.782 310.605 385.484 310.291 385.089 310.088C384.694 309.875 384.284 309.768 383.857 309.768C383.516 309.768 383.222 309.811 382.977 309.896C382.732 309.981 382.545 310.099 382.417 310.248C382.289 310.397 382.225 310.573 382.225 310.776C382.225 310.989 382.305 311.176 382.465 311.336C382.625 311.496 382.913 311.619 383.329 311.704L385.153 312.088C385.921 312.237 386.46 312.493 386.769 312.856C387.089 313.208 387.249 313.64 387.249 314.152C387.249 314.664 387.116 315.117 386.849 315.512C386.582 315.896 386.198 316.195 385.697 316.408C385.196 316.621 384.598 316.728 383.905 316.728Z" fill="#101828"/>
<path d="M333.067 338.387L324.842 331.731L334.467 335.069L344.091 331.731L335.867 338.387C335.051 339.048 333.884 339.048 333.067 338.387Z" fill="white"/>
</g>
<g filter="url(#filter6_bd_228_46845)">
<rect x="114.787" y="340.324" width="115.919" height="48" rx="10.4902" fill="white"/>
<rect x="135.508" y="361.702" width="18.7401" height="14.6428" fill="#C6D0FE"/>
<path d="M137.735 354.723L151.691 354.723L154.202 359.224H135.555L137.735 354.723Z" fill="#C6D0FE"/>
<path d="M133.668 362.468C133.668 363.689 134.658 364.678 135.878 364.678C137.099 364.678 138.089 363.689 138.089 362.468V358.345H133.668V362.468Z" fill="#1A4CFF"/>
<path d="M138.088 362.468C138.088 363.689 139.077 364.678 140.298 364.678C141.519 364.678 142.509 363.689 142.509 362.468V358.345H138.088V362.468Z" fill="#1A4CFF"/>
<path d="M142.51 362.468C142.51 363.689 143.499 364.678 144.72 364.678C145.941 364.678 146.93 363.689 146.93 362.468V358.345H142.51V362.468Z" fill="#1A4CFF"/>
<path d="M146.93 362.468C146.93 363.689 147.919 364.678 149.14 364.678C150.361 364.678 151.35 363.689 151.35 362.468V358.345H146.93V362.468Z" fill="#1A4CFF"/>
<path d="M151.352 362.468C151.352 363.689 152.341 364.678 153.562 364.678C154.783 364.678 155.772 363.689 155.772 362.468V358.345H151.352V362.468Z" fill="#1A4CFF"/>
<rect x="141.738" y="367.309" width="6.20923" height="6.8594" fill="#E8EDFF"/>
<path d="M171.522 359.104C172.471 359.104 173.292 359.285 173.986 359.648C174.679 360 175.266 360.523 175.746 361.216L174.594 362.32C174.188 361.701 173.73 361.259 173.218 360.992C172.716 360.715 172.119 360.576 171.426 360.576C170.914 360.576 170.492 360.645 170.162 360.784C169.831 360.923 169.586 361.109 169.426 361.344C169.276 361.568 169.202 361.824 169.202 362.112C169.202 362.443 169.314 362.731 169.538 362.976C169.772 363.221 170.204 363.413 170.834 363.552L172.978 364.032C174.002 364.256 174.727 364.597 175.154 365.056C175.58 365.515 175.794 366.096 175.794 366.8C175.794 367.451 175.618 368.016 175.266 368.496C174.914 368.976 174.423 369.344 173.794 369.6C173.175 369.856 172.444 369.984 171.602 369.984C170.855 369.984 170.183 369.888 169.586 369.696C168.988 369.504 168.466 369.243 168.018 368.912C167.57 368.581 167.202 368.203 166.914 367.776L168.098 366.592C168.322 366.965 168.604 367.301 168.946 367.6C169.287 367.888 169.682 368.112 170.13 368.272C170.588 368.432 171.095 368.512 171.65 368.512C172.14 368.512 172.562 368.453 172.914 368.336C173.276 368.219 173.548 368.048 173.73 367.824C173.922 367.589 174.018 367.312 174.018 366.992C174.018 366.683 173.911 366.411 173.698 366.176C173.495 365.941 173.111 365.76 172.546 365.632L170.226 365.104C169.586 364.965 169.058 364.768 168.642 364.512C168.226 364.256 167.916 363.947 167.714 363.584C167.511 363.211 167.41 362.795 167.41 362.336C167.41 361.739 167.57 361.2 167.89 360.72C168.22 360.229 168.695 359.84 169.314 359.552C169.932 359.253 170.668 359.104 171.522 359.104ZM180.283 359.472V367.424C180.283 367.819 180.384 368.107 180.587 368.288C180.8 368.469 181.083 368.56 181.435 368.56C181.723 368.56 181.974 368.517 182.187 368.432C182.4 368.336 182.598 368.208 182.779 368.048L183.163 369.296C182.918 369.509 182.614 369.68 182.251 369.808C181.899 369.925 181.504 369.984 181.067 369.984C180.608 369.984 180.187 369.909 179.803 369.76C179.419 369.611 179.12 369.371 178.907 369.04C178.694 368.699 178.582 368.256 178.571 367.712V359.952L180.283 359.472ZM183.035 361.824V363.168H177.035V361.824H183.035ZM188.2 361.664C188.979 361.664 189.667 361.829 190.264 362.16C190.862 362.491 191.326 362.971 191.656 363.6C191.998 364.219 192.168 364.96 192.168 365.824C192.168 366.688 191.998 367.435 191.656 368.064C191.326 368.683 190.862 369.157 190.264 369.488C189.667 369.819 188.979 369.984 188.2 369.984C187.422 369.984 186.734 369.819 186.136 369.488C185.539 369.157 185.07 368.683 184.728 368.064C184.387 367.435 184.216 366.688 184.216 365.824C184.216 364.96 184.387 364.219 184.728 363.6C185.07 362.971 185.539 362.491 186.136 362.16C186.734 361.829 187.422 361.664 188.2 361.664ZM188.2 363.008C187.72 363.008 187.31 363.12 186.968 363.344C186.638 363.557 186.382 363.872 186.2 364.288C186.019 364.704 185.928 365.216 185.928 365.824C185.928 366.421 186.019 366.933 186.2 367.36C186.382 367.776 186.638 368.096 186.968 368.32C187.31 368.533 187.72 368.64 188.2 368.64C188.68 368.64 189.086 368.533 189.416 368.32C189.747 368.096 190.003 367.776 190.184 367.36C190.366 366.933 190.456 366.421 190.456 365.824C190.456 365.216 190.366 364.704 190.184 364.288C190.003 363.872 189.747 363.557 189.416 363.344C189.086 363.12 188.68 363.008 188.2 363.008ZM194.322 369.824V361.824H195.778L195.938 363.264C196.151 362.741 196.466 362.347 196.882 362.08C197.309 361.803 197.831 361.664 198.45 361.664C198.61 361.664 198.77 361.68 198.93 361.712C199.09 361.733 199.223 361.771 199.33 361.824L199.09 363.328C198.973 363.285 198.839 363.253 198.69 363.232C198.551 363.2 198.359 363.184 198.114 363.184C197.783 363.184 197.458 363.275 197.138 363.456C196.818 363.627 196.551 363.888 196.338 364.24C196.135 364.592 196.034 365.04 196.034 365.584V369.824H194.322ZM204.264 369.984C203.464 369.984 202.76 369.819 202.152 369.488C201.544 369.157 201.069 368.683 200.728 368.064C200.397 367.435 200.232 366.688 200.232 365.824C200.232 364.96 200.397 364.219 200.728 363.6C201.069 362.971 201.539 362.491 202.136 362.16C202.733 361.829 203.411 361.664 204.168 361.664C204.947 361.664 205.608 361.824 206.152 362.144C206.696 362.464 207.112 362.901 207.4 363.456C207.688 364.011 207.832 364.64 207.832 365.344C207.832 365.536 207.827 365.717 207.816 365.888C207.805 366.059 207.789 366.208 207.768 366.336H201.336V365.024H207.016L206.168 365.28C206.168 364.555 205.987 364 205.624 363.616C205.261 363.221 204.765 363.024 204.136 363.024C203.677 363.024 203.277 363.131 202.936 363.344C202.595 363.557 202.333 363.877 202.152 364.304C201.971 364.72 201.88 365.232 201.88 365.84C201.88 366.437 201.976 366.944 202.168 367.36C202.36 367.776 202.632 368.091 202.984 368.304C203.336 368.517 203.752 368.624 204.232 368.624C204.765 368.624 205.197 368.523 205.528 368.32C205.859 368.117 206.12 367.835 206.312 367.472L207.672 368.112C207.48 368.496 207.219 368.832 206.888 369.12C206.568 369.397 206.184 369.611 205.736 369.76C205.288 369.909 204.797 369.984 204.264 369.984ZM213.034 369.984C212.234 369.984 211.503 369.829 210.842 369.52C210.181 369.211 209.658 368.773 209.274 368.208L210.458 367.184C210.693 367.621 211.029 367.973 211.466 368.24C211.914 368.496 212.447 368.624 213.066 368.624C213.557 368.624 213.946 368.539 214.234 368.368C214.522 368.197 214.666 367.957 214.666 367.648C214.666 367.445 214.597 367.269 214.458 367.12C214.33 366.96 214.079 366.837 213.706 366.752L212.026 366.4C211.173 366.229 210.565 365.957 210.202 365.584C209.839 365.2 209.658 364.715 209.658 364.128C209.658 363.691 209.786 363.285 210.042 362.912C210.298 362.539 210.671 362.24 211.162 362.016C211.663 361.781 212.261 361.664 212.954 361.664C213.754 361.664 214.437 361.808 215.002 362.096C215.567 362.373 215.999 362.773 216.298 363.296L215.114 364.288C214.911 363.861 214.613 363.547 214.218 363.344C213.823 363.131 213.413 363.024 212.986 363.024C212.645 363.024 212.351 363.067 212.106 363.152C211.861 363.237 211.674 363.355 211.546 363.504C211.418 363.653 211.354 363.829 211.354 364.032C211.354 364.245 211.434 364.432 211.594 364.592C211.754 364.752 212.042 364.875 212.458 364.96L214.282 365.344C215.05 365.493 215.589 365.749 215.898 366.112C216.218 366.464 216.378 366.896 216.378 367.408C216.378 367.92 216.245 368.373 215.978 368.768C215.711 369.152 215.327 369.451 214.826 369.664C214.325 369.877 213.727 369.984 213.034 369.984Z" fill="#101828"/>
<path d="M171.353 391.643L163.127 384.987L172.752 388.325L182.376 384.987L174.153 391.643C173.336 392.304 172.169 392.304 171.353 391.643Z" fill="white"/>
</g>
<defs>
<filter id="filter0_bd_228_46845" x="242.915" y="56.8543" width="200.544" height="182.662" filterUnits="userSpaceOnUse" color-interpolation-filters="sRGB">
<feFlood flood-opacity="0" result="BackgroundImageFix"/>
<feGaussianBlur in="BackgroundImageFix" stdDeviation="21.9066"/>
<feComposite in2="SourceAlpha" operator="in" result="effect1_backgroundBlur_228_46845"/>
<feColorMatrix in="SourceAlpha" type="matrix" values="0 0 0 0 0 0 0 0 0 0 0 0 0 0 0 0 0 0 127 0" result="hardAlpha"/>
<feOffset dy="5.3107"/>
<feGaussianBlur stdDeviation="16.5959"/>
<feComposite in2="hardAlpha" operator="out"/>
<feColorMatrix type="matrix" values="0 0 0 0 0 0 0 0 0 0 0 0 0 0 0 0 0 0 0.1 0"/>
<feBlend mode="normal" in2="effect1_backgroundBlur_228_46845" result="effect2_dropShadow_228_46845"/>
<feBlend mode="normal" in="SourceGraphic" in2="effect2_dropShadow_228_46845" result="shape"/>
</filter>
<filter id="filter1_bd_228_46845" x="108.825" y="-15.173" width="243.544" height="182.662" filterUnits="userSpaceOnUse" color-interpolation-filters="sRGB">
<feFlood flood-opacity="0" result="BackgroundImageFix"/>
<feGaussianBlur in="BackgroundImageFix" stdDeviation="21.9066"/>
<feComposite in2="SourceAlpha" operator="in" result="effect1_backgroundBlur_228_46845"/>
<feColorMatrix in="SourceAlpha" type="matrix" values="0 0 0 0 0 0 0 0 0 0 0 0 0 0 0 0 0 0 127 0" result="hardAlpha"/>
<feOffset dy="5.3107"/>
<feGaussianBlur stdDeviation="16.5959"/>
<feComposite in2="hardAlpha" operator="out"/>
<feColorMatrix type="matrix" values="0 0 0 0 0 0 0 0 0 0 0 0 0 0 0 0 0 0 0.1 0"/>
<feBlend mode="normal" in2="effect1_backgroundBlur_228_46845" result="effect2_dropShadow_228_46845"/>
<feBlend mode="normal" in="SourceGraphic" in2="effect2_dropShadow_228_46845" result="shape"/>
</filter>
<filter id="filter2_bd_228_46845" x="-18.8133" y="74.8719" width="243.332" height="182.662" filterUnits="userSpaceOnUse" color-interpolation-filters="sRGB">
<feFlood flood-opacity="0" result="BackgroundImageFix"/>
<feGaussianBlur in="BackgroundImageFix" stdDeviation="21.9066"/>
<feComposite in2="SourceAlpha" operator="in" result="effect1_backgroundBlur_228_46845"/>
<feColorMatrix in="SourceAlpha" type="matrix" values="0 0 0 0 0 0 0 0 0 0 0 0 0 0 0 0 0 0 127 0" result="hardAlpha"/>
<feOffset dy="5.3107"/>
<feGaussianBlur stdDeviation="16.5959"/>
<feComposite in2="hardAlpha" operator="out"/>
<feColorMatrix type="matrix" values="0 0 0 0 0 0 0 0 0 0 0 0 0 0 0 0 0 0 0.1 0"/>
<feBlend mode="normal" in2="effect1_backgroundBlur_228_46845" result="effect2_dropShadow_228_46845"/>
<feBlend mode="normal" in="SourceGraphic" in2="effect2_dropShadow_228_46845" result="shape"/>
</filter>
<filter id="filter3_bd_228_46845" x="106.042" y="131.134" width="242.627" height="158.077" filterUnits="userSpaceOnUse" color-interpolation-filters="sRGB">
<feFlood flood-opacity="0" result="BackgroundImageFix"/>
<feGaussianBlur in="BackgroundImageFix" stdDeviation="21.9066"/>
<feComposite in2="SourceAlpha" operator="in" result="effect1_backgroundBlur_228_46845"/>
<feColorMatrix in="SourceAlpha" type="matrix" values="0 0 0 0 0 0 0 0 0 0 0 0 0 0 0 0 0 0 127 0" result="hardAlpha"/>
<feOffset dy="5.3107"/>
<feGaussianBlur stdDeviation="16.5959"/>
<feComposite in2="hardAlpha" operator="out"/>
<feColorMatrix type="matrix" values="0 0 0 0 0 0 0 0 0 0 0 0 0 0 0 0 0 0 0.1 0"/>
<feBlend mode="normal" in2="effect1_backgroundBlur_228_46845" result="effect2_dropShadow_228_46845"/>
<feBlend mode="normal" in="SourceGraphic" in2="effect2_dropShadow_228_46845" result="shape"/>
</filter>
<filter id="filter4_bd_228_46845" x="-9.94802" y="228.755" width="218.544" height="182.662" filterUnits="userSpaceOnUse" color-interpolation-filters="sRGB">
<feFlood flood-opacity="0" result="BackgroundImageFix"/>
<feGaussianBlur in="BackgroundImageFix" stdDeviation="21.9066"/>
<feComposite in2="SourceAlpha" operator="in" result="effect1_backgroundBlur_228_46845"/>
<feColorMatrix in="SourceAlpha" type="matrix" values="0 0 0 0 0 0 0 0 0 0 0 0 0 0 0 0 0 0 127 0" result="hardAlpha"/>
<feOffset dy="5.3107"/>
<feGaussianBlur stdDeviation="16.5959"/>
<feComposite in2="hardAlpha" operator="out"/>
<feColorMatrix type="matrix" values="0 0 0 0 0 0 0 0 0 0 0 0 0 0 0 0 0 0 0.1 0"/>
<feBlend mode="normal" in2="effect1_backgroundBlur_228_46845" result="effect2_dropShadow_228_46845"/>
<feBlend mode="normal" in="SourceGraphic" in2="effect2_dropShadow_228_46845" result="shape"/>
</filter>
<filter id="filter5_bd_228_46845" x="211.796" y="243.255" width="245.332" height="182.662" filterUnits="userSpaceOnUse" color-interpolation-filters="sRGB">
<feFlood flood-opacity="0" result="BackgroundImageFix"/>
<feGaussianBlur in="BackgroundImageFix" stdDeviation="21.9066"/>
<feComposite in2="SourceAlpha" operator="in" result="effect1_backgroundBlur_228_46845"/>
<feColorMatrix in="SourceAlpha" type="matrix" values="0 0 0 0 0 0 0 0 0 0 0 0 0 0 0 0 0 0 127 0" result="hardAlpha"/>
<feOffset dy="5.3107"/>
<feGaussianBlur stdDeviation="16.5959"/>
<feComposite in2="hardAlpha" operator="out"/>
<feColorMatrix type="matrix" values="0 0 0 0 0 0 0 0 0 0 0 0 0 0 0 0 0 0 0.1 0"/>
<feBlend mode="normal" in2="effect1_backgroundBlur_228_46845" result="effect2_dropShadow_228_46845"/>
<feBlend mode="normal" in="SourceGraphic" in2="effect2_dropShadow_228_46845" result="shape"/>
</filter>
<filter id="filter6_bd_228_46845" x="50.0813" y="296.511" width="245.332" height="182.662" filterUnits="userSpaceOnUse" color-interpolation-filters="sRGB">
<feFlood flood-opacity="0" result="BackgroundImageFix"/>
<feGaussianBlur in="BackgroundImageFix" stdDeviation="21.9066"/>
<feComposite in2="SourceAlpha" operator="in" result="effect1_backgroundBlur_228_46845"/>
<feColorMatrix in="SourceAlpha" type="matrix" values="0 0 0 0 0 0 0 0 0 0 0 0 0 0 0 0 0 0 127 0" result="hardAlpha"/>
<feOffset dy="5.3107"/>
<feGaussianBlur stdDeviation="16.5959"/>
<feComposite in2="hardAlpha" operator="out"/>
<feColorMatrix type="matrix" values="0 0 0 0 0 0 0 0 0 0 0 0 0 0 0 0 0 0 0.1 0"/>
<feBlend mode="normal" in2="effect1_backgroundBlur_228_46845" result="effect2_dropShadow_228_46845"/>
<feBlend mode="normal" in="SourceGraphic" in2="effect2_dropShadow_228_46845" result="shape"/>
</filter>
<clipPath id="clip0_228_46845">
<rect x="300.08" y="108.56" width="32.2147" height="32.2147" rx="4.77254" fill="white"/>
</clipPath>
<clipPath id="clip1_228_46845">
<rect x="165.99" y="36.533" width="32.2147" height="32.2147" rx="4.77254" fill="white"/>
</clipPath>
<clipPath id="clip2_228_46845">
<rect x="48.7441" y="126.578" width="32.2147" height="32.2147" rx="4.77254" fill="white"/>
</clipPath>
<clipPath id="clip3_228_46845">
<rect x="47.2168" y="280.461" width="32.2147" height="32.2147" rx="4.77254" fill="white"/>
</clipPath>
</defs>
</svg>
