<svg width="121" height="93" viewBox="0 0 121 93" fill="none" xmlns="http://www.w3.org/2000/svg">
<path d="M115.329 91.8338H5.57226C4.09492 91.8322 2.67856 91.2446 1.63392 90.1999C0.589281 89.1553 0.00166881 87.7389 0 86.2616V6.22363C0.0016697 4.74629 0.589281 3.32993 1.63392 2.28529C2.67856 1.24065 4.09492 0.653037 5.57226 0.651367H115.329C116.806 0.653036 118.223 1.24065 119.267 2.28529C120.312 3.32993 120.9 4.74629 120.901 6.22363V86.2616C120.9 87.7389 120.312 89.1553 119.267 90.1999C118.223 91.2446 116.806 91.8322 115.329 91.8338Z" fill="#D1DBFF"/>
<path d="M107.606 91.6651H106.853L95.2218 68.2346L94.8841 67.5591L86.2825 50.2277L71.7068 20.8636L71.3725 20.1881L61.7578 0.820312H62.5143L72.1256 20.1881L72.4633 20.8636L86.6675 49.4814L87.0019 50.1568L95.6 67.4747L107.606 91.6651Z" fill="white"/>
<path d="M120.732 20.1897H0.168945V20.8651H120.732V20.1897Z" fill="white"/>
<path d="M120.732 49.4829H86.4272V50.1583H120.732V49.4829Z" fill="white"/>
<path d="M32.9323 0.820312H32.2568V92.0028H32.9323V0.820312Z" fill="white"/>
<path d="M95.4303 67.5581H32.5947V68.2335H95.4303V67.5581Z" fill="white"/>
<path d="M59.0995 42.19C62.2703 42.19 64.8406 39.6196 64.8406 36.4489C64.8406 33.2782 62.2703 30.7078 59.0995 30.7078C55.9288 30.7078 53.3584 33.2782 53.3584 36.4489C53.3584 39.6196 55.9288 42.19 59.0995 42.19Z" fill="#E6E6E6"/>
<path d="M80.1554 31.0421C80.1554 39.0927 68.3158 61.7952 63.8691 70.0379C63.7076 70.3379 63.4679 70.5885 63.1755 70.7632C62.883 70.9379 62.5487 71.0301 62.2081 71.0301C61.8674 71.0301 61.5331 70.9379 61.2406 70.7632C60.9482 70.5885 60.7085 70.3379 60.547 70.0379C56.1003 61.7952 44.2607 39.0927 44.2607 31.0421C44.2607 26.2821 46.1516 21.7171 49.5174 18.3514C52.8832 14.9856 57.4481 13.0947 62.2081 13.0947C66.968 13.0947 71.533 14.9856 74.8987 18.3514C78.2645 21.7171 80.1554 26.2821 80.1554 31.0421Z" fill="#1A4CFF"/>
<path d="M62.2078 39.0689C66.6421 39.0689 70.2368 35.4741 70.2368 31.0398C70.2368 26.6055 66.6421 23.0107 62.2078 23.0107C57.7734 23.0107 54.1787 26.6055 54.1787 31.0398C54.1787 35.4741 57.7734 39.0689 62.2078 39.0689Z" fill="#E6E6E6"/>
<path d="M62.2065 78.7421C64.0324 78.7421 65.5126 77.2619 65.5126 75.436C65.5126 73.6101 64.0324 72.1299 62.2065 72.1299C60.3806 72.1299 58.9004 73.6101 58.9004 75.436C58.9004 77.2619 60.3806 78.7421 62.2065 78.7421Z" fill="#1A4CFF"/>
</svg>
