<svg width="166" height="54" viewBox="0 0 166 54" fill="none" xmlns="http://www.w3.org/2000/svg">
<path fill-rule="evenodd" clip-rule="evenodd" d="M13.5257 37.5974C20.9958 37.5974 27.0514 31.5417 27.0514 24.0717C27.0514 16.6016 13.5257 5.34228 13.5257 5.34228C13.5257 5.34228 0 16.6016 0 24.0717C0 31.5417 6.05567 37.5974 13.5257 37.5974ZM13.5257 29.1784C16.3317 29.1784 18.6064 26.9037 18.6064 24.0977C18.6064 21.2918 16.3317 19.0171 13.5257 19.0171C10.7198 19.0171 8.44507 21.2918 8.44507 24.0977C8.44507 26.9037 10.7198 29.1784 13.5257 29.1784Z" fill="#1A4CFF"/>
<rect x="2.90723" y="41.1716" width="21.2378" height="7.48604" fill="#1A4CFF"/>
<path d="M39.2831 35.821H52.385V40.0001H34.0874V15.1515H39.2831V35.821ZM64.4251 20.7989C66.3327 20.7989 68.0018 21.188 69.4325 21.966C70.8883 22.7441 72.0177 23.8611 72.8209 25.3168C73.6492 26.7726 74.0634 28.5296 74.0634 30.5877C74.0634 32.6208 73.6492 34.3778 72.8209 35.8586C72.0177 37.3144 70.8883 38.4313 69.4325 39.2094C68.0018 39.9875 66.3327 40.3766 64.4251 40.3766C62.5427 40.3766 60.8736 39.9875 59.4178 39.2094C57.962 38.4313 56.82 37.3144 55.9917 35.8586C55.1885 34.3778 54.7869 32.6208 54.7869 30.5877C54.7869 28.5296 55.1885 26.7726 55.9917 25.3168C56.82 23.8611 57.962 22.7441 59.4178 21.966C60.8736 21.188 62.5427 20.7989 64.4251 20.7989ZM64.4251 24.6391C63.4714 24.6391 62.6556 24.865 61.9779 25.3168C61.3253 25.7435 60.8234 26.3961 60.472 27.2746C60.1206 28.1531 59.9449 29.2575 59.9449 30.5877C59.9449 31.918 60.1206 33.0224 60.472 33.9009C60.8234 34.7794 61.3253 35.4445 61.9779 35.8963C62.6556 36.323 63.4714 36.5363 64.4251 36.5363C65.3538 36.5363 66.1445 36.323 66.797 35.8963C67.4747 35.4445 67.9893 34.7794 68.3407 33.9009C68.6921 33.0224 68.8678 31.918 68.8678 30.5877C68.8678 29.2575 68.6921 28.1531 68.3407 27.2746C67.9893 26.3961 67.4747 25.7435 66.797 25.3168C66.1445 24.865 65.3538 24.6391 64.4251 24.6391ZM86.9256 20.7989C88.6073 20.7989 90.0254 21.0499 91.18 21.5519C92.3596 22.0288 93.3009 22.6939 94.0037 23.5473C94.7315 24.3756 95.2461 25.3043 95.5473 26.3334L90.7282 28.0652C90.4772 26.9358 90.0505 26.0824 89.4481 25.5051C88.8457 24.9278 88.03 24.6391 87.0009 24.6391C86.0471 24.6391 85.2314 24.865 84.5537 25.3168C83.876 25.7435 83.3615 26.4087 83.0101 27.3122C82.6587 28.1907 82.483 29.2951 82.483 30.6254C82.483 31.9557 82.6587 33.06 83.0101 33.9385C83.3866 34.817 83.9137 35.4696 84.5913 35.8963C85.2941 36.323 86.1099 36.5363 87.0385 36.5363C87.7915 36.5363 88.4316 36.4108 88.9587 36.1598C89.4857 35.8837 89.9124 35.4947 90.2387 34.9927C90.5901 34.4907 90.8286 33.8883 90.9541 33.1855L95.6226 34.6915C95.3465 35.821 94.8319 36.8124 94.079 37.6658C93.326 38.5192 92.3596 39.1843 91.18 39.6612C90.0003 40.1381 88.6324 40.3766 87.0762 40.3766C85.1435 40.3766 83.4368 39.9875 81.9559 39.2094C80.475 38.4313 79.333 37.3144 78.5298 35.8586C77.7266 34.4029 77.325 32.6459 77.325 30.5877C77.325 28.5296 77.7266 26.7726 78.5298 25.3168C79.333 23.8611 80.4625 22.7441 81.9182 21.966C83.374 21.188 85.0431 20.7989 86.9256 20.7989ZM108.215 20.7989C110.122 20.7989 111.791 21.188 113.222 21.966C114.678 22.7441 115.807 23.8611 116.61 25.3168C117.439 26.7726 117.853 28.5296 117.853 30.5877C117.853 32.6208 117.439 34.3778 116.61 35.8586C115.807 37.3144 114.678 38.4313 113.222 39.2094C111.791 39.9875 110.122 40.3766 108.215 40.3766C106.332 40.3766 104.663 39.9875 103.207 39.2094C101.751 38.4313 100.609 37.3144 99.7811 35.8586C98.9779 34.3778 98.5763 32.6208 98.5763 30.5877C98.5763 28.5296 98.9779 26.7726 99.7811 25.3168C100.609 23.8611 101.751 22.7441 103.207 21.966C104.663 21.188 106.332 20.7989 108.215 20.7989ZM108.215 24.6391C107.261 24.6391 106.445 24.865 105.767 25.3168C105.115 25.7435 104.613 26.3961 104.261 27.2746C103.91 28.1531 103.734 29.2575 103.734 30.5877C103.734 31.918 103.91 33.0224 104.261 33.9009C104.613 34.7794 105.115 35.4445 105.767 35.8963C106.445 36.323 107.261 36.5363 108.215 36.5363C109.143 36.5363 109.934 36.323 110.586 35.8963C111.264 35.4445 111.779 34.7794 112.13 33.9009C112.481 33.0224 112.657 31.918 112.657 30.5877C112.657 29.2575 112.481 28.1531 112.13 27.2746C111.779 26.3961 111.264 25.7435 110.586 25.3168C109.934 24.865 109.143 24.6391 108.215 24.6391ZM129.284 40.3766C127.728 40.3766 126.335 39.9875 125.105 39.2094C123.9 38.4313 122.947 37.3144 122.244 35.8586C121.566 34.4029 121.227 32.6584 121.227 30.6254C121.227 28.5421 121.591 26.7726 122.319 25.3168C123.047 23.836 124.026 22.719 125.256 21.966C126.511 21.188 127.916 20.7989 129.473 20.7989C131.129 20.7989 132.497 21.2758 133.576 22.2296C134.656 23.1834 135.358 24.4133 135.685 25.9192L135.195 26.5216V12.9302H140.353V40.0001H135.722L135.383 34.2774L136.024 34.5786C135.848 35.7582 135.446 36.7873 134.819 37.6658C134.191 38.5192 133.401 39.1843 132.447 39.6612C131.493 40.1381 130.439 40.3766 129.284 40.3766ZM130.79 36.4234C131.694 36.4234 132.472 36.1975 133.125 35.7457C133.777 35.2688 134.279 34.5786 134.63 33.675C135.007 32.7714 135.195 31.6921 135.195 30.4371C135.195 29.2324 135.02 28.2158 134.668 27.3875C134.317 26.5342 133.815 25.8816 133.162 25.4298C132.51 24.978 131.744 24.7521 130.866 24.7521C129.46 24.7521 128.356 25.2541 127.552 26.2581C126.774 27.2369 126.385 28.6802 126.385 30.5877C126.385 32.4953 126.774 33.9511 127.552 34.9551C128.331 35.9339 129.41 36.4234 130.79 36.4234ZM154.508 40.3766C152.525 40.3766 150.793 39.9875 149.312 39.2094C147.856 38.4313 146.727 37.3144 145.924 35.8586C145.12 34.4029 144.719 32.6459 144.719 30.5877C144.719 28.5296 145.12 26.7726 145.924 25.3168C146.727 23.8611 147.844 22.7441 149.274 21.966C150.73 21.188 152.387 20.7989 154.244 20.7989C156.152 20.7989 157.77 21.188 159.101 21.966C160.431 22.719 161.448 23.7607 162.15 25.0909C162.853 26.3961 163.205 27.8895 163.205 29.5712C163.205 30.0732 163.192 30.5501 163.167 31.0019C163.142 31.4537 163.104 31.8553 163.054 32.2067H148.032V28.63H160.795L158.31 29.5336C158.31 27.9523 157.946 26.735 157.218 25.8816C156.516 25.0282 155.512 24.6015 154.206 24.6015C153.253 24.6015 152.424 24.8274 151.722 25.2792C151.044 25.731 150.529 26.4087 150.178 27.3122C149.826 28.1907 149.651 29.3077 149.651 30.663C149.651 31.9933 149.839 33.0977 150.216 33.9762C150.617 34.8296 151.169 35.4696 151.872 35.8963C152.6 36.323 153.466 36.5363 154.47 36.5363C155.574 36.5363 156.465 36.323 157.143 35.8963C157.821 35.4696 158.348 34.8798 158.724 34.1268L162.828 35.708C162.426 36.6869 161.812 37.5278 160.983 38.2305C160.18 38.9333 159.214 39.473 158.084 39.8495C156.98 40.2009 155.788 40.3766 154.508 40.3766Z" fill="#1A4CFF"/>
</svg>
