<svg width="65" height="65" viewBox="0 0 65 65" fill="none" xmlns="http://www.w3.org/2000/svg">
<g clip-path="url(#clip0_228_46542)">
<path d="M65.9673 65.4242H65.4249L57.0488 48.5503L56.8056 48.0639L50.611 35.5824L40.1142 14.4354L39.8734 13.949L32.9492 0.000976562H33.494L40.4157 13.949L40.6589 14.4354L50.8883 35.0449L51.1291 35.5314L57.3212 48.0031L65.9673 65.4242Z" fill="#101828" fill-opacity="0.3"/>
<path d="M75.4213 13.9509H-11.4043V14.4373H75.4213V13.9509Z" fill="#101828" fill-opacity="0.3"/>
<path d="M75.4202 35.0461H50.7148V35.5326H75.4202V35.0461Z" fill="#101828" fill-opacity="0.3"/>
<path d="M12.1895 0.000976562H11.7031V65.6674H12.1895V0.000976562Z" fill="#101828" fill-opacity="0.3"/>
<path d="M57.1992 48.063H11.9473V48.5494H57.1992V48.063Z" fill="#101828" fill-opacity="0.3"/>
<path d="M8.99219 55.7629V19.8147H55.0233V45.0223L37.926 53.7902L23.2398 41.5152L8.99219 55.7629Z" fill="#C6D0FE"/>
<path fill-rule="evenodd" clip-rule="evenodd" d="M32.0074 36.1131C38.4598 36.1131 43.6905 30.8824 43.6905 24.4299C43.6905 17.9775 32.0074 8.25195 32.0074 8.25195C32.0074 8.25195 20.3242 17.9775 20.3242 24.4299C20.3242 30.8824 25.5549 36.1131 32.0074 36.1131ZM32.0071 28.8419C34.4309 28.8419 36.3957 26.8771 36.3957 24.4533C36.3957 22.0296 34.4309 20.0648 32.0071 20.0648C29.5834 20.0648 27.6186 22.0296 27.6186 24.4533C27.6186 26.8771 29.5834 28.8419 32.0071 28.8419Z" fill="#1A4CFF"/>
</g>
<defs>
<clipPath id="clip0_228_46542">
<rect width="64.0147" height="64.0147" rx="9.48366" fill="white"/>
</clipPath>
</defs>
</svg>
