<svg width="436" height="436" viewBox="0 0 436 436" fill="none" xmlns="http://www.w3.org/2000/svg">
<g filter="url(#filter0_bd_396_55682)">
<rect x="286.848" y="100.882" width="112.919" height="48" rx="10.4902" fill="white"/>
<g clip-path="url(#clip0_396_55682)">
<path d="M304.723 119.867L316.269 111.161L327.887 119.867V122.611H304.723V119.867Z" fill="#C6D0FE"/>
<rect x="306.676" y="123.421" width="2.12913" height="10.3795" fill="#1A4CFF"/>
<rect x="312.383" y="123.421" width="2.12913" height="10.3795" fill="#1A4CFF"/>
<rect x="318.094" y="123.421" width="2.12913" height="10.3795" fill="#1A4CFF"/>
<rect x="323.801" y="123.421" width="2.12913" height="10.3795" fill="#1A4CFF"/>
<rect x="304.723" y="136.74" width="2.12913" height="23.1648" transform="rotate(-90 304.723 136.74)" fill="#C6D0FE"/>
</g>
<path d="M339.982 130.382V119.822H344.142C345.411 119.822 346.339 120.078 346.926 120.59C347.513 121.102 347.806 121.812 347.806 122.718C347.806 123.273 347.646 123.769 347.326 124.206C347.006 124.633 346.537 124.905 345.918 125.022V125.038C346.601 125.145 347.129 125.428 347.502 125.886C347.886 126.334 348.078 126.857 348.078 127.454C348.078 128.361 347.747 129.076 347.086 129.598C346.425 130.121 345.465 130.382 344.206 130.382H339.982ZM341.662 128.958H344.286C344.958 128.958 345.459 128.82 345.79 128.542C346.131 128.265 346.302 127.876 346.302 127.374C346.302 126.873 346.131 126.484 345.79 126.206C345.459 125.929 344.958 125.79 344.286 125.79H341.662V128.958ZM341.662 124.366H344.014C345.358 124.366 346.03 123.849 346.03 122.814C346.03 121.78 345.358 121.262 344.014 121.262H341.662V124.366ZM354.96 125.246C354.96 124.713 354.81 124.302 354.512 124.014C354.224 123.716 353.824 123.566 353.312 123.566C352.832 123.566 352.421 123.678 352.08 123.902C351.738 124.126 351.488 124.489 351.328 124.99L349.888 124.382C350.09 123.732 350.485 123.209 351.072 122.814C351.669 122.42 352.437 122.222 353.376 122.222C354.016 122.222 354.581 122.329 355.072 122.542C355.562 122.745 355.946 123.054 356.224 123.47C356.512 123.886 356.656 124.42 356.656 125.07V128.638C356.656 129.033 356.853 129.23 357.248 129.23C357.44 129.23 357.626 129.204 357.808 129.15L357.712 130.334C357.466 130.452 357.157 130.51 356.784 130.51C356.442 130.51 356.133 130.452 355.856 130.334C355.589 130.206 355.376 130.02 355.216 129.774C355.066 129.518 354.992 129.204 354.992 128.83V128.718L355.344 128.702C355.248 129.118 355.05 129.465 354.752 129.742C354.453 130.009 354.106 130.212 353.712 130.35C353.317 130.478 352.917 130.542 352.512 130.542C352.01 130.542 351.557 130.462 351.152 130.302C350.757 130.142 350.442 129.902 350.208 129.582C349.984 129.252 349.872 128.846 349.872 128.366C349.872 127.769 350.064 127.278 350.448 126.894C350.842 126.51 351.397 126.249 352.112 126.11L355.216 125.502L355.2 126.702L352.944 127.166C352.496 127.252 352.16 127.374 351.936 127.534C351.712 127.694 351.6 127.929 351.6 128.238C351.6 128.537 351.712 128.777 351.936 128.958C352.17 129.129 352.48 129.214 352.864 129.214C353.13 129.214 353.386 129.182 353.632 129.118C353.888 129.054 354.117 128.953 354.32 128.814C354.522 128.665 354.677 128.478 354.784 128.254C354.901 128.02 354.96 127.742 354.96 127.422V125.246ZM359.461 130.382V122.382H360.981L361.093 124.462L360.869 124.238C361.018 123.78 361.231 123.401 361.509 123.102C361.797 122.793 362.133 122.569 362.517 122.43C362.911 122.292 363.327 122.222 363.765 122.222C364.33 122.222 364.837 122.334 365.285 122.558C365.743 122.772 366.106 123.097 366.373 123.534C366.639 123.972 366.773 124.526 366.773 125.198V130.382H365.061V125.726C365.061 124.937 364.895 124.393 364.565 124.094C364.245 123.785 363.839 123.63 363.349 123.63C362.997 123.63 362.655 123.716 362.325 123.886C361.994 124.046 361.717 124.308 361.493 124.67C361.279 125.033 361.173 125.518 361.173 126.126V130.382H359.461ZM376.919 122.382L373.351 126.03L372.983 126.286L370.471 128.894L370.455 126.942L374.887 122.382H376.919ZM371.079 118.782V130.382H369.367V118.782H371.079ZM373.559 125.07L377.111 130.382H375.127L372.279 126.046L373.559 125.07ZM381.595 130.542C380.795 130.542 380.064 130.388 379.403 130.078C378.741 129.769 378.219 129.332 377.835 128.766L379.019 127.742C379.253 128.18 379.589 128.532 380.027 128.798C380.475 129.054 381.008 129.182 381.627 129.182C382.117 129.182 382.507 129.097 382.795 128.926C383.083 128.756 383.227 128.516 383.227 128.206C383.227 128.004 383.157 127.828 383.019 127.678C382.891 127.518 382.64 127.396 382.267 127.31L380.587 126.958C379.733 126.788 379.125 126.516 378.763 126.142C378.4 125.758 378.219 125.273 378.219 124.686C378.219 124.249 378.347 123.844 378.603 123.47C378.859 123.097 379.232 122.798 379.723 122.574C380.224 122.34 380.821 122.222 381.515 122.222C382.315 122.222 382.997 122.366 383.563 122.654C384.128 122.932 384.56 123.332 384.859 123.854L383.675 124.846C383.472 124.42 383.173 124.105 382.779 123.902C382.384 123.689 381.973 123.582 381.547 123.582C381.205 123.582 380.912 123.625 380.667 123.71C380.421 123.796 380.235 123.913 380.107 124.062C379.979 124.212 379.915 124.388 379.915 124.59C379.915 124.804 379.995 124.99 380.155 125.15C380.315 125.31 380.603 125.433 381.019 125.518L382.843 125.902C383.611 126.052 384.149 126.308 384.459 126.67C384.779 127.022 384.939 127.454 384.939 127.966C384.939 128.478 384.805 128.932 384.539 129.326C384.272 129.71 383.888 130.009 383.387 130.222C382.885 130.436 382.288 130.542 381.595 130.542Z" fill="#101828"/>
<path d="M341.909 152.202L333.684 145.545L343.309 148.883L352.933 145.545L344.709 152.202C343.893 152.862 342.726 152.862 341.909 152.202Z" fill="white"/>
</g>
<g filter="url(#filter1_bd_396_55682)">
<rect x="152.758" y="28.855" width="155.919" height="48" rx="10.4902" fill="white"/>
<g clip-path="url(#clip1_396_55682)">
<path d="M170.633 64.8098V46.7192H193.797V59.4047L185.193 63.817L177.803 57.6397L170.633 64.8098Z" fill="#C6D0FE"/>
<path fill-rule="evenodd" clip-rule="evenodd" d="M182.215 54.9212C185.462 54.9212 188.095 52.2889 188.095 49.0418C188.095 45.7947 182.215 40.9004 182.215 40.9004C182.215 40.9004 176.336 45.7947 176.336 49.0418C176.336 52.2889 178.968 54.9212 182.215 54.9212ZM182.216 51.2621C183.436 51.2621 184.425 50.2733 184.425 49.0536C184.425 47.8339 183.436 46.8451 182.216 46.8451C180.997 46.8451 180.008 47.8339 180.008 49.0536C180.008 50.2733 180.997 51.2621 182.216 51.2621Z" fill="#1A4CFF"/>
</g>
<path d="M214.548 47.795V58.355H212.516L208.436 51.699L207.412 49.827H207.396L207.46 51.539V58.355H205.892V47.795H207.908L211.972 54.435L213.012 56.339H213.028L212.964 54.611V47.795H214.548ZM221.979 53.219C221.979 52.6856 221.83 52.275 221.531 51.987C221.243 51.6883 220.843 51.539 220.331 51.539C219.851 51.539 219.441 51.651 219.099 51.875C218.758 52.099 218.507 52.4616 218.347 52.963L216.907 52.355C217.11 51.7043 217.505 51.1816 218.091 50.787C218.689 50.3923 219.457 50.195 220.395 50.195C221.035 50.195 221.601 50.3016 222.091 50.515C222.582 50.7176 222.966 51.027 223.243 51.443C223.531 51.859 223.675 52.3923 223.675 53.043V56.611C223.675 57.0056 223.873 57.203 224.267 57.203C224.459 57.203 224.646 57.1763 224.827 57.123L224.731 58.307C224.486 58.4243 224.177 58.483 223.803 58.483C223.462 58.483 223.153 58.4243 222.875 58.307C222.609 58.179 222.395 57.9923 222.235 57.747C222.086 57.491 222.011 57.1763 222.011 56.803V56.691L222.363 56.675C222.267 57.091 222.07 57.4376 221.771 57.715C221.473 57.9816 221.126 58.1843 220.731 58.323C220.337 58.451 219.937 58.515 219.531 58.515C219.03 58.515 218.577 58.435 218.171 58.275C217.777 58.115 217.462 57.875 217.227 57.555C217.003 57.2243 216.891 56.819 216.891 56.339C216.891 55.7416 217.083 55.251 217.467 54.867C217.862 54.483 218.417 54.2216 219.131 54.083L222.235 53.475L222.219 54.675L219.963 55.139C219.515 55.2243 219.179 55.347 218.955 55.507C218.731 55.667 218.619 55.9016 218.619 56.211C218.619 56.5096 218.731 56.7496 218.955 56.931C219.19 57.1016 219.499 57.187 219.883 57.187C220.15 57.187 220.406 57.155 220.651 57.091C220.907 57.027 221.137 56.9256 221.339 56.787C221.542 56.6376 221.697 56.451 221.803 56.227C221.921 55.9923 221.979 55.715 221.979 55.395V53.219ZM231.463 50.355H233.255L230.071 58.355H228.199L224.999 50.355H226.871L229.143 56.867L231.463 50.355ZM235.579 49.011C235.205 49.011 234.917 48.9203 234.715 48.739C234.523 48.547 234.427 48.2803 234.427 47.939C234.427 47.5976 234.523 47.3363 234.715 47.155C234.917 46.9736 235.205 46.883 235.579 46.883C235.941 46.883 236.219 46.9736 236.411 47.155C236.613 47.3363 236.715 47.5976 236.715 47.939C236.715 48.2803 236.613 48.547 236.411 48.739C236.219 48.9203 235.941 49.011 235.579 49.011ZM236.427 50.355V58.355H234.715V50.355H236.427ZM246.145 48.675L246.417 50.019C246.385 50.019 246.353 50.019 246.321 50.019C246.289 50.0083 246.257 50.003 246.225 50.003C245.713 50.003 245.324 50.115 245.057 50.339C244.791 50.5523 244.657 50.867 244.657 51.283L243.825 50.899C243.825 50.4723 243.916 50.0936 244.097 49.763C244.279 49.4216 244.535 49.155 244.865 48.963C245.207 48.771 245.591 48.675 246.017 48.675C246.039 48.675 246.06 48.675 246.081 48.675C246.103 48.675 246.124 48.675 246.145 48.675ZM243.617 57.107C244.428 57.107 245.057 57.2883 245.505 57.651C245.953 58.003 246.177 58.4936 246.177 59.123C246.177 59.6776 246.001 60.1523 245.649 60.547C245.297 60.9523 244.817 61.2616 244.209 61.475C243.612 61.6883 242.924 61.795 242.145 61.795C240.833 61.795 239.863 61.5923 239.233 61.187C238.604 60.7816 238.289 60.275 238.289 59.667C238.289 59.2403 238.439 58.867 238.737 58.547C239.047 58.227 239.564 58.0456 240.289 58.003L240.193 58.259C239.745 58.163 239.383 57.9923 239.105 57.747C238.839 57.491 238.705 57.1336 238.705 56.675C238.705 56.2163 238.881 55.827 239.233 55.507C239.585 55.187 240.081 55.0003 240.721 54.947L241.617 55.379H241.425C240.935 55.4216 240.588 55.5336 240.385 55.715C240.183 55.8963 240.081 56.099 240.081 56.323C240.081 56.5896 240.177 56.787 240.369 56.915C240.572 57.043 240.855 57.107 241.217 57.107H243.617ZM242.145 60.515C242.732 60.515 243.212 60.4563 243.585 60.339C243.969 60.2323 244.252 60.0883 244.433 59.907C244.625 59.7363 244.721 59.5443 244.721 59.331C244.721 59.0856 244.62 58.8883 244.417 58.739C244.225 58.5896 243.873 58.515 243.361 58.515H240.785C240.487 58.515 240.236 58.5896 240.033 58.739C239.831 58.899 239.729 59.1123 239.729 59.379C239.729 59.731 239.943 60.0083 240.369 60.211C240.796 60.4136 241.388 60.515 242.145 60.515ZM242.081 50.195C242.785 50.195 243.393 50.307 243.905 50.531C244.428 50.755 244.828 51.0696 245.105 51.475C245.393 51.8803 245.537 52.355 245.537 52.899C245.537 53.443 245.393 53.9176 245.105 54.323C244.828 54.7283 244.428 55.043 243.905 55.267C243.393 55.491 242.785 55.603 242.081 55.603C240.972 55.603 240.119 55.3576 239.521 54.867C238.935 54.3656 238.641 53.7096 238.641 52.899C238.641 52.355 238.785 51.8803 239.073 51.475C239.361 51.0696 239.761 50.755 240.273 50.531C240.796 50.307 241.399 50.195 242.081 50.195ZM242.081 51.395C241.591 51.395 241.18 51.5336 240.849 51.811C240.529 52.0776 240.369 52.4403 240.369 52.899C240.369 53.3576 240.529 53.7256 240.849 54.003C241.18 54.2803 241.591 54.419 242.081 54.419C242.583 54.419 242.993 54.2803 243.313 54.003C243.644 53.7256 243.809 53.3576 243.809 52.899C243.809 52.4403 243.644 52.0776 243.313 51.811C242.993 51.5336 242.583 51.395 242.081 51.395ZM252.37 53.219C252.37 52.6856 252.221 52.275 251.922 51.987C251.634 51.6883 251.234 51.539 250.722 51.539C250.242 51.539 249.831 51.651 249.49 51.875C249.149 52.099 248.898 52.4616 248.738 52.963L247.298 52.355C247.501 51.7043 247.895 51.1816 248.482 50.787C249.079 50.3923 249.847 50.195 250.786 50.195C251.426 50.195 251.991 50.3016 252.482 50.515C252.973 50.7176 253.357 51.027 253.634 51.443C253.922 51.859 254.066 52.3923 254.066 53.043V56.611C254.066 57.0056 254.263 57.203 254.658 57.203C254.85 57.203 255.037 57.1763 255.218 57.123L255.122 58.307C254.877 58.4243 254.567 58.483 254.194 58.483C253.853 58.483 253.543 58.4243 253.266 58.307C252.999 58.179 252.786 57.9923 252.626 57.747C252.477 57.491 252.402 57.1763 252.402 56.803V56.691L252.754 56.675C252.658 57.091 252.461 57.4376 252.162 57.715C251.863 57.9816 251.517 58.1843 251.122 58.323C250.727 58.451 250.327 58.515 249.922 58.515C249.421 58.515 248.967 58.435 248.562 58.275C248.167 58.115 247.853 57.875 247.618 57.555C247.394 57.2243 247.282 56.819 247.282 56.339C247.282 55.7416 247.474 55.251 247.858 54.867C248.253 54.483 248.807 54.2216 249.522 54.083L252.626 53.475L252.61 54.675L250.354 55.139C249.906 55.2243 249.57 55.347 249.346 55.507C249.122 55.667 249.01 55.9016 249.01 56.211C249.01 56.5096 249.122 56.7496 249.346 56.931C249.581 57.1016 249.89 57.187 250.274 57.187C250.541 57.187 250.797 57.155 251.042 57.091C251.298 57.027 251.527 56.9256 251.73 56.787C251.933 56.6376 252.087 56.451 252.194 56.227C252.311 55.9923 252.37 55.715 252.37 55.395V53.219ZM258.894 48.003V55.955C258.894 56.3496 258.996 56.6376 259.198 56.819C259.412 57.0003 259.694 57.091 260.046 57.091C260.334 57.091 260.585 57.0483 260.798 56.963C261.012 56.867 261.209 56.739 261.39 56.579L261.774 57.827C261.529 58.0403 261.225 58.211 260.862 58.339C260.51 58.4563 260.116 58.515 259.678 58.515C259.22 58.515 258.798 58.4403 258.414 58.291C258.03 58.1416 257.732 57.9016 257.518 57.571C257.305 57.2296 257.193 56.787 257.182 56.243V48.483L258.894 48.003ZM261.646 50.355V51.699H255.646V50.355H261.646ZM264.204 49.011C263.83 49.011 263.542 48.9203 263.34 48.739C263.148 48.547 263.052 48.2803 263.052 47.939C263.052 47.5976 263.148 47.3363 263.34 47.155C263.542 46.9736 263.83 46.883 264.204 46.883C264.566 46.883 264.844 46.9736 265.036 47.155C265.238 47.3363 265.34 47.5976 265.34 47.939C265.34 48.2803 265.238 48.547 265.036 48.739C264.844 48.9203 264.566 49.011 264.204 49.011ZM265.052 50.355V58.355H263.34V50.355H265.052ZM271.202 50.195C271.981 50.195 272.669 50.3603 273.266 50.691C273.864 51.0216 274.328 51.5016 274.658 52.131C275 52.7496 275.17 53.491 275.17 54.355C275.17 55.219 275 55.9656 274.658 56.595C274.328 57.2136 273.864 57.6883 273.266 58.019C272.669 58.3496 271.981 58.515 271.202 58.515C270.424 58.515 269.736 58.3496 269.138 58.019C268.541 57.6883 268.072 57.2136 267.73 56.595C267.389 55.9656 267.218 55.219 267.218 54.355C267.218 53.491 267.389 52.7496 267.73 52.131C268.072 51.5016 268.541 51.0216 269.138 50.691C269.736 50.3603 270.424 50.195 271.202 50.195ZM271.202 51.539C270.722 51.539 270.312 51.651 269.97 51.875C269.64 52.0883 269.384 52.403 269.202 52.819C269.021 53.235 268.93 53.747 268.93 54.355C268.93 54.9523 269.021 55.4643 269.202 55.891C269.384 56.307 269.64 56.627 269.97 56.851C270.312 57.0643 270.722 57.171 271.202 57.171C271.682 57.171 272.088 57.0643 272.418 56.851C272.749 56.627 273.005 56.307 273.186 55.891C273.368 55.4643 273.458 54.9523 273.458 54.355C273.458 53.747 273.368 53.235 273.186 52.819C273.005 52.403 272.749 52.0883 272.418 51.875C272.088 51.651 271.682 51.539 271.202 51.539ZM277.324 58.355V50.355H278.844L278.956 52.435L278.732 52.211C278.881 51.7523 279.095 51.3736 279.372 51.075C279.66 50.7656 279.996 50.5416 280.38 50.403C280.775 50.2643 281.191 50.195 281.628 50.195C282.193 50.195 282.7 50.307 283.148 50.531C283.607 50.7443 283.969 51.0696 284.236 51.507C284.503 51.9443 284.636 52.499 284.636 53.171V58.355H282.924V53.699C282.924 52.9096 282.759 52.3656 282.428 52.067C282.108 51.7576 281.703 51.603 281.212 51.603C280.86 51.603 280.519 51.6883 280.188 51.859C279.857 52.019 279.58 52.2803 279.356 52.643C279.143 53.0056 279.036 53.491 279.036 54.099V58.355H277.324ZM290.27 58.515C289.47 58.515 288.74 58.3603 288.078 58.051C287.417 57.7416 286.894 57.3043 286.51 56.739L287.694 55.715C287.929 56.1523 288.265 56.5043 288.702 56.771C289.15 57.027 289.684 57.155 290.302 57.155C290.793 57.155 291.182 57.0696 291.47 56.899C291.758 56.7283 291.902 56.4883 291.902 56.179C291.902 55.9763 291.833 55.8003 291.694 55.651C291.566 55.491 291.316 55.3683 290.942 55.283L289.262 54.931C288.409 54.7603 287.801 54.4883 287.438 54.115C287.076 53.731 286.894 53.2456 286.894 52.659C286.894 52.2216 287.022 51.8163 287.278 51.443C287.534 51.0696 287.908 50.771 288.398 50.547C288.9 50.3123 289.497 50.195 290.19 50.195C290.99 50.195 291.673 50.339 292.238 50.627C292.804 50.9043 293.236 51.3043 293.534 51.827L292.35 52.819C292.148 52.3923 291.849 52.0776 291.454 51.875C291.06 51.6616 290.649 51.555 290.222 51.555C289.881 51.555 289.588 51.5976 289.342 51.683C289.097 51.7683 288.91 51.8856 288.782 52.035C288.654 52.1843 288.59 52.3603 288.59 52.563C288.59 52.7763 288.67 52.963 288.83 53.123C288.99 53.283 289.278 53.4056 289.694 53.491L291.518 53.875C292.286 54.0243 292.825 54.2803 293.134 54.643C293.454 54.995 293.614 55.427 293.614 55.939C293.614 56.451 293.481 56.9043 293.214 57.299C292.948 57.683 292.564 57.9816 292.062 58.195C291.561 58.4083 290.964 58.515 290.27 58.515Z" fill="#101828"/>
<path d="M229.319 80.1743L221.094 73.5176L230.719 76.8556L240.343 73.5176L232.119 80.1742C231.303 80.835 230.136 80.835 229.319 80.1743Z" fill="white"/>
</g>
<g filter="url(#filter2_bd_396_55682)">
<rect x="35.5117" y="118.9" width="134.919" height="48" rx="10.4902" fill="white"/>
<g clip-path="url(#clip2_396_55682)">
<rect x="52.7344" y="135.119" width="17.061" height="11.6365" fill="#C6D0FE"/>
<path d="M75.0235 137.222L71.0099 137.222V146.755H79.1054L79.1055 141.482L75.0235 137.222Z" fill="#C6D0FE"/>
<circle cx="58.1291" cy="147.621" r="2.95335" fill="#1A4CFF"/>
<circle cx="75.1643" cy="146.863" r="2.95335" fill="#1A4CFF"/>
</g>
<path d="M90.3581 146.928H96.1821V148.4H88.6461V137.84H90.3581V146.928ZM101.269 140.24C102.047 140.24 102.735 140.405 103.333 140.736C103.93 141.067 104.394 141.547 104.725 142.176C105.066 142.795 105.237 143.536 105.237 144.4C105.237 145.264 105.066 146.011 104.725 146.64C104.394 147.259 103.93 147.733 103.333 148.064C102.735 148.395 102.047 148.56 101.269 148.56C100.49 148.56 99.8021 148.395 99.2048 148.064C98.6074 147.733 98.1381 147.259 97.7968 146.64C97.4554 146.011 97.2848 145.264 97.2848 144.4C97.2848 143.536 97.4554 142.795 97.7968 142.176C98.1381 141.547 98.6074 141.067 99.2048 140.736C99.8021 140.405 100.49 140.24 101.269 140.24ZM101.269 141.584C100.789 141.584 100.378 141.696 100.037 141.92C99.7061 142.133 99.4501 142.448 99.2688 142.864C99.0874 143.28 98.9968 143.792 98.9968 144.4C98.9968 144.997 99.0874 145.509 99.2688 145.936C99.4501 146.352 99.7061 146.672 100.037 146.896C100.378 147.109 100.789 147.216 101.269 147.216C101.749 147.216 102.154 147.109 102.485 146.896C102.815 146.672 103.071 146.352 103.253 145.936C103.434 145.509 103.525 144.997 103.525 144.4C103.525 143.792 103.434 143.28 103.253 142.864C103.071 142.448 102.815 142.133 102.485 141.92C102.154 141.696 101.749 141.584 101.269 141.584ZM114.399 138.72L114.671 140.064C114.639 140.064 114.607 140.064 114.575 140.064C114.543 140.053 114.511 140.048 114.479 140.048C113.967 140.048 113.578 140.16 113.311 140.384C113.045 140.597 112.911 140.912 112.911 141.328L112.079 140.944C112.079 140.517 112.17 140.139 112.351 139.808C112.533 139.467 112.789 139.2 113.119 139.008C113.461 138.816 113.845 138.72 114.271 138.72C114.293 138.72 114.314 138.72 114.335 138.72C114.357 138.72 114.378 138.72 114.399 138.72ZM111.871 147.152C112.682 147.152 113.311 147.333 113.759 147.696C114.207 148.048 114.431 148.539 114.431 149.168C114.431 149.723 114.255 150.197 113.903 150.592C113.551 150.997 113.071 151.307 112.463 151.52C111.866 151.733 111.178 151.84 110.399 151.84C109.087 151.84 108.117 151.637 107.487 151.232C106.858 150.827 106.543 150.32 106.543 149.712C106.543 149.285 106.693 148.912 106.991 148.592C107.301 148.272 107.818 148.091 108.543 148.048L108.447 148.304C107.999 148.208 107.637 148.037 107.359 147.792C107.093 147.536 106.959 147.179 106.959 146.72C106.959 146.261 107.135 145.872 107.487 145.552C107.839 145.232 108.335 145.045 108.975 144.992L109.871 145.424H109.679C109.189 145.467 108.842 145.579 108.639 145.76C108.437 145.941 108.335 146.144 108.335 146.368C108.335 146.635 108.431 146.832 108.623 146.96C108.826 147.088 109.109 147.152 109.471 147.152H111.871ZM110.399 150.56C110.986 150.56 111.466 150.501 111.839 150.384C112.223 150.277 112.506 150.133 112.687 149.952C112.879 149.781 112.975 149.589 112.975 149.376C112.975 149.131 112.874 148.933 112.671 148.784C112.479 148.635 112.127 148.56 111.615 148.56H109.039C108.741 148.56 108.49 148.635 108.287 148.784C108.085 148.944 107.983 149.157 107.983 149.424C107.983 149.776 108.197 150.053 108.623 150.256C109.05 150.459 109.642 150.56 110.399 150.56ZM110.335 140.24C111.039 140.24 111.647 140.352 112.159 140.576C112.682 140.8 113.082 141.115 113.359 141.52C113.647 141.925 113.791 142.4 113.791 142.944C113.791 143.488 113.647 143.963 113.359 144.368C113.082 144.773 112.682 145.088 112.159 145.312C111.647 145.536 111.039 145.648 110.335 145.648C109.226 145.648 108.373 145.403 107.775 144.912C107.189 144.411 106.895 143.755 106.895 142.944C106.895 142.4 107.039 141.925 107.327 141.52C107.615 141.115 108.015 140.8 108.527 140.576C109.05 140.352 109.653 140.24 110.335 140.24ZM110.335 141.44C109.845 141.44 109.434 141.579 109.103 141.856C108.783 142.123 108.623 142.485 108.623 142.944C108.623 143.403 108.783 143.771 109.103 144.048C109.434 144.325 109.845 144.464 110.335 144.464C110.837 144.464 111.247 144.325 111.567 144.048C111.898 143.771 112.063 143.403 112.063 142.944C112.063 142.485 111.898 142.123 111.567 141.856C111.247 141.579 110.837 141.44 110.335 141.44ZM116.864 139.056C116.491 139.056 116.203 138.965 116 138.784C115.808 138.592 115.712 138.325 115.712 137.984C115.712 137.643 115.808 137.381 116 137.2C116.203 137.019 116.491 136.928 116.864 136.928C117.227 136.928 117.504 137.019 117.696 137.2C117.899 137.381 118 137.643 118 137.984C118 138.325 117.899 138.592 117.696 138.784C117.504 138.965 117.227 139.056 116.864 139.056ZM117.712 140.4V148.4H116V140.4H117.712ZM123.431 148.56C122.631 148.56 121.9 148.405 121.239 148.096C120.577 147.787 120.055 147.349 119.671 146.784L120.855 145.76C121.089 146.197 121.425 146.549 121.863 146.816C122.311 147.072 122.844 147.2 123.463 147.2C123.953 147.2 124.343 147.115 124.631 146.944C124.919 146.773 125.063 146.533 125.063 146.224C125.063 146.021 124.993 145.845 124.855 145.696C124.727 145.536 124.476 145.413 124.103 145.328L122.423 144.976C121.569 144.805 120.961 144.533 120.599 144.16C120.236 143.776 120.055 143.291 120.055 142.704C120.055 142.267 120.183 141.861 120.439 141.488C120.695 141.115 121.068 140.816 121.559 140.592C122.06 140.357 122.657 140.24 123.351 140.24C124.151 140.24 124.833 140.384 125.399 140.672C125.964 140.949 126.396 141.349 126.695 141.872L125.511 142.864C125.308 142.437 125.009 142.123 124.615 141.92C124.22 141.707 123.809 141.6 123.383 141.6C123.041 141.6 122.748 141.643 122.503 141.728C122.257 141.813 122.071 141.931 121.943 142.08C121.815 142.229 121.751 142.405 121.751 142.608C121.751 142.821 121.831 143.008 121.991 143.168C122.151 143.328 122.439 143.451 122.855 143.536L124.679 143.92C125.447 144.069 125.985 144.325 126.295 144.688C126.615 145.04 126.775 145.472 126.775 145.984C126.775 146.496 126.641 146.949 126.375 147.344C126.108 147.728 125.724 148.027 125.223 148.24C124.721 148.453 124.124 148.56 123.431 148.56ZM131.195 138.048V146C131.195 146.395 131.297 146.683 131.499 146.864C131.713 147.045 131.995 147.136 132.347 147.136C132.635 147.136 132.886 147.093 133.099 147.008C133.313 146.912 133.51 146.784 133.691 146.624L134.075 147.872C133.83 148.085 133.526 148.256 133.163 148.384C132.811 148.501 132.417 148.56 131.979 148.56C131.521 148.56 131.099 148.485 130.715 148.336C130.331 148.187 130.033 147.947 129.819 147.616C129.606 147.275 129.494 146.832 129.483 146.288V138.528L131.195 138.048ZM133.947 140.4V141.744H127.947V140.4H133.947ZM136.505 139.056C136.131 139.056 135.843 138.965 135.641 138.784C135.449 138.592 135.353 138.325 135.353 137.984C135.353 137.643 135.449 137.381 135.641 137.2C135.843 137.019 136.131 136.928 136.505 136.928C136.867 136.928 137.145 137.019 137.337 137.2C137.539 137.381 137.641 137.643 137.641 137.984C137.641 138.325 137.539 138.592 137.337 138.784C137.145 138.965 136.867 139.056 136.505 139.056ZM137.353 140.4V148.4H135.641V140.4H137.353ZM143.487 140.24C144.127 140.24 144.671 140.336 145.119 140.528C145.578 140.709 145.962 140.971 146.271 141.312C146.58 141.653 146.815 142.043 146.975 142.48L145.359 143.12C145.22 142.629 144.996 142.256 144.687 142C144.388 141.733 143.994 141.6 143.503 141.6C143.023 141.6 142.612 141.712 142.271 141.936C141.93 142.149 141.668 142.464 141.487 142.88C141.316 143.296 141.231 143.808 141.231 144.416C141.231 145.013 141.322 145.52 141.503 145.936C141.684 146.352 141.946 146.667 142.287 146.88C142.628 147.093 143.034 147.2 143.503 147.2C143.866 147.2 144.18 147.141 144.447 147.024C144.714 146.896 144.932 146.72 145.103 146.496C145.284 146.261 145.407 145.979 145.471 145.648L147.023 146.176C146.874 146.656 146.639 147.077 146.319 147.44C146.01 147.792 145.62 148.069 145.151 148.272C144.682 148.464 144.143 148.56 143.535 148.56C142.746 148.56 142.047 148.395 141.439 148.064C140.831 147.733 140.356 147.259 140.015 146.64C139.684 146.011 139.519 145.264 139.519 144.4C139.519 143.536 139.684 142.795 140.015 142.176C140.356 141.547 140.826 141.067 141.423 140.736C142.031 140.405 142.719 140.24 143.487 140.24ZM152.056 148.56C151.256 148.56 150.525 148.405 149.864 148.096C149.202 147.787 148.68 147.349 148.296 146.784L149.48 145.76C149.714 146.197 150.05 146.549 150.488 146.816C150.936 147.072 151.469 147.2 152.088 147.2C152.578 147.2 152.968 147.115 153.256 146.944C153.544 146.773 153.688 146.533 153.688 146.224C153.688 146.021 153.618 145.845 153.48 145.696C153.352 145.536 153.101 145.413 152.728 145.328L151.048 144.976C150.194 144.805 149.586 144.533 149.224 144.16C148.861 143.776 148.68 143.291 148.68 142.704C148.68 142.267 148.808 141.861 149.064 141.488C149.32 141.115 149.693 140.816 150.184 140.592C150.685 140.357 151.282 140.24 151.976 140.24C152.776 140.24 153.458 140.384 154.024 140.672C154.589 140.949 155.021 141.349 155.32 141.872L154.136 142.864C153.933 142.437 153.634 142.123 153.24 141.92C152.845 141.707 152.434 141.6 152.008 141.6C151.666 141.6 151.373 141.643 151.128 141.728C150.882 141.813 150.696 141.931 150.568 142.08C150.44 142.229 150.376 142.405 150.376 142.608C150.376 142.821 150.456 143.008 150.616 143.168C150.776 143.328 151.064 143.451 151.48 143.536L153.304 143.92C154.072 144.069 154.61 144.325 154.92 144.688C155.24 145.04 155.4 145.472 155.4 145.984C155.4 146.496 155.266 146.949 155 147.344C154.733 147.728 154.349 148.027 153.848 148.24C153.346 148.453 152.749 148.56 152.056 148.56Z" fill="#101828"/>
<path d="M101.573 170.219L93.3477 163.562L102.973 166.901L112.597 163.562L104.373 170.219C103.557 170.88 102.39 170.88 101.573 170.219Z" fill="white"/>
</g>
<g filter="url(#filter3_bd_396_55682)">
<rect x="153.883" y="175.162" width="147.183" height="66" rx="10.4902" fill="white"/>
<path fill-rule="evenodd" clip-rule="evenodd" d="M177.09 215.883C182.533 215.883 186.945 211.471 186.945 206.028C186.945 200.585 177.09 192.381 177.09 192.381C177.09 192.381 167.234 200.585 167.234 206.028C167.234 211.471 171.647 215.883 177.09 215.883ZM177.09 209.749C179.134 209.749 180.792 208.092 180.792 206.047C180.792 204.003 179.134 202.345 177.09 202.345C175.045 202.345 173.388 204.003 173.388 206.047C173.388 208.092 175.045 209.749 177.09 209.749Z" fill="#1A4CFF"/>
<rect x="169.352" y="218.488" width="15.4747" height="5.45464" fill="#1A4CFF"/>
<path d="M195.856 214.117H205.403V217.162H192.07V199.056H195.856V214.117ZM214.175 203.171C215.565 203.171 216.782 203.454 217.824 204.021C218.885 204.588 219.708 205.402 220.293 206.463C220.896 207.524 221.198 208.804 221.198 210.303C221.198 211.785 220.896 213.065 220.293 214.144C219.708 215.205 218.885 216.019 217.824 216.586C216.782 217.152 215.565 217.436 214.175 217.436C212.804 217.436 211.588 217.152 210.527 216.586C209.466 216.019 208.634 215.205 208.03 214.144C207.445 213.065 207.153 211.785 207.153 210.303C207.153 208.804 207.445 207.524 208.03 206.463C208.634 205.402 209.466 204.588 210.527 204.021C211.588 203.454 212.804 203.171 214.175 203.171ZM214.175 205.969C213.48 205.969 212.886 206.134 212.392 206.463C211.917 206.774 211.551 207.249 211.295 207.889C211.039 208.529 210.911 209.334 210.911 210.303C210.911 211.273 211.039 212.077 211.295 212.718C211.551 213.358 211.917 213.842 212.392 214.171C212.886 214.482 213.48 214.638 214.175 214.638C214.852 214.638 215.428 214.482 215.904 214.171C216.398 213.842 216.772 213.358 217.028 212.718C217.285 212.077 217.413 211.273 217.413 210.303C217.413 209.334 217.285 208.529 217.028 207.889C216.772 207.249 216.398 206.774 215.904 206.463C215.428 206.134 214.852 205.969 214.175 205.969ZM230.57 203.171C231.796 203.171 232.829 203.354 233.67 203.72C234.53 204.067 235.216 204.552 235.728 205.173C236.258 205.777 236.633 206.454 236.852 207.204L233.341 208.465C233.158 207.642 232.847 207.021 232.408 206.6C231.969 206.179 231.375 205.969 230.625 205.969C229.93 205.969 229.336 206.134 228.842 206.463C228.348 206.774 227.973 207.258 227.717 207.917C227.461 208.557 227.333 209.362 227.333 210.331C227.333 211.3 227.461 212.105 227.717 212.745C227.992 213.385 228.376 213.861 228.869 214.171C229.381 214.482 229.976 214.638 230.653 214.638C231.201 214.638 231.668 214.546 232.052 214.363C232.436 214.162 232.747 213.879 232.984 213.513C233.24 213.147 233.414 212.708 233.506 212.196L236.907 213.294C236.706 214.117 236.331 214.839 235.782 215.461C235.234 216.083 234.53 216.567 233.67 216.915C232.811 217.262 231.814 217.436 230.68 217.436C229.272 217.436 228.028 217.152 226.949 216.586C225.87 216.019 225.038 215.205 224.453 214.144C223.867 213.083 223.575 211.803 223.575 210.303C223.575 208.804 223.867 207.524 224.453 206.463C225.038 205.402 225.861 204.588 226.922 204.021C227.982 203.454 229.199 203.171 230.57 203.171ZM246.082 203.171C247.472 203.171 248.688 203.454 249.731 204.021C250.792 204.588 251.614 205.402 252.2 206.463C252.803 207.524 253.105 208.804 253.105 210.303C253.105 211.785 252.803 213.065 252.2 214.144C251.614 215.205 250.792 216.019 249.731 216.586C248.688 217.152 247.472 217.436 246.082 217.436C244.711 217.436 243.494 217.152 242.434 216.586C241.373 216.019 240.541 215.205 239.937 214.144C239.352 213.065 239.059 211.785 239.059 210.303C239.059 208.804 239.352 207.524 239.937 206.463C240.541 205.402 241.373 204.588 242.434 204.021C243.494 203.454 244.711 203.171 246.082 203.171ZM246.082 205.969C245.387 205.969 244.793 206.134 244.299 206.463C243.824 206.774 243.458 207.249 243.202 207.889C242.946 208.529 242.818 209.334 242.818 210.303C242.818 211.273 242.946 212.077 243.202 212.718C243.458 213.358 243.824 213.842 244.299 214.171C244.793 214.482 245.387 214.638 246.082 214.638C246.759 214.638 247.335 214.482 247.81 214.171C248.304 213.842 248.679 213.358 248.935 212.718C249.191 212.077 249.319 211.273 249.319 210.303C249.319 209.334 249.191 208.529 248.935 207.889C248.679 207.249 248.304 206.774 247.81 206.463C247.335 206.134 246.759 205.969 246.082 205.969ZM261.435 217.436C260.301 217.436 259.286 217.152 258.389 216.586C257.512 216.019 256.817 215.205 256.305 214.144C255.811 213.083 255.564 211.812 255.564 210.331C255.564 208.813 255.829 207.524 256.359 206.463C256.89 205.384 257.603 204.57 258.499 204.021C259.414 203.454 260.438 203.171 261.572 203.171C262.779 203.171 263.775 203.518 264.562 204.213C265.348 204.908 265.86 205.804 266.098 206.902L265.741 207.341V197.437H269.5V217.162H266.126L265.879 212.992L266.345 213.211C266.217 214.071 265.924 214.821 265.467 215.461C265.01 216.083 264.434 216.567 263.739 216.915C263.044 217.262 262.276 217.436 261.435 217.436ZM262.532 214.556C263.19 214.556 263.757 214.391 264.233 214.062C264.708 213.714 265.074 213.211 265.33 212.553C265.604 211.895 265.741 211.108 265.741 210.194C265.741 209.316 265.613 208.575 265.357 207.972C265.101 207.35 264.736 206.874 264.26 206.545C263.785 206.216 263.227 206.051 262.587 206.051C261.563 206.051 260.758 206.417 260.173 207.149C259.606 207.862 259.322 208.913 259.322 210.303C259.322 211.693 259.606 212.754 260.173 213.486C260.74 214.199 261.526 214.556 262.532 214.556ZM279.813 217.436C278.368 217.436 277.107 217.152 276.027 216.586C274.967 216.019 274.144 215.205 273.559 214.144C272.973 213.083 272.681 211.803 272.681 210.303C272.681 208.804 272.973 207.524 273.559 206.463C274.144 205.402 274.958 204.588 276 204.021C277.061 203.454 278.268 203.171 279.621 203.171C281.011 203.171 282.191 203.454 283.16 204.021C284.129 204.57 284.87 205.329 285.382 206.298C285.894 207.249 286.15 208.337 286.15 209.563C286.15 209.928 286.141 210.276 286.123 210.605C286.104 210.934 286.077 211.227 286.04 211.483H275.095V208.877H284.395L282.584 209.535C282.584 208.383 282.319 207.496 281.788 206.874C281.276 206.252 280.545 205.942 279.594 205.942C278.899 205.942 278.295 206.106 277.783 206.435C277.289 206.765 276.914 207.258 276.658 207.917C276.402 208.557 276.274 209.371 276.274 210.358C276.274 211.328 276.412 212.132 276.686 212.772C276.978 213.394 277.381 213.861 277.893 214.171C278.423 214.482 279.054 214.638 279.786 214.638C280.59 214.638 281.24 214.482 281.734 214.171C282.227 213.861 282.611 213.431 282.886 212.882L285.876 214.034C285.583 214.748 285.135 215.36 284.532 215.872C283.946 216.384 283.242 216.778 282.419 217.052C281.615 217.308 280.746 217.436 279.813 217.436Z" fill="#111019"/>
</g>
<g filter="url(#filter4_bd_396_55682)">
<rect x="33.9844" y="272.783" width="130.919" height="48" rx="10.4902" fill="white"/>
<g clip-path="url(#clip3_396_55682)">
<rect width="15.1033" height="10.2529" transform="matrix(0 -1 -1 0 74.1484 304.688)" fill="#C6D0FE"/>
<path d="M78.0392 294.761L74.1492 289.478H63.8963L67.7863 294.761H78.0392Z" fill="#1A4CFF"/>
<rect x="52.5234" y="304.688" width="15.1033" height="10.2529" transform="rotate(-90 52.5234 304.688)" fill="#C6D0FE"/>
<path d="M48.6327 294.761L52.5227 289.478H62.7756L58.8856 294.761H48.6327Z" fill="#1A4CFF"/>
</g>
<path d="M90.7188 291.563C91.6681 291.563 92.4894 291.744 93.1828 292.107C93.8761 292.459 94.4628 292.981 94.9428 293.675L93.7908 294.779C93.3854 294.16 92.9268 293.717 92.4148 293.451C91.9134 293.173 91.3161 293.035 90.6228 293.035C90.1108 293.035 89.6894 293.104 89.3588 293.243C89.0281 293.381 88.7828 293.568 88.6228 293.803C88.4734 294.027 88.3988 294.283 88.3988 294.571C88.3988 294.901 88.5108 295.189 88.7348 295.435C88.9694 295.68 89.4014 295.872 90.0308 296.011L92.1748 296.491C93.1988 296.715 93.9241 297.056 94.3508 297.515C94.7774 297.973 94.9908 298.555 94.9908 299.259C94.9908 299.909 94.8148 300.475 94.4628 300.955C94.1108 301.435 93.6201 301.803 92.9908 302.059C92.3721 302.315 91.6414 302.443 90.7988 302.443C90.0521 302.443 89.3801 302.347 88.7828 302.155C88.1854 301.963 87.6628 301.701 87.2148 301.371C86.7668 301.04 86.3988 300.661 86.1108 300.235L87.2948 299.051C87.5188 299.424 87.8014 299.76 88.1428 300.059C88.4841 300.347 88.8788 300.571 89.3268 300.731C89.7854 300.891 90.2921 300.971 90.8468 300.971C91.3374 300.971 91.7588 300.912 92.1108 300.795C92.4734 300.677 92.7454 300.507 92.9268 300.283C93.1188 300.048 93.2148 299.771 93.2148 299.451C93.2148 299.141 93.1081 298.869 92.8948 298.635C92.6921 298.4 92.3081 298.219 91.7428 298.091L89.4228 297.563C88.7828 297.424 88.2548 297.227 87.8388 296.971C87.4228 296.715 87.1134 296.405 86.9108 296.043C86.7081 295.669 86.6068 295.253 86.6068 294.795C86.6068 294.197 86.7668 293.659 87.0868 293.179C87.4174 292.688 87.8921 292.299 88.5108 292.011C89.1294 291.712 89.8654 291.563 90.7188 291.563ZM100.664 302.443C99.8644 302.443 99.1604 302.277 98.5524 301.947C97.9444 301.616 97.4697 301.141 97.1284 300.523C96.7977 299.893 96.6324 299.147 96.6324 298.283C96.6324 297.419 96.7977 296.677 97.1284 296.059C97.4697 295.429 97.9391 294.949 98.5364 294.619C99.1337 294.288 99.8111 294.123 100.568 294.123C101.347 294.123 102.008 294.283 102.552 294.603C103.096 294.923 103.512 295.36 103.8 295.915C104.088 296.469 104.232 297.099 104.232 297.803C104.232 297.995 104.227 298.176 104.216 298.347C104.206 298.517 104.19 298.667 104.168 298.795H97.7364V297.483H103.416L102.568 297.739C102.568 297.013 102.387 296.459 102.024 296.075C101.662 295.68 101.166 295.483 100.536 295.483C100.078 295.483 99.6777 295.589 99.3364 295.803C98.9951 296.016 98.7337 296.336 98.5524 296.763C98.3711 297.179 98.2804 297.691 98.2804 298.299C98.2804 298.896 98.3764 299.403 98.5684 299.819C98.7604 300.235 99.0324 300.549 99.3844 300.763C99.7364 300.976 100.152 301.083 100.632 301.083C101.166 301.083 101.598 300.981 101.928 300.779C102.259 300.576 102.52 300.293 102.712 299.931L104.072 300.571C103.88 300.955 103.619 301.291 103.288 301.579C102.968 301.856 102.584 302.069 102.136 302.219C101.688 302.368 101.198 302.443 100.664 302.443ZM106.394 302.283V294.283H107.85L108.01 295.723C108.224 295.2 108.538 294.805 108.954 294.539C109.381 294.261 109.904 294.123 110.522 294.123C110.682 294.123 110.842 294.139 111.002 294.171C111.162 294.192 111.296 294.229 111.402 294.283L111.162 295.787C111.045 295.744 110.912 295.712 110.762 295.691C110.624 295.659 110.432 295.643 110.186 295.643C109.856 295.643 109.53 295.733 109.21 295.915C108.89 296.085 108.624 296.347 108.41 296.699C108.208 297.051 108.106 297.499 108.106 298.043V302.283H106.394ZM118.283 294.283H120.075L116.891 302.283H115.019L111.819 294.283H113.691L115.963 300.795L118.283 294.283ZM122.399 292.939C122.026 292.939 121.738 292.848 121.535 292.667C121.343 292.475 121.247 292.208 121.247 291.867C121.247 291.525 121.343 291.264 121.535 291.083C121.738 290.901 122.026 290.811 122.399 290.811C122.762 290.811 123.039 290.901 123.231 291.083C123.434 291.264 123.535 291.525 123.535 291.867C123.535 292.208 123.434 292.475 123.231 292.667C123.039 292.848 122.762 292.939 122.399 292.939ZM123.247 294.283V302.283H121.535V294.283H123.247ZM129.382 294.123C130.022 294.123 130.566 294.219 131.014 294.411C131.472 294.592 131.856 294.853 132.166 295.195C132.475 295.536 132.71 295.925 132.87 296.363L131.254 297.003C131.115 296.512 130.891 296.139 130.582 295.883C130.283 295.616 129.888 295.483 129.398 295.483C128.918 295.483 128.507 295.595 128.166 295.819C127.824 296.032 127.563 296.347 127.382 296.763C127.211 297.179 127.126 297.691 127.126 298.299C127.126 298.896 127.216 299.403 127.398 299.819C127.579 300.235 127.84 300.549 128.182 300.763C128.523 300.976 128.928 301.083 129.398 301.083C129.76 301.083 130.075 301.024 130.342 300.907C130.608 300.779 130.827 300.603 130.998 300.379C131.179 300.144 131.302 299.861 131.366 299.531L132.918 300.059C132.768 300.539 132.534 300.96 132.214 301.323C131.904 301.675 131.515 301.952 131.046 302.155C130.576 302.347 130.038 302.443 129.43 302.443C128.64 302.443 127.942 302.277 127.334 301.947C126.726 301.616 126.251 301.141 125.91 300.523C125.579 299.893 125.414 299.147 125.414 298.283C125.414 297.419 125.579 296.677 125.91 296.059C126.251 295.429 126.72 294.949 127.318 294.619C127.926 294.288 128.614 294.123 129.382 294.123ZM138.43 302.443C137.63 302.443 136.926 302.277 136.318 301.947C135.71 301.616 135.235 301.141 134.894 300.523C134.563 299.893 134.398 299.147 134.398 298.283C134.398 297.419 134.563 296.677 134.894 296.059C135.235 295.429 135.705 294.949 136.302 294.619C136.899 294.288 137.577 294.123 138.334 294.123C139.113 294.123 139.774 294.283 140.318 294.603C140.862 294.923 141.278 295.36 141.566 295.915C141.854 296.469 141.998 297.099 141.998 297.803C141.998 297.995 141.993 298.176 141.982 298.347C141.971 298.517 141.955 298.667 141.934 298.795H135.502V297.483H141.182L140.334 297.739C140.334 297.013 140.153 296.459 139.79 296.075C139.427 295.68 138.931 295.483 138.302 295.483C137.843 295.483 137.443 295.589 137.102 295.803C136.761 296.016 136.499 296.336 136.318 296.763C136.137 297.179 136.046 297.691 136.046 298.299C136.046 298.896 136.142 299.403 136.334 299.819C136.526 300.235 136.798 300.549 137.15 300.763C137.502 300.976 137.918 301.083 138.398 301.083C138.931 301.083 139.363 300.981 139.694 300.779C140.025 300.576 140.286 300.293 140.478 299.931L141.838 300.571C141.646 300.955 141.385 301.291 141.054 301.579C140.734 301.856 140.35 302.069 139.902 302.219C139.454 302.368 138.963 302.443 138.43 302.443ZM147.2 302.443C146.4 302.443 145.669 302.288 145.008 301.979C144.347 301.669 143.824 301.232 143.44 300.667L144.624 299.643C144.859 300.08 145.195 300.432 145.632 300.699C146.08 300.955 146.613 301.083 147.232 301.083C147.723 301.083 148.112 300.997 148.4 300.827C148.688 300.656 148.832 300.416 148.832 300.107C148.832 299.904 148.763 299.728 148.624 299.579C148.496 299.419 148.245 299.296 147.872 299.211L146.192 298.859C145.339 298.688 144.731 298.416 144.368 298.043C144.005 297.659 143.824 297.173 143.824 296.587C143.824 296.149 143.952 295.744 144.208 295.371C144.464 294.997 144.837 294.699 145.328 294.475C145.829 294.24 146.427 294.123 147.12 294.123C147.92 294.123 148.603 294.267 149.168 294.555C149.733 294.832 150.165 295.232 150.464 295.755L149.28 296.747C149.077 296.32 148.779 296.005 148.384 295.803C147.989 295.589 147.579 295.483 147.152 295.483C146.811 295.483 146.517 295.525 146.272 295.611C146.027 295.696 145.84 295.813 145.712 295.963C145.584 296.112 145.52 296.288 145.52 296.491C145.52 296.704 145.6 296.891 145.76 297.051C145.92 297.211 146.208 297.333 146.624 297.419L148.448 297.803C149.216 297.952 149.755 298.208 150.064 298.571C150.384 298.923 150.544 299.355 150.544 299.867C150.544 300.379 150.411 300.832 150.144 301.227C149.877 301.611 149.493 301.909 148.992 302.123C148.491 302.336 147.893 302.443 147.2 302.443Z" fill="#101828"/>
<path d="M98.0459 324.102L89.8203 317.445L99.4454 320.783L109.07 317.445L100.846 324.102C100.03 324.763 98.8623 324.763 98.0459 324.102Z" fill="white"/>
</g>
<g filter="url(#filter5_bd_396_55682)">
<rect x="267.121" y="287.283" width="134.919" height="48" rx="10.4902" fill="white"/>
<path d="M293.609 307.166H293.869C294.001 307.166 294.129 307.219 294.222 307.313C294.316 307.406 294.369 307.534 294.369 307.666C294.369 307.799 294.316 307.926 294.222 308.02C294.129 308.114 294.001 308.167 293.869 308.167H293.609V307.166Z" fill="#C6D0FE"/>
<path d="M291.103 307.166H290.844C290.711 307.166 290.584 307.219 290.49 307.313C290.396 307.406 290.344 307.534 290.344 307.666C290.344 307.799 290.396 307.926 290.49 308.02C290.584 308.114 290.711 308.167 290.844 308.167H291.103V307.166Z" fill="#C6D0FE"/>
<path d="M292.352 304.818H292.352C291.547 304.818 290.895 305.471 290.895 306.276V308.282C290.895 309.087 291.547 309.739 292.352 309.739H292.352C293.157 309.739 293.809 309.087 293.809 308.282V306.276C293.809 305.471 293.157 304.818 292.352 304.818Z" fill="#C6D0FE"/>
<path d="M293.681 307.166L293.608 306.296C293.608 306.26 293.599 306.226 293.582 306.195C293.565 306.164 293.54 306.138 293.511 306.119L293.507 306.116C293.463 306.08 293.427 306.036 293.401 305.986C293.375 305.936 293.359 305.881 293.355 305.824L293.343 305.653C293.337 305.561 293.301 305.474 293.239 305.406C293.14 305.303 293.014 305.231 292.876 305.197C292.53 305.113 292.17 305.113 291.824 305.197C291.686 305.231 291.56 305.303 291.461 305.406C291.4 305.474 291.363 305.561 291.357 305.653L291.345 305.83C291.341 305.885 291.326 305.938 291.301 305.987C291.276 306.037 291.242 306.081 291.2 306.116L291.196 306.12C291.167 306.139 291.143 306.164 291.127 306.195C291.11 306.225 291.102 306.259 291.102 306.294L291.028 307.166H290.789V306.237C290.789 306.032 290.829 305.829 290.908 305.64C290.986 305.45 291.101 305.278 291.246 305.133C291.391 304.988 291.563 304.873 291.752 304.795C291.942 304.717 292.145 304.676 292.35 304.676C292.555 304.676 292.758 304.717 292.947 304.795C293.136 304.873 293.308 304.988 293.453 305.133C293.598 305.278 293.713 305.45 293.792 305.64C293.87 305.829 293.91 306.032 293.91 306.237V307.166H293.681Z" fill="#1A4CFF"/>
<path d="M299.705 317.889C299.705 313.827 296.412 310.535 292.351 310.535C288.289 310.535 284.996 313.827 284.996 317.889" fill="#C6D0FE"/>
<path d="M299.705 317.889C299.705 313.827 296.412 310.535 292.351 310.535C288.289 310.535 284.996 313.827 284.996 317.889" stroke="#E8EDFF" stroke-width="0.596568" stroke-miterlimit="10"/>
<path d="M297.157 303.438C297.401 302.575 298.19 301.979 299.087 301.979H299.191C300.089 301.979 300.877 302.575 301.121 303.438L302.337 307.736C302.7 309.016 301.738 310.288 300.408 310.288H297.871C296.54 310.288 295.579 309.016 295.941 307.736L297.157 303.438Z" fill="#1A4CFF"/>
<path d="M300.766 305.204H301.101C301.273 305.204 301.438 305.272 301.559 305.394C301.681 305.515 301.749 305.68 301.749 305.852C301.749 306.024 301.681 306.189 301.559 306.31C301.438 306.432 301.273 306.5 301.101 306.5H300.766V305.204Z" fill="#C6D0FE"/>
<path d="M297.523 305.204H297.187C297.015 305.204 296.85 305.272 296.729 305.394C296.607 305.515 296.539 305.68 296.539 305.852C296.539 306.024 296.607 306.189 296.729 306.31C296.85 306.432 297.015 306.5 297.187 306.5H297.523V305.204Z" fill="#C6D0FE"/>
<path d="M299.137 302.163H299.137C298.095 302.163 297.25 303.008 297.25 304.05V306.649C297.25 307.691 298.095 308.536 299.137 308.536H299.137C300.18 308.536 301.025 307.691 301.025 306.649V304.05C301.025 303.008 300.18 302.163 299.137 302.163Z" fill="#C6D0FE"/>
<path d="M300.863 305.204L300.767 304.076C300.767 304.03 300.756 303.986 300.734 303.946C300.712 303.906 300.68 303.872 300.642 303.848L300.637 303.844C300.58 303.797 300.533 303.74 300.5 303.675C300.466 303.61 300.446 303.539 300.44 303.466L300.424 303.244C300.417 303.125 300.37 303.012 300.289 302.924C300.161 302.791 299.999 302.698 299.82 302.654C299.372 302.545 298.905 302.545 298.458 302.654C298.279 302.698 298.116 302.791 297.988 302.924C297.908 303.012 297.86 303.125 297.853 303.244L297.837 303.472C297.831 303.544 297.812 303.613 297.78 303.677C297.748 303.741 297.703 303.798 297.649 303.844L297.644 303.848C297.606 303.873 297.576 303.906 297.554 303.946C297.533 303.985 297.522 304.029 297.522 304.074L297.426 305.204H297.117V304C297.117 303.735 297.169 303.472 297.271 303.227C297.373 302.981 297.521 302.759 297.709 302.571C297.897 302.383 298.12 302.234 298.365 302.133C298.61 302.031 298.873 301.979 299.138 301.979C299.404 301.979 299.666 302.031 299.912 302.133C300.157 302.234 300.38 302.383 300.567 302.571C300.755 302.759 300.904 302.981 301.005 303.227C301.107 303.472 301.159 303.735 301.159 304V305.204H300.863Z" fill="#1A4CFF"/>
<path d="M308.662 319.09C308.662 313.83 304.397 309.565 299.138 309.565C293.878 309.565 289.613 313.83 289.613 319.09" fill="#C6D0FE"/>
<path d="M308.662 319.09C308.662 313.83 304.397 309.565 299.138 309.565C293.878 309.565 289.613 313.83 289.613 319.09" stroke="#E8EDFF" stroke-width="0.596568" stroke-miterlimit="10"/>
<path fill-rule="evenodd" clip-rule="evenodd" d="M301.068 303.281C301.039 303.296 301.006 303.305 300.97 303.305C300.849 303.306 300.752 303.409 300.76 303.53C300.77 303.675 300.633 303.786 300.493 303.748C300.375 303.715 300.255 303.789 300.23 303.908C300.2 304.05 300.038 304.12 299.914 304.045C299.809 303.982 299.673 304.02 299.617 304.128C299.55 304.257 299.375 304.281 299.276 304.175C299.192 304.086 299.051 304.086 298.968 304.175C298.868 304.281 298.694 304.257 298.626 304.128C298.57 304.02 298.434 303.982 298.329 304.045C298.205 304.12 298.044 304.05 298.013 303.908C297.988 303.789 297.868 303.715 297.75 303.748C297.61 303.786 297.473 303.675 297.483 303.53C297.491 303.409 297.394 303.306 297.273 303.305C297.248 303.305 297.225 303.301 297.203 303.293C297.491 302.509 298.24 301.979 299.086 301.979H299.19C300.032 301.979 300.777 302.504 301.068 303.281Z" fill="#1A4CFF"/>
<path d="M320.256 316.783V306.223H324.416C325.685 306.223 326.613 306.479 327.2 306.991C327.786 307.503 328.08 308.212 328.08 309.119C328.08 309.673 327.92 310.169 327.6 310.607C327.28 311.033 326.81 311.305 326.192 311.423V311.439C326.874 311.545 327.402 311.828 327.776 312.287C328.16 312.735 328.352 313.257 328.352 313.855C328.352 314.761 328.021 315.476 327.36 315.999C326.698 316.521 325.738 316.783 324.48 316.783H320.256ZM321.936 315.359H324.56C325.232 315.359 325.733 315.22 326.064 314.943C326.405 314.665 326.576 314.276 326.576 313.775C326.576 313.273 326.405 312.884 326.064 312.607C325.733 312.329 325.232 312.191 324.56 312.191H321.936V315.359ZM321.936 310.767H324.288C325.632 310.767 326.304 310.249 326.304 309.215C326.304 308.18 325.632 307.663 324.288 307.663H321.936V310.767ZM333.457 316.943C332.935 316.943 332.449 316.847 332.001 316.655C331.564 316.463 331.212 316.153 330.945 315.727C330.679 315.3 330.545 314.745 330.545 314.063V308.783H332.257V313.631C332.257 314.356 332.412 314.857 332.721 315.135C333.031 315.401 333.463 315.535 334.017 315.535C334.284 315.535 334.54 315.492 334.785 315.407C335.041 315.311 335.271 315.167 335.473 314.975C335.676 314.772 335.831 314.516 335.937 314.207C336.055 313.897 336.113 313.535 336.113 313.119V308.783H337.825V316.783H336.321L336.241 315.487C335.964 315.988 335.591 316.356 335.121 316.591C334.652 316.825 334.097 316.943 333.457 316.943ZM343.54 316.943C342.74 316.943 342.009 316.788 341.348 316.479C340.687 316.169 340.164 315.732 339.78 315.167L340.964 314.143C341.199 314.58 341.535 314.932 341.972 315.199C342.42 315.455 342.953 315.583 343.572 315.583C344.063 315.583 344.452 315.497 344.74 315.327C345.028 315.156 345.172 314.916 345.172 314.607C345.172 314.404 345.103 314.228 344.964 314.079C344.836 313.919 344.585 313.796 344.212 313.711L342.532 313.359C341.679 313.188 341.071 312.916 340.708 312.543C340.345 312.159 340.164 311.673 340.164 311.087C340.164 310.649 340.292 310.244 340.548 309.871C340.804 309.497 341.177 309.199 341.668 308.975C342.169 308.74 342.767 308.623 343.46 308.623C344.26 308.623 344.943 308.767 345.508 309.055C346.073 309.332 346.505 309.732 346.804 310.255L345.62 311.247C345.417 310.82 345.119 310.505 344.724 310.303C344.329 310.089 343.919 309.983 343.492 309.983C343.151 309.983 342.857 310.025 342.612 310.111C342.367 310.196 342.18 310.313 342.052 310.463C341.924 310.612 341.86 310.788 341.86 310.991C341.86 311.204 341.94 311.391 342.1 311.551C342.26 311.711 342.548 311.833 342.964 311.919L344.788 312.303C345.556 312.452 346.095 312.708 346.404 313.071C346.724 313.423 346.884 313.855 346.884 314.367C346.884 314.879 346.751 315.332 346.484 315.727C346.217 316.111 345.833 316.409 345.332 316.623C344.831 316.836 344.233 316.943 343.54 316.943ZM349.833 307.439C349.459 307.439 349.171 307.348 348.969 307.167C348.777 306.975 348.681 306.708 348.681 306.367C348.681 306.025 348.777 305.764 348.969 305.583C349.171 305.401 349.459 305.311 349.833 305.311C350.195 305.311 350.473 305.401 350.665 305.583C350.867 305.764 350.969 306.025 350.969 306.367C350.969 306.708 350.867 306.975 350.665 307.167C350.473 307.348 350.195 307.439 349.833 307.439ZM350.681 308.783V316.783H348.969V308.783H350.681ZM353.359 316.783V308.783H354.879L354.991 310.863L354.767 310.639C354.917 310.18 355.13 309.801 355.407 309.503C355.695 309.193 356.031 308.969 356.415 308.831C356.81 308.692 357.226 308.623 357.663 308.623C358.229 308.623 358.735 308.735 359.183 308.959C359.642 309.172 360.005 309.497 360.271 309.935C360.538 310.372 360.671 310.927 360.671 311.599V316.783H358.959V312.127C358.959 311.337 358.794 310.793 358.463 310.495C358.143 310.185 357.738 310.031 357.247 310.031C356.895 310.031 356.554 310.116 356.223 310.287C355.893 310.447 355.615 310.708 355.391 311.071C355.178 311.433 355.071 311.919 355.071 312.527V316.783H353.359ZM366.786 316.943C365.986 316.943 365.282 316.777 364.674 316.447C364.066 316.116 363.591 315.641 363.25 315.023C362.919 314.393 362.754 313.647 362.754 312.783C362.754 311.919 362.919 311.177 363.25 310.559C363.591 309.929 364.06 309.449 364.658 309.119C365.255 308.788 365.932 308.623 366.69 308.623C367.468 308.623 368.13 308.783 368.674 309.103C369.218 309.423 369.634 309.86 369.922 310.415C370.21 310.969 370.354 311.599 370.354 312.303C370.354 312.495 370.348 312.676 370.338 312.847C370.327 313.017 370.311 313.167 370.29 313.295H363.858V311.983H369.538L368.69 312.239C368.69 311.513 368.508 310.959 368.146 310.575C367.783 310.18 367.287 309.983 366.658 309.983C366.199 309.983 365.799 310.089 365.458 310.303C365.116 310.516 364.855 310.836 364.674 311.263C364.492 311.679 364.402 312.191 364.402 312.799C364.402 313.396 364.498 313.903 364.69 314.319C364.882 314.735 365.154 315.049 365.506 315.263C365.858 315.476 366.274 315.583 366.754 315.583C367.287 315.583 367.719 315.481 368.05 315.279C368.38 315.076 368.642 314.793 368.834 314.431L370.194 315.071C370.002 315.455 369.74 315.791 369.41 316.079C369.09 316.356 368.706 316.569 368.258 316.719C367.81 316.868 367.319 316.943 366.786 316.943ZM375.556 316.943C374.756 316.943 374.025 316.788 373.364 316.479C372.702 316.169 372.18 315.732 371.796 315.167L372.98 314.143C373.214 314.58 373.55 314.932 373.988 315.199C374.436 315.455 374.969 315.583 375.588 315.583C376.078 315.583 376.468 315.497 376.756 315.327C377.044 315.156 377.188 314.916 377.188 314.607C377.188 314.404 377.118 314.228 376.98 314.079C376.852 313.919 376.601 313.796 376.228 313.711L374.548 313.359C373.694 313.188 373.086 312.916 372.724 312.543C372.361 312.159 372.18 311.673 372.18 311.087C372.18 310.649 372.308 310.244 372.564 309.871C372.82 309.497 373.193 309.199 373.684 308.975C374.185 308.74 374.782 308.623 375.476 308.623C376.276 308.623 376.958 308.767 377.524 309.055C378.089 309.332 378.521 309.732 378.82 310.255L377.636 311.247C377.433 310.82 377.134 310.505 376.74 310.303C376.345 310.089 375.934 309.983 375.508 309.983C375.166 309.983 374.873 310.025 374.628 310.111C374.382 310.196 374.196 310.313 374.068 310.463C373.94 310.612 373.876 310.788 373.876 310.991C373.876 311.204 373.956 311.391 374.116 311.551C374.276 311.711 374.564 311.833 374.98 311.919L376.804 312.303C377.572 312.452 378.11 312.708 378.42 313.071C378.74 313.423 378.9 313.855 378.9 314.367C378.9 314.879 378.766 315.332 378.5 315.727C378.233 316.111 377.849 316.409 377.348 316.623C376.846 316.836 376.249 316.943 375.556 316.943ZM384.024 316.943C383.224 316.943 382.494 316.788 381.832 316.479C381.171 316.169 380.648 315.732 380.264 315.167L381.448 314.143C381.683 314.58 382.019 314.932 382.456 315.199C382.904 315.455 383.438 315.583 384.056 315.583C384.547 315.583 384.936 315.497 385.224 315.327C385.512 315.156 385.656 314.916 385.656 314.607C385.656 314.404 385.587 314.228 385.448 314.079C385.32 313.919 385.07 313.796 384.696 313.711L383.016 313.359C382.163 313.188 381.555 312.916 381.192 312.543C380.83 312.159 380.648 311.673 380.648 311.087C380.648 310.649 380.776 310.244 381.032 309.871C381.288 309.497 381.662 309.199 382.152 308.975C382.654 308.74 383.251 308.623 383.944 308.623C384.744 308.623 385.427 308.767 385.992 309.055C386.558 309.332 386.99 309.732 387.288 310.255L386.104 311.247C385.902 310.82 385.603 310.505 385.208 310.303C384.814 310.089 384.403 309.983 383.976 309.983C383.635 309.983 383.342 310.025 383.096 310.111C382.851 310.196 382.664 310.313 382.536 310.463C382.408 310.612 382.344 310.788 382.344 310.991C382.344 311.204 382.424 311.391 382.584 311.551C382.744 311.711 383.032 311.833 383.448 311.919L385.272 312.303C386.04 312.452 386.579 312.708 386.888 313.071C387.208 313.423 387.368 313.855 387.368 314.367C387.368 314.879 387.235 315.332 386.968 315.727C386.702 316.111 386.318 316.409 385.816 316.623C385.315 316.836 384.718 316.943 384.024 316.943Z" fill="#101828"/>
<path d="M333.183 338.602L324.957 331.945L334.582 335.283L344.206 331.945L335.983 338.602C335.166 339.263 333.999 339.263 333.183 338.602Z" fill="white"/>
</g>
<g filter="url(#filter6_bd_396_55682)">
<rect x="114.906" y="340.539" width="115.919" height="48" rx="10.4902" fill="white"/>
<rect x="135.629" y="361.917" width="18.7401" height="14.6428" fill="#C6D0FE"/>
<path d="M137.852 354.938L151.808 354.938L154.319 359.439H135.672L137.852 354.938Z" fill="#C6D0FE"/>
<path d="M133.789 362.682C133.789 363.903 134.779 364.893 135.999 364.893C137.22 364.893 138.21 363.903 138.21 362.682V358.56H133.789V362.682Z" fill="#1A4CFF"/>
<path d="M138.211 362.682C138.211 363.903 139.201 364.893 140.421 364.893C141.642 364.893 142.632 363.903 142.632 362.682V358.56H138.211V362.682Z" fill="#1A4CFF"/>
<path d="M142.629 362.682C142.629 363.903 143.619 364.893 144.839 364.893C146.06 364.893 147.05 363.903 147.05 362.682V358.56H142.629V362.682Z" fill="#1A4CFF"/>
<path d="M147.051 362.682C147.051 363.903 148.04 364.893 149.261 364.893C150.482 364.893 151.471 363.903 151.471 362.682V358.56H147.051V362.682Z" fill="#1A4CFF"/>
<path d="M151.473 362.682C151.473 363.903 152.462 364.893 153.683 364.893C154.904 364.893 155.893 363.903 155.893 362.682V358.56H151.473V362.682Z" fill="#1A4CFF"/>
<rect x="141.855" y="367.524" width="6.20923" height="6.8594" fill="#E8EDFF"/>
<path d="M171.641 359.319C172.59 359.319 173.411 359.5 174.105 359.863C174.798 360.215 175.385 360.737 175.865 361.431L174.713 362.535C174.307 361.916 173.849 361.473 173.337 361.207C172.835 360.929 172.238 360.791 171.545 360.791C171.033 360.791 170.611 360.86 170.281 360.999C169.95 361.137 169.705 361.324 169.545 361.559C169.395 361.783 169.321 362.039 169.321 362.327C169.321 362.657 169.433 362.945 169.657 363.191C169.891 363.436 170.323 363.628 170.953 363.767L173.097 364.247C174.121 364.471 174.846 364.812 175.273 365.271C175.699 365.729 175.913 366.311 175.913 367.015C175.913 367.665 175.737 368.231 175.385 368.711C175.033 369.191 174.542 369.559 173.913 369.815C173.294 370.071 172.563 370.199 171.721 370.199C170.974 370.199 170.302 370.103 169.705 369.911C169.107 369.719 168.585 369.457 168.137 369.127C167.689 368.796 167.321 368.417 167.033 367.991L168.217 366.807C168.441 367.18 168.723 367.516 169.065 367.815C169.406 368.103 169.801 368.327 170.249 368.487C170.707 368.647 171.214 368.727 171.769 368.727C172.259 368.727 172.681 368.668 173.033 368.551C173.395 368.433 173.667 368.263 173.849 368.039C174.041 367.804 174.137 367.527 174.137 367.207C174.137 366.897 174.03 366.625 173.817 366.391C173.614 366.156 173.23 365.975 172.665 365.847L170.345 365.319C169.705 365.18 169.177 364.983 168.761 364.727C168.345 364.471 168.035 364.161 167.833 363.799C167.63 363.425 167.529 363.009 167.529 362.551C167.529 361.953 167.689 361.415 168.009 360.935C168.339 360.444 168.814 360.055 169.433 359.767C170.051 359.468 170.787 359.319 171.641 359.319ZM180.402 359.687V367.639C180.402 368.033 180.504 368.321 180.706 368.503C180.92 368.684 181.202 368.775 181.554 368.775C181.842 368.775 182.093 368.732 182.306 368.647C182.52 368.551 182.717 368.423 182.898 368.263L183.282 369.511C183.037 369.724 182.733 369.895 182.37 370.023C182.018 370.14 181.624 370.199 181.186 370.199C180.728 370.199 180.306 370.124 179.922 369.975C179.538 369.825 179.24 369.585 179.026 369.255C178.813 368.913 178.701 368.471 178.69 367.927V360.167L180.402 359.687ZM183.154 362.039V363.383H177.154V362.039H183.154ZM188.32 361.879C189.098 361.879 189.786 362.044 190.384 362.375C190.981 362.705 191.445 363.185 191.776 363.815C192.117 364.433 192.288 365.175 192.288 366.039C192.288 366.903 192.117 367.649 191.776 368.279C191.445 368.897 190.981 369.372 190.384 369.703C189.786 370.033 189.098 370.199 188.32 370.199C187.541 370.199 186.853 370.033 186.256 369.703C185.658 369.372 185.189 368.897 184.848 368.279C184.506 367.649 184.336 366.903 184.336 366.039C184.336 365.175 184.506 364.433 184.848 363.815C185.189 363.185 185.658 362.705 186.256 362.375C186.853 362.044 187.541 361.879 188.32 361.879ZM188.32 363.223C187.84 363.223 187.429 363.335 187.088 363.559C186.757 363.772 186.501 364.087 186.32 364.503C186.138 364.919 186.048 365.431 186.048 366.039C186.048 366.636 186.138 367.148 186.32 367.575C186.501 367.991 186.757 368.311 187.088 368.535C187.429 368.748 187.84 368.855 188.32 368.855C188.8 368.855 189.205 368.748 189.536 368.535C189.866 368.311 190.122 367.991 190.304 367.575C190.485 367.148 190.576 366.636 190.576 366.039C190.576 365.431 190.485 364.919 190.304 364.503C190.122 364.087 189.866 363.772 189.536 363.559C189.205 363.335 188.8 363.223 188.32 363.223ZM194.441 370.039V362.039H195.897L196.057 363.479C196.271 362.956 196.585 362.561 197.001 362.295C197.428 362.017 197.951 361.879 198.569 361.879C198.729 361.879 198.889 361.895 199.049 361.927C199.209 361.948 199.343 361.985 199.449 362.039L199.209 363.543C199.092 363.5 198.959 363.468 198.809 363.447C198.671 363.415 198.479 363.399 198.233 363.399C197.903 363.399 197.577 363.489 197.257 363.671C196.937 363.841 196.671 364.103 196.457 364.455C196.255 364.807 196.153 365.255 196.153 365.799V370.039H194.441ZM204.383 370.199C203.583 370.199 202.879 370.033 202.271 369.703C201.663 369.372 201.188 368.897 200.847 368.279C200.516 367.649 200.351 366.903 200.351 366.039C200.351 365.175 200.516 364.433 200.847 363.815C201.188 363.185 201.658 362.705 202.255 362.375C202.852 362.044 203.53 361.879 204.287 361.879C205.066 361.879 205.727 362.039 206.271 362.359C206.815 362.679 207.231 363.116 207.519 363.671C207.807 364.225 207.951 364.855 207.951 365.559C207.951 365.751 207.946 365.932 207.935 366.103C207.924 366.273 207.908 366.423 207.887 366.551H201.455V365.239H207.135L206.287 365.495C206.287 364.769 206.106 364.215 205.743 363.831C205.38 363.436 204.884 363.239 204.255 363.239C203.796 363.239 203.396 363.345 203.055 363.559C202.714 363.772 202.452 364.092 202.271 364.519C202.09 364.935 201.999 365.447 201.999 366.055C201.999 366.652 202.095 367.159 202.287 367.575C202.479 367.991 202.751 368.305 203.103 368.519C203.455 368.732 203.871 368.839 204.351 368.839C204.884 368.839 205.316 368.737 205.647 368.535C205.978 368.332 206.239 368.049 206.431 367.687L207.791 368.327C207.599 368.711 207.338 369.047 207.007 369.335C206.687 369.612 206.303 369.825 205.855 369.975C205.407 370.124 204.916 370.199 204.383 370.199ZM213.153 370.199C212.353 370.199 211.622 370.044 210.961 369.735C210.3 369.425 209.777 368.988 209.393 368.423L210.577 367.399C210.812 367.836 211.148 368.188 211.585 368.455C212.033 368.711 212.566 368.839 213.185 368.839C213.676 368.839 214.065 368.753 214.353 368.583C214.641 368.412 214.785 368.172 214.785 367.863C214.785 367.66 214.716 367.484 214.577 367.335C214.449 367.175 214.198 367.052 213.825 366.967L212.145 366.615C211.292 366.444 210.684 366.172 210.321 365.799C209.958 365.415 209.777 364.929 209.777 364.343C209.777 363.905 209.905 363.5 210.161 363.127C210.417 362.753 210.79 362.455 211.281 362.231C211.782 361.996 212.38 361.879 213.073 361.879C213.873 361.879 214.556 362.023 215.121 362.311C215.686 362.588 216.118 362.988 216.417 363.511L215.233 364.503C215.03 364.076 214.732 363.761 214.337 363.559C213.942 363.345 213.532 363.239 213.105 363.239C212.764 363.239 212.47 363.281 212.225 363.367C211.98 363.452 211.793 363.569 211.665 363.719C211.537 363.868 211.473 364.044 211.473 364.247C211.473 364.46 211.553 364.647 211.713 364.807C211.873 364.967 212.161 365.089 212.577 365.175L214.401 365.559C215.169 365.708 215.708 365.964 216.017 366.327C216.337 366.679 216.497 367.111 216.497 367.623C216.497 368.135 216.364 368.588 216.097 368.983C215.83 369.367 215.446 369.665 214.945 369.879C214.444 370.092 213.846 370.199 213.153 370.199Z" fill="#101828"/>
<path d="M171.468 391.858L163.242 385.201L172.867 388.539L182.491 385.201L174.268 391.858C173.451 392.519 172.284 392.519 171.468 391.858Z" fill="white"/>
</g>
<defs>
<filter id="filter0_bd_396_55682" x="243.034" y="57.0691" width="200.544" height="182.662" filterUnits="userSpaceOnUse" color-interpolation-filters="sRGB">
<feFlood flood-opacity="0" result="BackgroundImageFix"/>
<feGaussianBlur in="BackgroundImageFix" stdDeviation="21.9066"/>
<feComposite in2="SourceAlpha" operator="in" result="effect1_backgroundBlur_396_55682"/>
<feColorMatrix in="SourceAlpha" type="matrix" values="0 0 0 0 0 0 0 0 0 0 0 0 0 0 0 0 0 0 127 0" result="hardAlpha"/>
<feOffset dy="5.3107"/>
<feGaussianBlur stdDeviation="16.5959"/>
<feComposite in2="hardAlpha" operator="out"/>
<feColorMatrix type="matrix" values="0 0 0 0 0 0 0 0 0 0 0 0 0 0 0 0 0 0 0.1 0"/>
<feBlend mode="normal" in2="effect1_backgroundBlur_396_55682" result="effect2_dropShadow_396_55682"/>
<feBlend mode="normal" in="SourceGraphic" in2="effect2_dropShadow_396_55682" result="shape"/>
</filter>
<filter id="filter1_bd_396_55682" x="108.945" y="-14.9583" width="243.544" height="182.662" filterUnits="userSpaceOnUse" color-interpolation-filters="sRGB">
<feFlood flood-opacity="0" result="BackgroundImageFix"/>
<feGaussianBlur in="BackgroundImageFix" stdDeviation="21.9066"/>
<feComposite in2="SourceAlpha" operator="in" result="effect1_backgroundBlur_396_55682"/>
<feColorMatrix in="SourceAlpha" type="matrix" values="0 0 0 0 0 0 0 0 0 0 0 0 0 0 0 0 0 0 127 0" result="hardAlpha"/>
<feOffset dy="5.3107"/>
<feGaussianBlur stdDeviation="16.5959"/>
<feComposite in2="hardAlpha" operator="out"/>
<feColorMatrix type="matrix" values="0 0 0 0 0 0 0 0 0 0 0 0 0 0 0 0 0 0 0.1 0"/>
<feBlend mode="normal" in2="effect1_backgroundBlur_396_55682" result="effect2_dropShadow_396_55682"/>
<feBlend mode="normal" in="SourceGraphic" in2="effect2_dropShadow_396_55682" result="shape"/>
</filter>
<filter id="filter2_bd_396_55682" x="-18.6961" y="75.0866" width="243.33" height="182.662" filterUnits="userSpaceOnUse" color-interpolation-filters="sRGB">
<feFlood flood-opacity="0" result="BackgroundImageFix"/>
<feGaussianBlur in="BackgroundImageFix" stdDeviation="21.9066"/>
<feComposite in2="SourceAlpha" operator="in" result="effect1_backgroundBlur_396_55682"/>
<feColorMatrix in="SourceAlpha" type="matrix" values="0 0 0 0 0 0 0 0 0 0 0 0 0 0 0 0 0 0 127 0" result="hardAlpha"/>
<feOffset dy="5.3107"/>
<feGaussianBlur stdDeviation="16.5959"/>
<feComposite in2="hardAlpha" operator="out"/>
<feColorMatrix type="matrix" values="0 0 0 0 0 0 0 0 0 0 0 0 0 0 0 0 0 0 0.1 0"/>
<feBlend mode="normal" in2="effect1_backgroundBlur_396_55682" result="effect2_dropShadow_396_55682"/>
<feBlend mode="normal" in="SourceGraphic" in2="effect2_dropShadow_396_55682" result="shape"/>
</filter>
<filter id="filter3_bd_396_55682" x="106.159" y="131.348" width="242.627" height="158.077" filterUnits="userSpaceOnUse" color-interpolation-filters="sRGB">
<feFlood flood-opacity="0" result="BackgroundImageFix"/>
<feGaussianBlur in="BackgroundImageFix" stdDeviation="21.9066"/>
<feComposite in2="SourceAlpha" operator="in" result="effect1_backgroundBlur_396_55682"/>
<feColorMatrix in="SourceAlpha" type="matrix" values="0 0 0 0 0 0 0 0 0 0 0 0 0 0 0 0 0 0 127 0" result="hardAlpha"/>
<feOffset dy="5.3107"/>
<feGaussianBlur stdDeviation="16.5959"/>
<feComposite in2="hardAlpha" operator="out"/>
<feColorMatrix type="matrix" values="0 0 0 0 0 0 0 0 0 0 0 0 0 0 0 0 0 0 0.1 0"/>
<feBlend mode="normal" in2="effect1_backgroundBlur_396_55682" result="effect2_dropShadow_396_55682"/>
<feBlend mode="normal" in="SourceGraphic" in2="effect2_dropShadow_396_55682" result="shape"/>
</filter>
<filter id="filter4_bd_396_55682" x="-9.82888" y="228.969" width="218.544" height="182.662" filterUnits="userSpaceOnUse" color-interpolation-filters="sRGB">
<feFlood flood-opacity="0" result="BackgroundImageFix"/>
<feGaussianBlur in="BackgroundImageFix" stdDeviation="21.9066"/>
<feComposite in2="SourceAlpha" operator="in" result="effect1_backgroundBlur_396_55682"/>
<feColorMatrix in="SourceAlpha" type="matrix" values="0 0 0 0 0 0 0 0 0 0 0 0 0 0 0 0 0 0 127 0" result="hardAlpha"/>
<feOffset dy="5.3107"/>
<feGaussianBlur stdDeviation="16.5959"/>
<feComposite in2="hardAlpha" operator="out"/>
<feColorMatrix type="matrix" values="0 0 0 0 0 0 0 0 0 0 0 0 0 0 0 0 0 0 0.1 0"/>
<feBlend mode="normal" in2="effect1_backgroundBlur_396_55682" result="effect2_dropShadow_396_55682"/>
<feBlend mode="normal" in="SourceGraphic" in2="effect2_dropShadow_396_55682" result="shape"/>
</filter>
<filter id="filter5_bd_396_55682" x="211.913" y="243.469" width="245.33" height="182.662" filterUnits="userSpaceOnUse" color-interpolation-filters="sRGB">
<feFlood flood-opacity="0" result="BackgroundImageFix"/>
<feGaussianBlur in="BackgroundImageFix" stdDeviation="21.9066"/>
<feComposite in2="SourceAlpha" operator="in" result="effect1_backgroundBlur_396_55682"/>
<feColorMatrix in="SourceAlpha" type="matrix" values="0 0 0 0 0 0 0 0 0 0 0 0 0 0 0 0 0 0 127 0" result="hardAlpha"/>
<feOffset dy="5.3107"/>
<feGaussianBlur stdDeviation="16.5959"/>
<feComposite in2="hardAlpha" operator="out"/>
<feColorMatrix type="matrix" values="0 0 0 0 0 0 0 0 0 0 0 0 0 0 0 0 0 0 0.1 0"/>
<feBlend mode="normal" in2="effect1_backgroundBlur_396_55682" result="effect2_dropShadow_396_55682"/>
<feBlend mode="normal" in="SourceGraphic" in2="effect2_dropShadow_396_55682" result="shape"/>
</filter>
<filter id="filter6_bd_396_55682" x="50.1985" y="296.725" width="245.33" height="182.662" filterUnits="userSpaceOnUse" color-interpolation-filters="sRGB">
<feFlood flood-opacity="0" result="BackgroundImageFix"/>
<feGaussianBlur in="BackgroundImageFix" stdDeviation="21.9066"/>
<feComposite in2="SourceAlpha" operator="in" result="effect1_backgroundBlur_396_55682"/>
<feColorMatrix in="SourceAlpha" type="matrix" values="0 0 0 0 0 0 0 0 0 0 0 0 0 0 0 0 0 0 127 0" result="hardAlpha"/>
<feOffset dy="5.3107"/>
<feGaussianBlur stdDeviation="16.5959"/>
<feComposite in2="hardAlpha" operator="out"/>
<feColorMatrix type="matrix" values="0 0 0 0 0 0 0 0 0 0 0 0 0 0 0 0 0 0 0.1 0"/>
<feBlend mode="normal" in2="effect1_backgroundBlur_396_55682" result="effect2_dropShadow_396_55682"/>
<feBlend mode="normal" in="SourceGraphic" in2="effect2_dropShadow_396_55682" result="shape"/>
</filter>
<clipPath id="clip0_396_55682">
<rect x="300.199" y="108.775" width="32.2147" height="32.2147" rx="4.77254" fill="white"/>
</clipPath>
<clipPath id="clip1_396_55682">
<rect x="166.109" y="36.7476" width="32.2147" height="32.2147" rx="4.77254" fill="white"/>
</clipPath>
<clipPath id="clip2_396_55682">
<rect x="48.8633" y="126.792" width="32.2147" height="32.2147" rx="4.77254" fill="white"/>
</clipPath>
<clipPath id="clip3_396_55682">
<rect x="47.3359" y="280.675" width="32.2147" height="32.2147" rx="4.77254" fill="white"/>
</clipPath>
</defs>
</svg>
