<svg width="1256" height="988" viewBox="0 0 1256 988" fill="none" xmlns="http://www.w3.org/2000/svg">
<g style="mix-blend-mode:color-dodge">
<path d="M776.709 0.0154114H844.699L764.619 40.8354L750.699 47.9154L577.229 136.375L549.649 150.455L430.029 211.445L416.199 218.485L276.919 289.495L263.039 296.575L154.909 351.685L140.859 358.855L7.19938 427.005C4.93937 428.175 2.49938 428.735 0.109375 428.685L0.109375 395.945L130.249 329.605L144.129 322.525L317.899 233.935L331.779 226.855L536.039 122.715L563.619 108.635L776.709 0.0154114Z" fill="#2E2F33"/>
<path d="M475.75 0.015686H510.24L563.61 108.646L577.22 136.376L679.49 344.386L686.28 358.296L762.23 512.836L769.02 526.656L777.15 543.196L835.74 662.406L851.22 693.936L911.07 815.696L920.07 834.006L934.6 863.636C934.77 863.986 934.95 864.366 935.12 864.756L964.61 924.706L971.44 938.616L992.19 980.816C993.28 982.976 993.76 985.306 993.76 987.556H960.96L912.33 888.556L898.32 860.006L819.72 700.066C819.5 699.676 819.33 699.286 819.16 698.896L756.96 572.296L743.26 544.476L709.33 475.416L702.54 461.596L602.54 258.036L595.71 244.216L549.65 150.446L536.03 122.716L475.75 0.015686Z" fill="#2E2F33"/>
<path d="M1255.44 498.186V528.996C1167.07 525.456 1095.68 538.386 1038.8 558.526C1031.8 560.966 1025.07 563.546 1018.59 566.246C915.06 608.386 865.049 673.356 851.25 693.946C848.59 697.866 847.23 700.186 847.1 700.446C843.02 707.846 833.56 710.606 826.11 706.496C822.87 704.756 820.54 701.996 819.18 698.906C817.43 694.786 817.56 689.896 819.89 685.586C820.41 684.686 825.4 675.806 835.76 662.426C853.06 640.036 885.39 604.916 937.02 572.746C938.19 572.036 939.35 571.326 940.52 570.556C947.97 566.056 955.999 561.486 964.559 556.986C1007.64 534.276 1064.91 513.236 1138.06 503.466C1148.04 502.116 1158.34 500.956 1168.96 500.056C1195.84 497.796 1224.6 496.956 1255.44 498.186Z" fill="#2E2F33"/>
<path d="M224.43 0.0155487H240.57L255.14 36.2555L331.78 226.856L337.83 241.926C338.22 242.836 338.4 243.826 338.4 244.776C338.4 247.846 336.57 250.736 333.53 251.906C329.53 253.506 325.05 251.556 323.44 247.626L317.92 233.936L243.93 49.8956L238.14 35.5155L225 2.86552C224.6 1.91553 224.43 0.965546 224.43 0.0155487Z" fill="#2E2F33"/>
<path d="M254.699 35.3457C254.869 35.6457 254.999 35.9457 255.129 36.2557C255.479 37.1657 255.649 38.0658 255.649 39.0157C255.649 41.7357 254.169 44.3757 251.559 45.7957L243.909 49.8958L69.0094 143.886L55.2594 151.276L3.80938 178.916C2.63938 179.566 1.37937 179.866 0.109375 179.866L0.109375 163.366L49.2594 136.976L62.9994 129.586L238.119 35.5157L244.209 32.2357C247.959 30.2057 252.649 31.5857 254.699 35.3457Z" fill="#2E2F33"/>
<path d="M1045.1 542.336C1045.1 543.346 1044.9 544.376 1044.48 545.366L914.621 846.586C912.931 850.496 908.381 852.306 904.431 850.636C900.501 848.966 898.671 844.446 900.351 840.526L1030.2 539.306C1031.89 535.396 1036.44 533.586 1040.39 535.256C1043.33 536.496 1045.1 539.346 1045.1 542.336Z" fill="#2E2F33"/>
<path d="M982.95 686.866L983.34 687.186L1079.03 760.136L1187.74 842.926L1201.09 853.096L1255.38 894.456L1255.44 894.516V913.956L1242.29 903.916L1190.78 864.676L1175.94 853.416L1068.66 771.646L977.05 701.786L973.55 699.086C970.12 696.516 969.47 691.686 972.06 688.346C974.73 684.936 979.58 684.296 982.95 686.866Z" fill="#2E2F33"/>
<path d="M986 408.126C986 410.886 984.5 413.556 981.87 414.946L755.53 533.736C751.75 535.726 747.05 534.286 745.05 530.526C743.04 526.766 744.49 522.106 748.28 520.116L974.62 401.326C978.4 399.336 983.1 400.776 985.1 404.536C985.72 405.686 986 406.916 986 408.126Z" fill="#2E2F33"/>
<path d="M961.371 204.116C961.371 206.836 959.911 209.476 957.341 210.876L673.001 365.506C669.241 367.546 664.531 366.176 662.471 362.446C660.411 358.716 661.791 354.036 665.551 351.996L949.891 197.366C953.651 195.326 958.361 196.696 960.421 200.426C961.061 201.596 961.371 202.856 961.371 204.116Z" fill="#2E2F33"/>
<path d="M852.701 263.216C852.701 266.286 850.841 269.176 847.801 270.376C843.821 271.946 839.311 270.006 837.731 266.056L744.701 32.8256C743.131 28.8756 745.071 24.3956 749.061 22.8256C753.041 21.2556 757.551 23.1956 759.131 27.1456L852.161 260.376C852.521 261.306 852.701 262.266 852.701 263.216Z" fill="#2E2F33"/>
<path d="M1029.47 0.015625H1045.09C1045.09 0.40564 1045.09 0.705566 1045 1.09558L1030.69 100.136H1030.65L1028.43 115.466L1011.73 231.006L1009.51 246.336L985.928 409.166L964.568 556.966H964.528L960.918 582.056C960.488 585.076 958.218 587.586 955.218 588.406C952.178 589.186 948.998 588.106 947.088 585.646L937.038 572.736L862.918 477.366L858.918 472.226C856.308 468.856 856.958 464.016 860.358 461.426C860.708 461.166 861.098 460.906 861.488 460.736C864.748 459.006 868.878 459.786 871.228 462.806L876.878 470.066L948.168 561.806L968.398 422.036L971.138 403.116L994.148 244.166L996.368 228.786L1013.07 113.246L1015.29 97.9556L1029.47 0.015625Z" fill="#2E2F33"/>
<path d="M18.4298 23.4155L62.9998 129.566L69.0198 143.916L144.11 322.556L150.33 337.356C150.39 337.546 150.46 337.746 150.52 337.936C150.84 338.706 152.2 343.016 154.34 349.836C154.53 350.416 154.73 351.056 154.92 351.706C159.26 365.796 165.93 388.886 171.31 413.846C175.84 434.626 179.54 456.686 180.19 475.796C180.25 477.916 180.32 479.976 180.32 482.036C180.32 486.406 180.13 490.656 179.74 494.576C179.61 495.546 179.42 496.566 179.29 497.466C174.76 520.756 144.5 540.186 110.1 555.046C105.24 557.106 100.32 559.096 95.3298 561.026C53.6698 577.106 10.5298 586.566 1.70984 588.496C1.18984 588.626 0.609844 588.686 0.0898438 588.686L0.0898438 573.056C29.1198 566.816 66.0398 556.266 97.5298 543.466C97.9798 543.206 98.4398 543.016 98.9598 542.886C134.33 528.156 162.51 510.656 164.26 493.026C166.46 471.536 161.47 440.726 155.13 412.546C150.34 391.446 144.76 371.886 140.88 358.826C138.22 350.076 136.35 344.286 135.89 342.996L134.79 340.296L130.26 329.616L55.2898 151.246L49.2698 136.966L7.93984 38.6655C10.7198 33.1355 14.2798 27.9855 18.4298 23.4155Z" fill="#2E2F33"/>
<path d="M727.562 461.576C727.562 464.366 726.032 467.066 723.352 468.426C551.402 556.246 435.002 557.516 367.472 472.286C350.052 450.296 328.882 438.496 304.552 437.206C242.462 433.916 178.202 498.506 177.552 499.166C174.562 502.206 169.652 502.266 166.582 499.306C163.522 496.336 163.452 491.456 166.442 488.416C169.262 485.546 236.182 418.186 305.322 421.826C334.322 423.346 359.332 437.126 379.652 462.766C441.852 541.276 551.952 538.646 716.242 454.736C720.052 452.786 724.722 454.276 726.692 458.066C727.282 459.196 727.562 460.396 727.562 461.576Z" fill="#2E2F33"/>
<path d="M562.48 522.836C562.48 525.836 560.71 528.686 557.76 529.926C553.81 531.586 549.26 529.766 547.59 525.846L409.89 203.736C408.21 199.816 410.06 195.296 414 193.636C417.95 191.976 422.5 193.796 424.17 197.716L561.87 519.826C562.29 520.806 562.48 521.826 562.48 522.836Z" fill="#2E2F33"/>
<path d="M271.049 275.796L276.919 289.486L336.509 428.826L337.769 431.766C338.159 432.756 338.379 433.756 338.379 434.786C338.379 436.166 337.989 437.546 337.249 438.806L333.769 444.506L250.559 580.476L241.909 594.646L142.819 756.526L141.339 758.986C140.429 760.536 138.949 761.706 137.209 762.266L128.509 765.206L2.62937 807.876C1.79938 808.176 0.929375 808.306 0.109375 808.306L0.109375 792.496L126.029 749.826L129.549 748.616L139.029 733.106L234.679 576.796L318.799 439.276L321.929 434.176L317.229 423.206L263.029 296.566L256.719 281.796C255.069 277.906 256.889 273.376 260.849 271.686C264.789 270.046 269.359 271.866 271.049 275.796Z" fill="#2E2F33"/>
<path d="M532.241 450.546C527.251 452.146 522.461 454.136 517.991 456.666C495.771 468.816 480.351 491.596 478.661 518.116V518.196C478.601 519.726 478.531 521.256 478.531 522.856C478.531 524.076 478.531 525.306 478.661 526.526C478.731 528.976 478.981 531.496 479.371 533.866V533.936C483.771 563.596 505.481 587.596 533.981 595.616H534.041C540.581 597.526 547.581 598.446 554.711 598.446C559.891 598.446 565.011 597.986 569.871 596.996C604.601 589.966 630.901 559.386 630.901 522.856C630.901 518.426 630.511 513.916 629.731 509.706C629.281 507.186 628.761 504.736 628.051 502.366C627.341 499.766 626.501 497.246 625.461 494.876V494.796C614.191 466.976 586.721 447.176 554.711 447.176C546.881 447.176 539.371 448.326 532.241 450.546ZM610.831 499.846V499.926C611.871 502.376 612.711 504.896 613.361 507.416V507.496C614.011 509.946 614.531 512.316 614.851 514.836C615.241 517.516 615.431 520.116 615.431 522.866C615.431 556.116 588.221 583.096 554.731 583.096C525.451 583.096 501.151 562.606 495.321 535.166V535.086C494.801 532.636 494.481 530.266 494.281 527.746C494.151 526.136 494.091 524.536 494.091 522.856C494.091 521.706 494.091 520.646 494.151 519.566V519.486C495.321 498.776 507.041 480.806 524.081 470.876C528.491 468.276 533.281 466.216 538.331 464.836H538.401C543.581 463.386 549.091 462.616 554.731 462.616C579.991 462.616 601.691 478.056 610.831 499.846Z" fill="#2E2F33"/>
<path d="M961.382 204.116C961.382 206.866 959.892 209.466 957.362 210.846L953.802 212.756C953.802 212.756 953.802 212.756 953.742 212.756L950.892 214.366V214.446C961.192 229.046 976.352 239.746 994.172 244.176L994.622 241.116L996.372 228.806C980.952 224.446 968.062 214.206 960.412 200.446C961.062 201.586 961.382 202.886 961.382 204.116ZM961.382 204.116C961.382 206.866 959.892 209.466 957.362 210.846L953.802 212.756C953.802 212.756 953.802 212.756 953.742 212.756L950.892 214.366V214.446C961.192 229.046 976.352 239.746 994.172 244.176L994.622 241.116L996.372 228.806C980.952 224.446 968.062 214.206 960.412 200.446C961.062 201.586 961.382 202.886 961.382 204.116ZM961.382 204.116C961.382 206.866 959.892 209.466 957.362 210.846L953.802 212.756L950.882 214.366V214.446C961.182 229.046 976.342 239.746 994.162 244.176L994.612 241.116L996.362 228.806C980.942 224.446 968.052 214.206 960.402 200.446C961.062 201.586 961.382 202.886 961.382 204.116ZM937.602 172.166C937.602 182.256 939.672 192.036 943.432 200.826V200.906C944.472 203.276 945.572 205.646 946.802 207.786C947.582 209.166 948.352 210.536 949.202 211.836C949.722 212.676 950.302 213.516 950.882 214.356V214.436C961.182 229.036 976.342 239.736 994.162 244.166C995.072 244.396 995.972 244.626 996.882 244.776C998.302 245.086 999.792 245.386 1001.28 245.536C1004 245.996 1006.72 246.226 1009.51 246.306C1010.48 246.456 1011.39 246.456 1012.42 246.456C1053.62 246.456 1087.25 213.056 1087.25 172.156C1087.25 137.456 1063.15 108.256 1030.69 100.076H1030.63C1025.71 98.8556 1020.59 98.1655 1015.28 97.9355H1012.43C971.162 97.9455 937.602 131.196 937.602 172.166ZM1071.71 172.166C1071.71 204.656 1045.08 231.026 1012.43 231.026H1011.72C1006.41 230.876 1001.23 230.186 996.372 228.806C980.952 224.446 968.062 214.206 960.412 200.446V200.366C955.812 192.036 953.152 182.406 953.152 172.166C953.152 139.676 979.782 113.306 1012.43 113.306H1013.08C1018.39 113.306 1023.57 114.066 1028.43 115.446C1053.38 122.406 1071.71 145.186 1071.71 172.166ZM961.382 204.116C961.382 206.866 959.892 209.466 957.362 210.846L953.802 212.756C953.802 212.756 953.802 212.756 953.742 212.756L950.892 214.366V214.446C961.192 229.046 976.352 239.746 994.172 244.176L994.622 241.116L996.372 228.806C980.952 224.446 968.062 214.206 960.412 200.446C961.062 201.586 961.382 202.886 961.382 204.116ZM961.382 204.116C961.382 206.866 959.892 209.466 957.362 210.846L953.802 212.756C953.802 212.756 953.802 212.756 953.742 212.756L950.892 214.366V214.446C961.192 229.046 976.352 239.746 994.172 244.176L994.622 241.116L996.372 228.806C980.952 224.446 968.062 214.206 960.412 200.446C961.062 201.586 961.382 202.886 961.382 204.116Z" fill="#2E2F33"/>
<path d="M621.021 244.766C621.021 247.696 619.331 250.496 616.471 251.786L467.711 318.826C463.811 320.586 459.211 318.866 457.441 314.996C455.671 311.126 457.401 306.556 461.301 304.806L610.061 237.766C613.961 236.006 618.561 237.726 620.331 241.596C620.801 242.626 621.021 243.706 621.021 244.766Z" fill="#2E2F33"/>
<path d="M1248.12 37.3756C1252.85 46.5757 1255.44 56.9356 1255.44 67.9356V71.3456C1214.76 108.526 1186.64 161.796 1171.29 231.016C1170.19 236.036 1169.15 241.176 1168.11 246.456C1165.84 258.676 1163.9 271.286 1162.34 284.416C1160.85 297.026 1159.75 309.566 1159.1 321.856V321.916C1158.58 330.596 1158.19 339.156 1158.06 347.586C1157.93 352.796 1157.87 358.006 1157.87 363.086C1157.87 366.306 1157.87 369.456 1157.93 372.546C1158.51 429.996 1165.31 477.856 1168.94 500.046C1170.37 508.406 1171.27 513.166 1171.34 513.366C1173.09 521.666 1167.71 529.836 1159.29 531.576C1150.93 533.316 1142.7 527.976 1140.96 519.606C1140.77 518.636 1139.6 512.976 1138.05 503.456C1134.36 481.386 1128.4 438.736 1127.1 386.626C1126.71 373.886 1126.65 360.506 1126.97 346.806C1127.49 325.576 1128.85 303.386 1131.5 280.866C1144.59 170.476 1184.31 88.2656 1248.12 37.3756Z" fill="#2E2F33"/>
<path d="M1238.08 657.276L1255.44 593.396V652.576L1253.5 659.846L1201.09 853.096L1199.73 858.046C1199.02 860.556 1197.14 862.546 1194.74 863.326L1190.79 864.676L1093.28 897.556L971.419 938.656L955.739 943.926C951.659 945.276 947.249 943.156 945.889 939.106C944.459 935.116 946.669 930.746 950.749 929.326L964.609 924.626L1084.66 884.166L1175.94 853.416L1185.79 850.066L1187.73 842.926L1238.08 657.276Z" fill="#2E2F33"/>
<path d="M1207.5 356.206C1216.57 359.806 1225.83 364.826 1234.84 371.776C1242.48 377.696 1249.42 384.576 1255.44 392.366C1255.64 392.496 1255.7 392.626 1255.76 392.756L1255.44 394.626V420.746C1254.86 419.716 1254.34 418.686 1253.76 417.656C1253.5 417.206 1253.24 416.756 1252.92 416.306C1252.92 416.176 1252.86 416.046 1252.79 415.986C1245.41 403.056 1236.27 392.436 1225.45 384.076C1210.22 372.236 1193.71 366.836 1179.58 364.516C1171.29 363.226 1163.77 362.906 1157.88 363.096C1149.46 363.286 1144.14 364.316 1143.95 364.316C1139.8 365.216 1135.66 362.516 1134.82 358.396C1133.91 354.216 1136.57 350.166 1140.78 349.256C1141.49 349.066 1148.04 347.776 1158.08 347.586C1170.57 347.266 1188.58 348.676 1207.5 356.206Z" fill="#2E2F33"/>
<path d="M1153.86 231.016H1255.44V246.456H1153.86C1149.58 246.456 1146.15 242.986 1146.15 238.676C1146.15 234.486 1149.58 231.016 1153.86 231.016Z" fill="#2E2F33"/>
<path d="M109.07 548.936L110.07 555.026L139.04 733.106L142.82 756.476V756.516L158.57 853.266L161.31 870.116L174.45 950.796L176.93 966.126L180.24 986.336C180.28 986.766 180.33 987.116 180.33 987.546H164.67L160.45 961.416L128.52 765.196L126.04 749.816L95.3298 561.026L93.7598 551.396C93.1098 547.206 95.9798 543.236 100.2 542.586C104.42 541.896 108.37 544.746 109.07 548.936Z" fill="#2E2F33"/>
<path d="M936.309 870.646C936.309 877.186 932.089 883.246 925.469 885.326C923.709 885.876 748.619 938.786 681.169 774.696C613.739 610.616 754.869 537.166 756.299 536.446C763.939 532.596 773.269 535.626 777.149 543.206C781.029 550.796 777.979 560.066 770.339 563.916C765.579 566.356 653.399 625.646 709.889 763.056C733.689 820.946 775.359 854.166 833.739 861.806C878.269 867.626 915.729 856.076 916.099 855.956C924.259 853.386 932.979 857.886 935.569 865.986C936.079 867.536 936.309 869.106 936.309 870.646Z" fill="#2E2F33"/>
<path d="M698.03 754.976C698.03 757.206 697.06 759.416 695.19 760.936C691.88 763.636 686.99 763.156 684.27 759.866L553.25 601.166L157.28 872.876C153.75 875.296 148.92 874.416 146.49 870.916C144.06 867.416 144.94 862.616 148.46 860.206L550.32 584.456C553.64 582.176 558.17 582.806 560.73 585.906L696.27 750.096C697.45 751.526 698.03 753.256 698.03 754.976Z" fill="#2E2F33"/>
<path d="M361.551 728.656C361.551 730.986 360.491 733.286 358.471 734.806C355.051 737.376 350.191 736.706 347.601 733.316L235.011 585.606C232.431 582.216 233.101 577.386 236.511 574.816C239.931 572.246 244.791 572.916 247.381 576.306L359.981 724.016C361.041 725.406 361.551 727.046 361.551 728.656Z" fill="#2E2F33"/>
<path d="M253.71 873.226C253.71 890.536 249.82 906.046 242.05 919.646C219.16 959.696 171.32 967.516 169.29 967.826C165.06 968.486 161.09 965.606 160.43 961.406C159.77 957.206 162.66 953.276 166.89 952.616C167.37 952.536 209.53 945.476 228.62 911.936C242.48 887.576 241.27 854.956 225.02 814.976C223.41 811.026 225.33 806.546 229.31 804.956C233.28 803.366 237.81 805.266 239.41 809.216C248.94 832.656 253.71 854.046 253.71 873.226Z" fill="#2E2F33"/>
<path d="M288.97 776.566L290.19 781.666L307.41 855.046L310.98 870.116L320.03 908.646L323.55 923.766L338.17 985.826C338.34 986.426 338.39 986.946 338.39 987.556H322.64L306.85 920.346C306.81 920.176 306.81 920.046 306.76 919.916L276.49 791.076L273.88 780.066C273.1 776.826 274.53 773.586 277.23 771.856C277.97 771.376 278.8 771.036 279.67 770.816C283.84 769.866 288.02 772.416 288.97 776.566Z" fill="#2E2F33"/>
<path d="M502.969 719.666C502.969 735.056 483.009 747.436 463.609 759.466C447.119 769.696 426.619 782.436 429.069 791.686C438.109 825.506 339.039 860.886 308.469 870.926C304.399 872.256 300.019 870.066 298.669 866.036C297.339 862.006 299.539 857.646 303.599 856.306C365.649 835.936 417.199 807.566 414.079 795.646C408.679 775.396 432.429 760.666 455.389 746.416C470.079 737.306 490.219 724.816 486.929 717.716C475.049 691.896 455.019 659.146 454.809 658.816C452.589 655.186 453.749 650.446 457.399 648.236C461.059 646.026 465.829 647.176 468.059 650.806C468.899 652.176 488.769 684.656 501.039 711.316C502.359 714.196 502.969 716.976 502.969 719.666Z" fill="#2E2F33"/>
<path d="M809.42 869.336L812.86 889.116L829.69 986.256C829.78 986.686 829.82 987.116 829.82 987.556H814.2L796.37 884.846L794.11 871.936C793.41 867.786 796.24 863.776 800.46 863.036C804.68 862.346 808.68 865.146 809.42 869.336Z" fill="#2E2F33"/>
<path d="M764.482 845.416C765.442 846.796 765.912 848.306 765.912 849.866C765.912 852.286 764.782 854.656 762.612 856.176L751.522 863.996L639.562 942.546C639.212 942.846 638.862 943.106 638.472 943.326L575.492 987.556H554.262C554.262 985.136 555.432 982.806 557.572 981.296L617.032 939.526L632.912 928.386L738.352 854.356L753.702 843.606C757.182 841.136 762.012 841.956 764.482 845.416Z" fill="#2E2F33"/>
<path d="M710.921 785.466C710.921 788.666 708.911 791.646 705.701 792.746L316.971 926.006C312.921 927.396 308.501 925.256 307.111 921.236C305.711 917.206 307.861 912.826 311.911 911.446L700.631 778.186C704.681 776.796 709.101 778.936 710.491 782.956C710.781 783.786 710.921 784.636 710.921 785.466Z" fill="#2E2F33"/>
<path d="M642.299 936.646C642.299 937.056 642.269 937.466 642.199 937.876C641.519 942.066 637.569 944.926 633.339 944.266C631.839 944.026 596.319 938.146 576.359 907.896C562.469 886.846 559.739 859.706 568.239 827.216C569.309 823.096 573.549 820.626 577.699 821.696C581.849 822.766 584.339 826.976 583.259 831.086C575.939 859.116 577.949 882.086 589.259 899.326C605.349 923.866 635.489 929.006 635.789 929.056C639.589 929.666 642.299 932.936 642.299 936.646Z" fill="#2E2F33"/>
<path d="M453.388 871.676L455.258 878.626L484.018 985.566C484.188 986.256 484.278 986.866 484.278 987.556H468.528L440.558 883.636L438.388 875.646C437.428 871.936 439.298 868.176 442.648 866.666C443.038 866.496 443.478 866.366 443.908 866.236C448.038 865.106 452.308 867.566 453.388 871.676Z" fill="#2E2F33"/>
</g>
</svg>
